ISO-10303-21;
HEADER;
FILE_DESCRIPTION (( 'STEP AP214' ),
    '1' );
FILE_NAME ('conical material wrap.STEP',
    '2025-03-27T16:18:02',
    ( '' ),
    ( '' ),
    'SwSTEP 2.0',
    'SolidWorks 2023',
    '' );
FILE_SCHEMA (( 'AUTOMOTIVE_DESIGN' ));
ENDSEC;

DATA;
#1 = CARTESIAN_POINT ( 'NONE',  ( 0.000000000000000000, 0.000000000000000000, -43.25199423880181371 ) ) ;
#2 = EDGE_CURVE ( 'NONE', #179, #124, #69, .T. ) ;
#3 = CIRCLE ( 'NONE', #116, 53.51503531673573377 ) ;
#4 = DIRECTION ( 'NONE',  ( -0.000000000000000000, -1.000000000000000000, -0.000000000000000000 ) ) ;
#5 = VECTOR ( 'NONE', #166, 1000.000000000000000 ) ;
#6 = APPLICATION_CONTEXT ( 'automotive_design' ) ;
#7 = CARTESIAN_POINT ( 'NONE',  ( 0.000000000000000000, 0.000000000000000000, 0.000000000000000000 ) ) ;
#8 = DIRECTION ( 'NONE',  ( 0.000000000000000000, 0.000000000000000000, 1.000000000000000000 ) ) ;
#9 = VERTEX_POINT ( 'NONE', #122 ) ;
#10 = EDGE_LOOP ( 'NONE', ( #175, #148, #190, #160 ) ) ;
#11 = PLANE ( 'NONE',  #168 ) ;
#12 =( GEOMETRIC_REPRESENTATION_CONTEXT ( 3 ) GLOBAL_UNCERTAINTY_ASSIGNED_CONTEXT ( ( #174 ) ) GLOBAL_UNIT_ASSIGNED_CONTEXT ( ( #130, #94, #63 ) ) REPRESENTATION_CONTEXT ( 'NONE', 'WORKASPACE' ) );
#13 = ORIENTED_EDGE ( 'NONE', *, *, #107, .T. ) ;
#14 = ORIENTED_EDGE ( 'NONE', *, *, #76, .T. ) ;
#15 = DIRECTION ( 'NONE',  ( 0.000000000000000000, 0.000000000000000000, -1.000000000000000000 ) ) ;
#16 = CLOSED_SHELL ( 'NONE', ( #83, #181, #20, #131, #157, #37 ) ) ;
#17 = PLANE ( 'NONE',  #53 ) ;
#18 = CARTESIAN_POINT ( 'NONE',  ( 0.000000000000000000, 1.000000000000000000, -43.25199423880181371 ) ) ;
#19 = LINE ( 'NONE', #186, #48 ) ;
#20 = ADVANCED_FACE ( 'NONE', ( #89 ), #22, .F. ) ;
#21 = ORIENTED_EDGE ( 'NONE', *, *, #118, .F. ) ;
#22 = PLANE ( 'NONE',  #65 ) ;
#23 = ORIENTED_EDGE ( 'NONE', *, *, #107, .F. ) ;
#24 = EDGE_LOOP ( 'NONE', ( #189, #70, #52, #162 ) ) ;
#25 = ORIENTED_EDGE ( 'NONE', *, *, #2, .T. ) ;
#26 = CARTESIAN_POINT ( 'NONE',  ( 0.000000000000000000, 0.000000000000000000, 0.000000000000000000 ) ) ;
#27 = PRODUCT_RELATED_PRODUCT_CATEGORY ( 'part', '', ( #106 ) ) ;
#28 = FACE_OUTER_BOUND ( 'NONE', #173, .T. ) ;
#29 = AXIS2_PLACEMENT_3D ( 'NONE', #7, #77, #184 ) ;
#30 = ADVANCED_BREP_SHAPE_REPRESENTATION ( 'conical material wrap', ( #78, #35 ), #178 ) ;
#31 = CARTESIAN_POINT ( 'NONE',  ( 0.000000000000000000, 0.000000000000000000, -53.51503531673573377 ) ) ;
#32 = CARTESIAN_POINT ( 'NONE',  ( 42.71732711739149835, 1.000000000000000000, -6.779747014388830095 ) ) ;
#33 = DIRECTION ( 'NONE',  ( 0.9876467176382077717, 0.000000000000000000, -0.1566970361508930598 ) ) ;
#34 = VECTOR ( 'NONE', #61, 1000.000000000000000 ) ;
#35 = AXIS2_PLACEMENT_3D ( 'NONE', #132, #8, #100 ) ;
#36 =( NAMED_UNIT ( * ) PLANE_ANGLE_UNIT ( ) SI_UNIT ( $, .RADIAN. ) );
#37 = ADVANCED_FACE ( 'NONE', ( #43 ), #90, .T. ) ;
#38 = SURFACE_STYLE_USAGE ( .BOTH. , #108 ) ;
#39 = DIRECTION ( 'NONE',  ( 0.000000000000000000, 0.000000000000000000, 1.000000000000000000 ) ) ;
#40 = CIRCLE ( 'NONE', #29, 43.25199423880181371 ) ;
#41 = ORIENTED_EDGE ( 'NONE', *, *, #146, .T. ) ;
#42 = VERTEX_POINT ( 'NONE', #119 ) ;
#43 = FACE_OUTER_BOUND ( 'NONE', #24, .T. ) ;
#44 = CARTESIAN_POINT ( 'NONE',  ( 0.000000000000000000, 1.000000000000000000, 0.000000000000000000 ) ) ;
#45 = EDGE_CURVE ( 'NONE', #124, #42, #188, .T. ) ;
#46 = FACE_OUTER_BOUND ( 'NONE', #75, .T. ) ;
#47 = LINE ( 'NONE', #141, #97 ) ;
#48 = VECTOR ( 'NONE', #33, 1000.000000000000000 ) ;
#49 = AXIS2_PLACEMENT_3D ( 'NONE', #44, #127, #15 ) ;
#50 = DIRECTION ( 'NONE',  ( -0.1566970361508930598, 0.000000000000000000, -0.9876467176382077717 ) ) ;
#51 = APPLICATION_PROTOCOL_DEFINITION ( 'draft international standard', 'automotive_design', 1998, #6 ) ;
#52 = ORIENTED_EDGE ( 'NONE', *, *, #133, .T. ) ;
#53 = AXIS2_PLACEMENT_3D ( 'NONE', #18, #81, #143 ) ;
#54 =( LENGTH_UNIT ( ) NAMED_UNIT ( * ) SI_UNIT ( .MILLI., .METRE. ) );
#55 = ORIENTED_EDGE ( 'NONE', *, *, #45, .T. ) ;
#56 = ORIENTED_EDGE ( 'NONE', *, *, #177, .F. ) ;
#57 = AXIS2_PLACEMENT_3D ( 'NONE', #86, #74, #104 ) ;
#58 = VECTOR ( 'NONE', #110, 1000.000000000000000 ) ;
#59 = CARTESIAN_POINT ( 'NONE',  ( 0.000000000000000000, 1.000000000000000000, 0.000000000000000000 ) ) ;
#60 = FILL_AREA_STYLE_COLOUR ( '', #121 ) ;
#61 = DIRECTION ( 'NONE',  ( -0.000000000000000000, -0.000000000000000000, 1.000000000000000000 ) ) ;
#62 = DIRECTION ( 'NONE',  ( 0.000000000000000000, -0.000000000000000000, -1.000000000000000000 ) ) ;
#63 =( NAMED_UNIT ( * ) SI_UNIT ( $, .STERADIAN. ) SOLID_ANGLE_UNIT ( ) );
#64 = CARTESIAN_POINT ( 'NONE',  ( 42.71732711739149835, 1.000000000000000000, -6.779747014388830095 ) ) ;
#65 = AXIS2_PLACEMENT_3D ( 'NONE', #103, #134, #182 ) ;
#66 = VECTOR ( 'NONE', #4, 1000.000000000000000 ) ;
#67 = ORIENTED_EDGE ( 'NONE', *, *, #102, .F. ) ;
#68 =( NAMED_UNIT ( * ) SI_UNIT ( $, .STERADIAN. ) SOLID_ANGLE_UNIT ( ) );
#69 = CIRCLE ( 'NONE', #96, 53.51503531673573377 ) ;
#70 = ORIENTED_EDGE ( 'NONE', *, *, #159, .F. ) ;
#71 = PRODUCT_DEFINITION_SHAPE ( 'NONE', 'NONE',  #140 ) ;
#72 = VERTEX_POINT ( 'NONE', #87 ) ;
#73 = MECHANICAL_DESIGN_GEOMETRIC_PRESENTATION_REPRESENTATION (  '', ( #115 ), #12 ) ;
#74 = DIRECTION ( 'NONE',  ( -0.000000000000000000, 1.000000000000000000, -0.000000000000000000 ) ) ;
#75 = EDGE_LOOP ( 'NONE', ( #41, #135, #23, #149 ) ) ;
#76 = EDGE_CURVE ( 'NONE', #176, #98, #191, .T. ) ;
#77 = DIRECTION ( 'NONE',  ( -0.000000000000000000, -1.000000000000000000, 0.000000000000000000 ) ) ;
#78 = MANIFOLD_SOLID_BREP ( 'Cut-Extrude2', #16 ) ;
#79 = CARTESIAN_POINT ( 'NONE',  ( 0.000000000000000000, 0.000000000000000000, -53.51503531673573377 ) ) ;
#80 = CARTESIAN_POINT ( 'NONE',  ( 0.000000000000000000, 0.000000000000000000, 0.000000000000000000 ) ) ;
#81 = DIRECTION ( 'NONE',  ( 1.000000000000000000, -0.000000000000000000, 0.000000000000000000 ) ) ;
#82 = CARTESIAN_POINT ( 'NONE',  ( 0.000000000000000000, 1.000000000000000000, -43.25199423880181371 ) ) ;
#83 = ADVANCED_FACE ( 'NONE', ( #28 ), #11, .F. ) ;
#84 = PRODUCT_DEFINITION_CONTEXT ( 'detailed design', #6, 'design' ) ;
#85 = ORIENTED_EDGE ( 'NONE', *, *, #113, .T. ) ;
#86 = CARTESIAN_POINT ( 'NONE',  ( 0.000000000000000000, 0.000000000000000000, 0.000000000000000000 ) ) ;
#87 = CARTESIAN_POINT ( 'NONE',  ( 42.71732711739149835, 1.000000000000000000, -6.779747014388830095 ) ) ;
#88 = CIRCLE ( 'NONE', #111, 43.25199423880181371 ) ;
#89 = FACE_OUTER_BOUND ( 'NONE', #165, .T. ) ;
#90 = CYLINDRICAL_SURFACE ( 'NONE', #57, 53.51503531673573377 ) ;
#91 = CARTESIAN_POINT ( 'NONE',  ( 0.000000000000000000, 1.000000000000000000, 0.000000000000000000 ) ) ;
#92 = CARTESIAN_POINT ( 'NONE',  ( 52.85358596274714671, 1.000000000000000000, -8.387935135059862546 ) ) ;
#93 = DIRECTION ( 'NONE',  ( 0.000000000000000000, 1.000000000000000000, -0.000000000000000000 ) ) ;
#94 =( NAMED_UNIT ( * ) PLANE_ANGLE_UNIT ( ) SI_UNIT ( $, .RADIAN. ) );
#95 = PLANE ( 'NONE',  #183 ) ;
#96 = AXIS2_PLACEMENT_3D ( 'NONE', #59, #138, #39 ) ;
#97 = VECTOR ( 'NONE', #109, 1000.000000000000000 ) ;
#98 = VERTEX_POINT ( 'NONE', #114 ) ;
#99 = APPLICATION_PROTOCOL_DEFINITION ( 'draft international standard', 'automotive_design', 1998, #171 ) ;
#100 = DIRECTION ( 'NONE',  ( 1.000000000000000000, 0.000000000000000000, 0.000000000000000000 ) ) ;
#101 = PRESENTATION_STYLE_ASSIGNMENT (( #38 ) ) ;
#102 = EDGE_CURVE ( 'NONE', #176, #124, #170, .T. ) ;
#103 = CARTESIAN_POINT ( 'NONE',  ( 0.000000000000000000, 1.000000000000000000, 0.000000000000000000 ) ) ;
#104 = DIRECTION ( 'NONE',  ( 0.000000000000000000, 0.000000000000000000, 1.000000000000000000 ) ) ;
#105 = ORIENTED_EDGE ( 'NONE', *, *, #45, .F. ) ;
#106 = PRODUCT ( 'conical material wrap', 'conical material wrap', '', ( #187 ) ) ;
#107 = EDGE_CURVE ( 'NONE', #42, #72, #88, .T. ) ;
#108 = SURFACE_SIDE_STYLE ('',( #180 ) ) ;
#109 = DIRECTION ( 'NONE',  ( -0.000000000000000000, 1.000000000000000000, -0.000000000000000000 ) ) ;
#110 = DIRECTION ( 'NONE',  ( 0.9876467176382077717, 0.000000000000000000, -0.1566970361508930598 ) ) ;
#111 = AXIS2_PLACEMENT_3D ( 'NONE', #91, #158, #172 ) ;
#112 = LINE ( 'NONE', #155, #58 ) ;
#113 = EDGE_CURVE ( 'NONE', #120, #9, #19, .T. ) ;
#114 = CARTESIAN_POINT ( 'NONE',  ( 0.000000000000000000, 0.000000000000000000, -43.25199423880181371 ) ) ;
#115 = STYLED_ITEM ( 'NONE', ( #101 ), #78 ) ;
#116 = AXIS2_PLACEMENT_3D ( 'NONE', #26, #93, #142 ) ;
#117 = SHAPE_DEFINITION_REPRESENTATION ( #71, #30 ) ;
#118 = EDGE_CURVE ( 'NONE', #42, #98, #126, .T. ) ;
#119 = CARTESIAN_POINT ( 'NONE',  ( 0.000000000000000000, 1.000000000000000000, -43.25199423880181371 ) ) ;
#120 = VERTEX_POINT ( 'NONE', #125 ) ;
#121 = COLOUR_RGB ( '',0.7921568627450980005, 0.8196078431372548767, 0.9333333333333333481 ) ;
#122 = CARTESIAN_POINT ( 'NONE',  ( 52.85358596274714671, 0.000000000000000000, -8.387935135059864322 ) ) ;
#123 = FILL_AREA_STYLE ('',( #60 ) ) ;
#124 = VERTEX_POINT ( 'NONE', #185 ) ;
#125 = CARTESIAN_POINT ( 'NONE',  ( 42.71732711739149835, 0.000000000000000000, -6.779747014388830095 ) ) ;
#126 = LINE ( 'NONE', #82, #5 ) ;
#127 = DIRECTION ( 'NONE',  ( -0.000000000000000000, -1.000000000000000000, -0.000000000000000000 ) ) ;
#128 = VECTOR ( 'NONE', #156, 1000.000000000000000 ) ;
#129 = FACE_OUTER_BOUND ( 'NONE', #10, .T. ) ;
#130 =( LENGTH_UNIT ( ) NAMED_UNIT ( * ) SI_UNIT ( .MILLI., .METRE. ) );
#131 = ADVANCED_FACE ( 'NONE', ( #129 ), #95, .T. ) ;
#132 = CARTESIAN_POINT ( 'NONE',  ( 0.000000000000000000, 0.000000000000000000, 0.000000000000000000 ) ) ;
#133 = EDGE_CURVE ( 'NONE', #9, #176, #3, .T. ) ;
#134 = DIRECTION ( 'NONE',  ( 0.000000000000000000, -1.000000000000000000, 0.000000000000000000 ) ) ;
#135 = ORIENTED_EDGE ( 'NONE', *, *, #152, .F. ) ;
#136 = ORIENTED_EDGE ( 'NONE', *, *, #152, .T. ) ;
#137 = PRESENTATION_LAYER_ASSIGNMENT (  '', '', ( #115 ) ) ;
#138 = DIRECTION ( 'NONE',  ( 0.000000000000000000, 1.000000000000000000, -0.000000000000000000 ) ) ;
#139 = ORIENTED_EDGE ( 'NONE', *, *, #177, .T. ) ;
#140 = PRODUCT_DEFINITION ( 'UNKNOWN', '', #145, #84 ) ;
#141 = CARTESIAN_POINT ( 'NONE',  ( 52.85358596274714671, 0.000000000000000000, -8.387935135059862546 ) ) ;
#142 = DIRECTION ( 'NONE',  ( 0.000000000000000000, 0.000000000000000000, 1.000000000000000000 ) ) ;
#143 = DIRECTION ( 'NONE',  ( 0.000000000000000000, 0.000000000000000000, -1.000000000000000000 ) ) ;
#144 = DIRECTION ( 'NONE',  ( 0.000000000000000000, -1.000000000000000000, 0.000000000000000000 ) ) ;
#145 = PRODUCT_DEFINITION_FORMATION_WITH_SPECIFIED_SOURCE ( 'ANY', '', #106, .NOT_KNOWN. ) ;
#146 = EDGE_CURVE ( 'NONE', #98, #120, #40, .T. ) ;
#147 = ORIENTED_EDGE ( 'NONE', *, *, #159, .T. ) ;
#148 = ORIENTED_EDGE ( 'NONE', *, *, #133, .F. ) ;
#149 = ORIENTED_EDGE ( 'NONE', *, *, #118, .T. ) ;
#150 = EDGE_LOOP ( 'NONE', ( #67, #14, #21, #105 ) ) ;
#151 = DIRECTION ( 'NONE',  ( -0.000000000000000000, -0.000000000000000000, 1.000000000000000000 ) ) ;
#152 = EDGE_CURVE ( 'NONE', #72, #120, #153, .T. ) ;
#153 = LINE ( 'NONE', #64, #66 ) ;
#154 = FACE_OUTER_BOUND ( 'NONE', #150, .T. ) ;
#155 = CARTESIAN_POINT ( 'NONE',  ( 42.71732711739149835, 1.000000000000000000, -6.779747014388830095 ) ) ;
#156 = DIRECTION ( 'NONE',  ( -0.000000000000000000, 1.000000000000000000, -0.000000000000000000 ) ) ;
#157 = ADVANCED_FACE ( 'NONE', ( #46 ), #169, .F. ) ;
#158 = DIRECTION ( 'NONE',  ( -0.000000000000000000, -1.000000000000000000, 0.000000000000000000 ) ) ;
#159 = EDGE_CURVE ( 'NONE', #9, #179, #47, .T. ) ;
#160 = ORIENTED_EDGE ( 'NONE', *, *, #146, .F. ) ;
#161 = CARTESIAN_POINT ( 'NONE',  ( 0.000000000000000000, 1.000000000000000000, -43.25199423880181371 ) ) ;
#162 = ORIENTED_EDGE ( 'NONE', *, *, #102, .T. ) ;
#163 = VECTOR ( 'NONE', #151, 1000.000000000000000 ) ;
#164 = UNCERTAINTY_MEASURE_WITH_UNIT (LENGTH_MEASURE( 1.000000000000000082E-05 ), #54, 'distance_accuracy_value', 'NONE');
#165 = EDGE_LOOP ( 'NONE', ( #25, #55, #13, #139 ) ) ;
#166 = DIRECTION ( 'NONE',  ( -0.000000000000000000, -1.000000000000000000, -0.000000000000000000 ) ) ;
#167 = DIRECTION ( 'NONE',  ( -0.9876467176382077717, 0.000000000000000000, 0.1566970361508930598 ) ) ;
#168 = AXIS2_PLACEMENT_3D ( 'NONE', #32, #50, #167 ) ;
#169 = CYLINDRICAL_SURFACE ( 'NONE', #49, 43.25199423880181371 ) ;
#170 = LINE ( 'NONE', #31, #128 ) ;
#171 = APPLICATION_CONTEXT ( 'automotive_design' ) ;
#172 = DIRECTION ( 'NONE',  ( 0.000000000000000000, 0.000000000000000000, -1.000000000000000000 ) ) ;
#173 = EDGE_LOOP ( 'NONE', ( #147, #56, #136, #85 ) ) ;
#174 = UNCERTAINTY_MEASURE_WITH_UNIT (LENGTH_MEASURE( 1.000000000000000082E-05 ), #130, 'distance_accuracy_value', 'NONE');
#175 = ORIENTED_EDGE ( 'NONE', *, *, #76, .F. ) ;
#176 = VERTEX_POINT ( 'NONE', #79 ) ;
#177 = EDGE_CURVE ( 'NONE', #72, #179, #112, .T. ) ;
#178 =( GEOMETRIC_REPRESENTATION_CONTEXT ( 3 ) GLOBAL_UNCERTAINTY_ASSIGNED_CONTEXT ( ( #164 ) ) GLOBAL_UNIT_ASSIGNED_CONTEXT ( ( #54, #36, #68 ) ) REPRESENTATION_CONTEXT ( 'NONE', 'WORKASPACE' ) );
#179 = VERTEX_POINT ( 'NONE', #92 ) ;
#180 = SURFACE_STYLE_FILL_AREA ( #123 ) ;
#181 = ADVANCED_FACE ( 'NONE', ( #154 ), #17, .F. ) ;
#182 = DIRECTION ( 'NONE',  ( 0.000000000000000000, -0.000000000000000000, -1.000000000000000000 ) ) ;
#183 = AXIS2_PLACEMENT_3D ( 'NONE', #80, #144, #62 ) ;
#184 = DIRECTION ( 'NONE',  ( 0.000000000000000000, 0.000000000000000000, -1.000000000000000000 ) ) ;
#185 = CARTESIAN_POINT ( 'NONE',  ( 0.000000000000000000, 1.000000000000000000, -53.51503531673573377 ) ) ;
#186 = CARTESIAN_POINT ( 'NONE',  ( 42.71732711739149835, 0.000000000000000000, -6.779747014388830095 ) ) ;
#187 = PRODUCT_CONTEXT ( 'NONE', #171, 'mechanical' ) ;
#188 = LINE ( 'NONE', #161, #163 ) ;
#189 = ORIENTED_EDGE ( 'NONE', *, *, #2, .F. ) ;
#190 = ORIENTED_EDGE ( 'NONE', *, *, #113, .F. ) ;
#191 = LINE ( 'NONE', #1, #34 ) ;
ENDSEC;
END-ISO-10303-21;
