ISO-10303-21;
HEADER;
FILE_DESCRIPTION (( 'STEP AP214' ),
    '1' );
FILE_NAME ('wheel_nopulley.STEP',
    '2025-03-18T18:55:47',
    ( '' ),
    ( '' ),
    'SwSTEP 2.0',
    'SolidWorks 2024',
    '' );
FILE_SCHEMA (( 'AUTOMOTIVE_DESIGN' ));
ENDSEC;

DATA;
#1 = ADVANCED_FACE ( 'NONE', ( #268 ), #2, .T. ) ;
#2 = CYLINDRICAL_SURFACE ( 'NONE', #224, 11.50000000000000000 ) ;
#3 = CARTESIAN_POINT ( 'NONE',  ( 0.000000000000000000, 0.000000000000000000, 13.00000000000000178 ) ) ;
#4 = VERTEX_POINT ( 'NONE', #220 ) ;
#5 = VERTEX_POINT ( 'NONE', #112 ) ;
#6 = DIRECTION ( 'NONE',  ( 1.000000000000000000, 0.000000000000000000, 0.000000000000000000 ) ) ;
#7 = VERTEX_POINT ( 'NONE', #87 ) ;
#8 = DIRECTION ( 'NONE',  ( 0.000000000000000000, 0.000000000000000000, 1.000000000000000000 ) ) ;
#9 = DIRECTION ( 'NONE',  ( 0.000000000000000000, 0.000000000000000000, 1.000000000000000000 ) ) ;
#10 = CARTESIAN_POINT ( 'NONE',  ( 0.000000000000000000, 0.000000000000000000, 3.000000000000000000 ) ) ;
#11 = COLOUR_RGB ( '',0.7921568627450980005, 0.8196078431372548767, 0.9333333333333333481 ) ;
#12 = CIRCLE ( 'NONE', #279, 6.320508075688764826 ) ;
#13 = DIRECTION ( 'NONE',  ( 0.2588190451025213501, 0.000000000000000000, -0.9659258262890680902 ) ) ;
#14 = CONICAL_SURFACE ( 'NONE', #83, 9.000000000000000000, 0.2617993877991500740 ) ;
#15 =( LENGTH_UNIT ( ) NAMED_UNIT ( * ) SI_UNIT ( .MILLI., .METRE. ) );
#16 = EDGE_CURVE ( 'NONE', #152, #204, #60, .T. ) ;
#17 = EDGE_LOOP ( 'NONE', ( #65, #89 ) ) ;
#18 = CARTESIAN_POINT ( 'NONE',  ( -9.000000000000000000, -1.102182119232617714E-15, 3.000000000000000000 ) ) ;
#19 = VERTEX_POINT ( 'NONE', #183 ) ;
#20 = PRODUCT_DEFINITION_FORMATION_WITH_SPECIFIED_SOURCE ( 'ANY', '', #169, .NOT_KNOWN. ) ;
#21 = UNCERTAINTY_MEASURE_WITH_UNIT (LENGTH_MEASURE( 1.000000000000000082E-05 ), #231, 'distance_accuracy_value', 'NONE');
#22 = ADVANCED_FACE ( 'NONE', ( #67 ), #14, .T. ) ;
#23 = CARTESIAN_POINT ( 'NONE',  ( 0.000000000000000000, 0.000000000000000000, 3.000000000000000000 ) ) ;
#24 = AXIS2_PLACEMENT_3D ( 'NONE', #259, #130, #211 ) ;
#25 = CARTESIAN_POINT ( 'NONE',  ( 0.000000000000000000, 0.000000000000000000, 3.000000000000000000 ) ) ;
#26 = DIRECTION ( 'NONE',  ( 0.000000000000000000, 0.000000000000000000, 1.000000000000000000 ) ) ;
#27 = ORIENTED_EDGE ( 'NONE', *, *, #51, .F. ) ;
#28 = DIRECTION ( 'NONE',  ( -0.000000000000000000, -0.000000000000000000, -1.000000000000000000 ) ) ;
#29 = EDGE_LOOP ( 'NONE', ( #78, #59 ) ) ;
#30 = DIRECTION ( 'NONE',  ( 1.000000000000000000, 0.000000000000000000, -0.000000000000000000 ) ) ;
#31 = FACE_OUTER_BOUND ( 'NONE', #264, .T. ) ;
#32 = AXIS2_PLACEMENT_3D ( 'NONE', #251, #228, #30 ) ;
#33 =( NAMED_UNIT ( * ) SI_UNIT ( $, .STERADIAN. ) SOLID_ANGLE_UNIT ( ) );
#34 = ADVANCED_FACE ( 'NONE', ( #133, #161 ), #156, .F. ) ;
#35 = VECTOR ( 'NONE', #247, 1000.000000000000000 ) ;
#36 = ORIENTED_EDGE ( 'NONE', *, *, #110, .T. ) ;
#37 = DIRECTION ( 'NONE',  ( 1.000000000000000000, 0.000000000000000000, 0.000000000000000000 ) ) ;
#38 = ORIENTED_EDGE ( 'NONE', *, *, #258, .F. ) ;
#39 = CARTESIAN_POINT ( 'NONE',  ( 6.320508075688764826, 0.000000000000000000, 13.00000000000000178 ) ) ;
#40 = EDGE_LOOP ( 'NONE', ( #197, #116 ) ) ;
#41 = ORIENTED_EDGE ( 'NONE', *, *, #74, .F. ) ;
#42 = CIRCLE ( 'NONE', #238, 2.049999999999999822 ) ;
#43 = DIRECTION ( 'NONE',  ( 0.000000000000000000, 0.000000000000000000, 1.000000000000000000 ) ) ;
#44 = VERTEX_POINT ( 'NONE', #39 ) ;
#45 = DIRECTION ( 'NONE',  ( 1.000000000000000000, 0.000000000000000000, 0.000000000000000000 ) ) ;
#46 = CARTESIAN_POINT ( 'NONE',  ( -11.50000000000000000, 0.000000000000000000, 3.000000000000000000 ) ) ;
#47 = EDGE_LOOP ( 'NONE', ( #150, #223 ) ) ;
#48 = APPLICATION_PROTOCOL_DEFINITION ( 'draft international standard', 'automotive_design', 1998, #108 ) ;
#49 = DIRECTION ( 'NONE',  ( -0.000000000000000000, -0.000000000000000000, 1.000000000000000000 ) ) ;
#50 = LINE ( 'NONE', #249, #189 ) ;
#51 = EDGE_CURVE ( 'NONE', #126, #92, #58, .T. ) ;
#52 =( GEOMETRIC_REPRESENTATION_CONTEXT ( 3 ) GLOBAL_UNCERTAINTY_ASSIGNED_CONTEXT ( ( #172 ) ) GLOBAL_UNIT_ASSIGNED_CONTEXT ( ( #15, #54, #33 ) ) REPRESENTATION_CONTEXT ( 'NONE', 'WORKASPACE' ) );
#53 = EDGE_CURVE ( 'NONE', #5, #275, #185, .T. ) ;
#54 =( NAMED_UNIT ( * ) PLANE_ANGLE_UNIT ( ) SI_UNIT ( $, .RADIAN. ) );
#55 = FACE_OUTER_BOUND ( 'NONE', #160, .T. ) ;
#56 = DIRECTION ( 'NONE',  ( -0.000000000000000000, -0.000000000000000000, -1.000000000000000000 ) ) ;
#57 = ORIENTED_EDGE ( 'NONE', *, *, #200, .F. ) ;
#58 = LINE ( 'NONE', #18, #201 ) ;
#59 = ORIENTED_EDGE ( 'NONE', *, *, #252, .T. ) ;
#60 = CIRCLE ( 'NONE', #99, 11.50000000000000000 ) ;
#61 = EDGE_CURVE ( 'NONE', #106, #92, #66, .T. ) ;
#62 = AXIS2_PLACEMENT_3D ( 'NONE', #82, #261, #278 ) ;
#63 = CIRCLE ( 'NONE', #219, 6.320508075688764826 ) ;
#64 = ORIENTED_EDGE ( 'NONE', *, *, #61, .F. ) ;
#65 = ORIENTED_EDGE ( 'NONE', *, *, #16, .F. ) ;
#66 = CIRCLE ( 'NONE', #159, 9.000000000000000000 ) ;
#67 = FACE_OUTER_BOUND ( 'NONE', #222, .T. ) ;
#68 = DIRECTION ( 'NONE',  ( 1.000000000000000000, 0.000000000000000000, 0.000000000000000000 ) ) ;
#69 = CARTESIAN_POINT ( 'NONE',  ( 0.000000000000000000, 0.000000000000000000, 13.00000000000000178 ) ) ;
#70 = CARTESIAN_POINT ( 'NONE',  ( -6.320508075688764826, -9.381105588101710271E-16, 13.00000000000000178 ) ) ;
#71 = ADVANCED_FACE ( 'NONE', ( #199 ), #153, .T. ) ;
#72 = AXIS2_PLACEMENT_3D ( 'NONE', #175, #56, #173 ) ;
#73 = CARTESIAN_POINT ( 'NONE',  ( -11.50000000000000000, 0.000000000000000000, 0.000000000000000000 ) ) ;
#74 = EDGE_CURVE ( 'NONE', #4, #7, #253, .T. ) ;
#75 = DIRECTION ( 'NONE',  ( 0.000000000000000000, 0.000000000000000000, 1.000000000000000000 ) ) ;
#76 = DIRECTION ( 'NONE',  ( 1.000000000000000000, 0.000000000000000000, 0.000000000000000000 ) ) ;
#77 =( GEOMETRIC_REPRESENTATION_CONTEXT ( 3 ) GLOBAL_UNCERTAINTY_ASSIGNED_CONTEXT ( ( #21 ) ) GLOBAL_UNIT_ASSIGNED_CONTEXT ( ( #231, #142, #244 ) ) REPRESENTATION_CONTEXT ( 'NONE', 'WORKASPACE' ) );
#78 = ORIENTED_EDGE ( 'NONE', *, *, #84, .T. ) ;
#79 = CARTESIAN_POINT ( 'NONE',  ( -9.000000000000000000, -1.102182119232617714E-15, 3.000000000000000000 ) ) ;
#80 = VERTEX_POINT ( 'NONE', #151 ) ;
#81 = CIRCLE ( 'NONE', #129, 2.049999999999999822 ) ;
#82 = CARTESIAN_POINT ( 'NONE',  ( 0.000000000000000000, 0.000000000000000000, 13.00000000000000178 ) ) ;
#83 = AXIS2_PLACEMENT_3D ( 'NONE', #135, #28, #205 ) ;
#84 = EDGE_CURVE ( 'NONE', #19, #80, #81, .T. ) ;
#85 = ORIENTED_EDGE ( 'NONE', *, *, #202, .T. ) ;
#86 = AXIS2_PLACEMENT_3D ( 'NONE', #10, #181, #208 ) ;
#87 = CARTESIAN_POINT ( 'NONE',  ( -11.50000000000000000, 0.000000000000000000, 3.000000000000000000 ) ) ;
#88 = DIRECTION ( 'NONE',  ( 1.000000000000000000, 0.000000000000000000, 0.000000000000000000 ) ) ;
#89 = ORIENTED_EDGE ( 'NONE', *, *, #202, .F. ) ;
#90 = DIRECTION ( 'NONE',  ( -1.000000000000000000, 0.000000000000000000, 0.000000000000000000 ) ) ;
#91 = LINE ( 'NONE', #46, #35 ) ;
#92 = VERTEX_POINT ( 'NONE', #79 ) ;
#93 = PRODUCT_CONTEXT ( 'NONE', #108, 'mechanical' ) ;
#94 = CARTESIAN_POINT ( 'NONE',  ( 0.000000000000000000, 0.000000000000000000, 3.000000000000000000 ) ) ;
#95 = APPLICATION_PROTOCOL_DEFINITION ( 'draft international standard', 'automotive_design', 1998, #271 ) ;
#96 = ADVANCED_FACE ( 'NONE', ( #196 ), #236, .F. ) ;
#97 = CIRCLE ( 'NONE', #145, 2.049999999999999822 ) ;
#98 = DIRECTION ( 'NONE',  ( 1.000000000000000000, 0.000000000000000000, 0.000000000000000000 ) ) ;
#99 = AXIS2_PLACEMENT_3D ( 'NONE', #179, #241, #45 ) ;
#100 = CARTESIAN_POINT ( 'NONE',  ( 0.000000000000000000, 0.000000000000000000, 3.000000000000000000 ) ) ;
#101 = DIRECTION ( 'NONE',  ( 1.000000000000000000, 0.000000000000000000, 0.000000000000000000 ) ) ;
#102 = EDGE_LOOP ( 'NONE', ( #240, #243, #214, #171 ) ) ;
#103 = EDGE_CURVE ( 'NONE', #44, #126, #12, .T. ) ;
#104 = CIRCLE ( 'NONE', #233, 11.50000000000000000 ) ;
#105 = DIRECTION ( 'NONE',  ( 0.000000000000000000, 0.000000000000000000, 1.000000000000000000 ) ) ;
#106 = VERTEX_POINT ( 'NONE', #164 ) ;
#107 = CIRCLE ( 'NONE', #177, 11.50000000000000000 ) ;
#108 = APPLICATION_CONTEXT ( 'automotive_design' ) ;
#109 = DIRECTION ( 'NONE',  ( 1.000000000000000000, 0.000000000000000000, 0.000000000000000000 ) ) ;
#110 = EDGE_CURVE ( 'NONE', #44, #106, #246, .T. ) ;
#111 = AXIS2_PLACEMENT_3D ( 'NONE', #139, #8, #184 ) ;
#112 = CARTESIAN_POINT ( 'NONE',  ( 2.049999999999999822, 0.000000000000000000, 13.00000000000000178 ) ) ;
#113 = DIRECTION ( 'NONE',  ( 0.000000000000000000, 0.000000000000000000, 1.000000000000000000 ) ) ;
#114 = CLOSED_SHELL ( 'NONE', ( #96, #71, #1, #148, #229, #34, #22, #166, #213 ) ) ;
#115 = ORIENTED_EDGE ( 'NONE', *, *, #258, .T. ) ;
#116 = ORIENTED_EDGE ( 'NONE', *, *, #74, .T. ) ;
#117 = CARTESIAN_POINT ( 'NONE',  ( 0.000000000000000000, 0.000000000000000000, 3.000000000000000000 ) ) ;
#118 = ORIENTED_EDGE ( 'NONE', *, *, #248, .T. ) ;
#119 = LINE ( 'NONE', #225, #154 ) ;
#120 = CARTESIAN_POINT ( 'NONE',  ( 0.000000000000000000, 0.000000000000000000, 13.00000000000000178 ) ) ;
#121 = PLANE ( 'NONE',  #32 ) ;
#122 = FACE_BOUND ( 'NONE', #134, .T. ) ;
#123 = SURFACE_SIDE_STYLE ('',( #254 ) ) ;
#124 = AXIS2_PLACEMENT_3D ( 'NONE', #250, #144, #242 ) ;
#125 = PRESENTATION_STYLE_ASSIGNMENT (( #146 ) ) ;
#126 = VERTEX_POINT ( 'NONE', #70 ) ;
#127 = CARTESIAN_POINT ( 'NONE',  ( 0.000000000000000000, 0.000000000000000000, 0.000000000000000000 ) ) ;
#128 = ORIENTED_EDGE ( 'NONE', *, *, #16, .T. ) ;
#129 = AXIS2_PLACEMENT_3D ( 'NONE', #127, #105, #276 ) ;
#130 = DIRECTION ( 'NONE',  ( -0.000000000000000000, -0.000000000000000000, 1.000000000000000000 ) ) ;
#131 = PRODUCT_RELATED_PRODUCT_CATEGORY ( 'part', '', ( #169 ) ) ;
#132 = AXIS2_PLACEMENT_3D ( 'NONE', #149, #234, #37 ) ;
#133 = FACE_BOUND ( 'NONE', #29, .T. ) ;
#134 = EDGE_LOOP ( 'NONE', ( #64, #178 ) ) ;
#135 = CARTESIAN_POINT ( 'NONE',  ( 0.000000000000000000, 0.000000000000000000, 3.000000000000000000 ) ) ;
#136 = CARTESIAN_POINT ( 'NONE',  ( -2.049999999999999822, 2.510525938252073693E-16, 13.00000000000000178 ) ) ;
#137 = AXIS2_PLACEMENT_3D ( 'NONE', #239, #43, #215 ) ;
#138 = EDGE_LOOP ( 'NONE', ( #157, #57, #115, #128 ) ) ;
#139 = CARTESIAN_POINT ( 'NONE',  ( 0.000000000000000000, 0.000000000000000000, 0.000000000000000000 ) ) ;
#140 = EDGE_CURVE ( 'NONE', #19, #5, #272, .T. ) ;
#141 = CARTESIAN_POINT ( 'NONE',  ( 2.049999999999999822, 0.000000000000000000, 0.000000000000000000 ) ) ;
#142 =( NAMED_UNIT ( * ) PLANE_ANGLE_UNIT ( ) SI_UNIT ( $, .RADIAN. ) );
#143 = CARTESIAN_POINT ( 'NONE',  ( 9.000000000000000000, 0.000000000000000000, 3.000000000000000000 ) ) ;
#144 = DIRECTION ( 'NONE',  ( -0.000000000000000000, -0.000000000000000000, 1.000000000000000000 ) ) ;
#145 = AXIS2_PLACEMENT_3D ( 'NONE', #269, #227, #6 ) ;
#146 = SURFACE_STYLE_USAGE ( .BOTH. , #123 ) ;
#147 = VECTOR ( 'NONE', #49, 1000.000000000000000 ) ;
#148 = ADVANCED_FACE ( 'NONE', ( #209 ), #191, .T. ) ;
#149 = CARTESIAN_POINT ( 'NONE',  ( 0.000000000000000000, 0.000000000000000000, 3.000000000000000000 ) ) ;
#150 = ORIENTED_EDGE ( 'NONE', *, *, #53, .F. ) ;
#151 = CARTESIAN_POINT ( 'NONE',  ( -2.049999999999999822, 2.510525938252073693E-16, 0.000000000000000000 ) ) ;
#152 = VERTEX_POINT ( 'NONE', #73 ) ;
#153 = CONICAL_SURFACE ( 'NONE', #72, 9.000000000000000000, 0.2617993877991500740 ) ;
#154 = VECTOR ( 'NONE', #221, 1000.000000000000000 ) ;
#155 = EDGE_CURVE ( 'NONE', #80, #275, #50, .T. ) ;
#156 = PLANE ( 'NONE',  #137 ) ;
#157 = ORIENTED_EDGE ( 'NONE', *, *, #248, .F. ) ;
#158 = ORIENTED_EDGE ( 'NONE', *, *, #61, .T. ) ;
#159 = AXIS2_PLACEMENT_3D ( 'NONE', #23, #256, #109 ) ;
#160 = EDGE_LOOP ( 'NONE', ( #182, #257, #226, #174 ) ) ;
#161 = FACE_OUTER_BOUND ( 'NONE', #17, .T. ) ;
#162 = STYLED_ITEM ( 'NONE', ( #125 ), #194 ) ;
#163 = DIRECTION ( 'NONE',  ( 0.000000000000000000, 0.000000000000000000, 1.000000000000000000 ) ) ;
#164 = CARTESIAN_POINT ( 'NONE',  ( 9.000000000000000000, 0.000000000000000000, 3.000000000000000000 ) ) ;
#165 = FACE_BOUND ( 'NONE', #47, .T. ) ;
#166 = ADVANCED_FACE ( 'NONE', ( #165, #31 ), #121, .T. ) ;
#167 = FILL_AREA_STYLE ('',( #274 ) ) ;
#168 = DIRECTION ( 'NONE',  ( 0.000000000000000000, 0.000000000000000000, 1.000000000000000000 ) ) ;
#169 = PRODUCT ( 'wheel_nopulley', 'wheel_nopulley', '', ( #93 ) ) ;
#170 = CIRCLE ( 'NONE', #86, 9.000000000000000000 ) ;
#171 = ORIENTED_EDGE ( 'NONE', *, *, #140, .F. ) ;
#172 = UNCERTAINTY_MEASURE_WITH_UNIT (LENGTH_MEASURE( 1.000000000000000082E-05 ), #15, 'distance_accuracy_value', 'NONE');
#173 = DIRECTION ( 'NONE',  ( 1.000000000000000000, 0.000000000000000000, 0.000000000000000000 ) ) ;
#174 = ORIENTED_EDGE ( 'NONE', *, *, #53, .T. ) ;
#175 = CARTESIAN_POINT ( 'NONE',  ( 0.000000000000000000, 0.000000000000000000, 3.000000000000000000 ) ) ;
#176 = PRODUCT_DEFINITION_SHAPE ( 'NONE', 'NONE',  #270 ) ;
#177 = AXIS2_PLACEMENT_3D ( 'NONE', #100, #75, #76 ) ;
#178 = ORIENTED_EDGE ( 'NONE', *, *, #217, .F. ) ;
#179 = CARTESIAN_POINT ( 'NONE',  ( 0.000000000000000000, 0.000000000000000000, 0.000000000000000000 ) ) ;
#180 = PRESENTATION_LAYER_ASSIGNMENT (  '', '', ( #162 ) ) ;
#181 = DIRECTION ( 'NONE',  ( 0.000000000000000000, 0.000000000000000000, 1.000000000000000000 ) ) ;
#182 = ORIENTED_EDGE ( 'NONE', *, *, #155, .F. ) ;
#183 = CARTESIAN_POINT ( 'NONE',  ( 2.049999999999999822, 0.000000000000000000, 0.000000000000000000 ) ) ;
#184 = DIRECTION ( 'NONE',  ( 1.000000000000000000, 0.000000000000000000, 0.000000000000000000 ) ) ;
#185 = CIRCLE ( 'NONE', #62, 2.049999999999999822 ) ;
#186 = PLANE ( 'NONE',  #263 ) ;
#187 = ADVANCED_BREP_SHAPE_REPRESENTATION ( 'wheel_nopulley', ( #194, #111 ), #77 ) ;
#188 = DIRECTION ( 'NONE',  ( -0.000000000000000000, -0.000000000000000000, -1.000000000000000000 ) ) ;
#189 = VECTOR ( 'NONE', #273, 1000.000000000000000 ) ;
#190 = SHAPE_DEFINITION_REPRESENTATION ( #176, #187 ) ;
#191 = CYLINDRICAL_SURFACE ( 'NONE', #245, 11.50000000000000000 ) ;
#192 = CYLINDRICAL_SURFACE ( 'NONE', #124, 2.049999999999999822 ) ;
#193 = CARTESIAN_POINT ( 'NONE',  ( 11.50000000000000000, 1.408343819019456176E-15, 0.000000000000000000 ) ) ;
#194 = MANIFOLD_SOLID_BREP ( 'Cut-Extrude1', #114 ) ;
#195 = EDGE_LOOP ( 'NONE', ( #277, #267, #235, #237 ) ) ;
#196 = FACE_OUTER_BOUND ( 'NONE', #102, .T. ) ;
#197 = ORIENTED_EDGE ( 'NONE', *, *, #200, .T. ) ;
#198 = PRODUCT_DEFINITION_CONTEXT ( 'detailed design', #271, 'design' ) ;
#199 = FACE_OUTER_BOUND ( 'NONE', #195, .T. ) ;
#200 = EDGE_CURVE ( 'NONE', #7, #4, #107, .T. ) ;
#201 = VECTOR ( 'NONE', #218, 1000.000000000000000 ) ;
#202 = EDGE_CURVE ( 'NONE', #204, #152, #104, .T. ) ;
#203 = DIRECTION ( 'NONE',  ( -0.000000000000000000, -0.000000000000000000, -1.000000000000000000 ) ) ;
#204 = VERTEX_POINT ( 'NONE', #193 ) ;
#205 = DIRECTION ( 'NONE',  ( 1.000000000000000000, 0.000000000000000000, 0.000000000000000000 ) ) ;
#206 = FACE_OUTER_BOUND ( 'NONE', #40, .T. ) ;
#207 = ORIENTED_EDGE ( 'NONE', *, *, #265, .T. ) ;
#208 = DIRECTION ( 'NONE',  ( 1.000000000000000000, 0.000000000000000000, 0.000000000000000000 ) ) ;
#209 = FACE_OUTER_BOUND ( 'NONE', #138, .T. ) ;
#210 = VECTOR ( 'NONE', #13, 1000.000000000000000 ) ;
#211 = DIRECTION ( 'NONE',  ( 1.000000000000000000, 0.000000000000000000, 0.000000000000000000 ) ) ;
#212 = DIRECTION ( 'NONE',  ( 1.000000000000000000, 0.000000000000000000, -0.000000000000000000 ) ) ;
#213 = ADVANCED_FACE ( 'NONE', ( #55 ), #192, .F. ) ;
#214 = ORIENTED_EDGE ( 'NONE', *, *, #262, .T. ) ;
#215 = DIRECTION ( 'NONE',  ( 1.000000000000000000, 0.000000000000000000, -0.000000000000000000 ) ) ;
#216 = ORIENTED_EDGE ( 'NONE', *, *, #103, .T. ) ;
#217 = EDGE_CURVE ( 'NONE', #92, #106, #170, .T. ) ;
#218 = DIRECTION ( 'NONE',  ( -0.2588190451025213501, -3.169619151431772337E-17, -0.9659258262890680902 ) ) ;
#219 = AXIS2_PLACEMENT_3D ( 'NONE', #3, #26, #88 ) ;
#220 = CARTESIAN_POINT ( 'NONE',  ( 11.50000000000000000, 1.408343819019456176E-15, 3.000000000000000000 ) ) ;
#221 = DIRECTION ( 'NONE',  ( -0.000000000000000000, -0.000000000000000000, -1.000000000000000000 ) ) ;
#222 = EDGE_LOOP ( 'NONE', ( #27, #260, #36, #158 ) ) ;
#223 = ORIENTED_EDGE ( 'NONE', *, *, #262, .F. ) ;
#224 = AXIS2_PLACEMENT_3D ( 'NONE', #25, #203, #90 ) ;
#225 = CARTESIAN_POINT ( 'NONE',  ( 11.50000000000000000, 1.408343819019456176E-15, 3.000000000000000000 ) ) ;
#226 = ORIENTED_EDGE ( 'NONE', *, *, #140, .T. ) ;
#227 = DIRECTION ( 'NONE',  ( 0.000000000000000000, 0.000000000000000000, 1.000000000000000000 ) ) ;
#228 = DIRECTION ( 'NONE',  ( 0.000000000000000000, 0.000000000000000000, 1.000000000000000000 ) ) ;
#229 = ADVANCED_FACE ( 'NONE', ( #122, #206 ), #186, .T. ) ;
#230 = DIRECTION ( 'NONE',  ( -1.000000000000000000, 0.000000000000000000, 0.000000000000000000 ) ) ;
#231 =( LENGTH_UNIT ( ) NAMED_UNIT ( * ) SI_UNIT ( .MILLI., .METRE. ) );
#232 = MECHANICAL_DESIGN_GEOMETRIC_PRESENTATION_REPRESENTATION (  '', ( #162 ), #52 ) ;
#233 = AXIS2_PLACEMENT_3D ( 'NONE', #255, #168, #101 ) ;
#234 = DIRECTION ( 'NONE',  ( 0.000000000000000000, 0.000000000000000000, 1.000000000000000000 ) ) ;
#235 = ORIENTED_EDGE ( 'NONE', *, *, #217, .T. ) ;
#236 = CYLINDRICAL_SURFACE ( 'NONE', #24, 2.049999999999999822 ) ;
#237 = ORIENTED_EDGE ( 'NONE', *, *, #110, .F. ) ;
#238 = AXIS2_PLACEMENT_3D ( 'NONE', #69, #163, #68 ) ;
#239 = CARTESIAN_POINT ( 'NONE',  ( 0.000000000000000000, 0.000000000000000000, 0.000000000000000000 ) ) ;
#240 = ORIENTED_EDGE ( 'NONE', *, *, #252, .F. ) ;
#241 = DIRECTION ( 'NONE',  ( 0.000000000000000000, 0.000000000000000000, 1.000000000000000000 ) ) ;
#242 = DIRECTION ( 'NONE',  ( 1.000000000000000000, 0.000000000000000000, 0.000000000000000000 ) ) ;
#243 = ORIENTED_EDGE ( 'NONE', *, *, #155, .T. ) ;
#244 =( NAMED_UNIT ( * ) SI_UNIT ( $, .STERADIAN. ) SOLID_ANGLE_UNIT ( ) );
#245 = AXIS2_PLACEMENT_3D ( 'NONE', #94, #188, #230 ) ;
#246 = LINE ( 'NONE', #143, #210 ) ;
#247 = DIRECTION ( 'NONE',  ( -0.000000000000000000, -0.000000000000000000, -1.000000000000000000 ) ) ;
#248 = EDGE_CURVE ( 'NONE', #4, #204, #119, .T. ) ;
#249 = CARTESIAN_POINT ( 'NONE',  ( -2.049999999999999822, 2.510525938252073693E-16, 0.000000000000000000 ) ) ;
#250 = CARTESIAN_POINT ( 'NONE',  ( 0.000000000000000000, 0.000000000000000000, 0.000000000000000000 ) ) ;
#251 = CARTESIAN_POINT ( 'NONE',  ( 0.000000000000000000, 0.000000000000000000, 13.00000000000000178 ) ) ;
#252 = EDGE_CURVE ( 'NONE', #80, #19, #97, .T. ) ;
#253 = CIRCLE ( 'NONE', #132, 11.50000000000000000 ) ;
#254 = SURFACE_STYLE_FILL_AREA ( #167 ) ;
#255 = CARTESIAN_POINT ( 'NONE',  ( 0.000000000000000000, 0.000000000000000000, 0.000000000000000000 ) ) ;
#256 = DIRECTION ( 'NONE',  ( 0.000000000000000000, 0.000000000000000000, 1.000000000000000000 ) ) ;
#257 = ORIENTED_EDGE ( 'NONE', *, *, #84, .F. ) ;
#258 = EDGE_CURVE ( 'NONE', #7, #152, #91, .T. ) ;
#259 = CARTESIAN_POINT ( 'NONE',  ( 0.000000000000000000, 0.000000000000000000, 0.000000000000000000 ) ) ;
#260 = ORIENTED_EDGE ( 'NONE', *, *, #103, .F. ) ;
#261 = DIRECTION ( 'NONE',  ( 0.000000000000000000, 0.000000000000000000, 1.000000000000000000 ) ) ;
#262 = EDGE_CURVE ( 'NONE', #275, #5, #42, .T. ) ;
#263 = AXIS2_PLACEMENT_3D ( 'NONE', #117, #113, #212 ) ;
#264 = EDGE_LOOP ( 'NONE', ( #216, #207 ) ) ;
#265 = EDGE_CURVE ( 'NONE', #126, #44, #63, .T. ) ;
#266 = EDGE_LOOP ( 'NONE', ( #41, #118, #85, #38 ) ) ;
#267 = ORIENTED_EDGE ( 'NONE', *, *, #51, .T. ) ;
#268 = FACE_OUTER_BOUND ( 'NONE', #266, .T. ) ;
#269 = CARTESIAN_POINT ( 'NONE',  ( 0.000000000000000000, 0.000000000000000000, 0.000000000000000000 ) ) ;
#270 = PRODUCT_DEFINITION ( 'UNKNOWN', '', #20, #198 ) ;
#271 = APPLICATION_CONTEXT ( 'automotive_design' ) ;
#272 = LINE ( 'NONE', #141, #147 ) ;
#273 = DIRECTION ( 'NONE',  ( -0.000000000000000000, -0.000000000000000000, 1.000000000000000000 ) ) ;
#274 = FILL_AREA_STYLE_COLOUR ( '', #11 ) ;
#275 = VERTEX_POINT ( 'NONE', #136 ) ;
#276 = DIRECTION ( 'NONE',  ( 1.000000000000000000, 0.000000000000000000, 0.000000000000000000 ) ) ;
#277 = ORIENTED_EDGE ( 'NONE', *, *, #265, .F. ) ;
#278 = DIRECTION ( 'NONE',  ( 1.000000000000000000, 0.000000000000000000, 0.000000000000000000 ) ) ;
#279 = AXIS2_PLACEMENT_3D ( 'NONE', #120, #9, #98 ) ;
ENDSEC;
END-ISO-10303-21;
