ISO-10303-21;
HEADER;
FILE_DESCRIPTION (( 'STEP AP214' ),
    '1' );
FILE_NAME ('project 2 wheels edited.STEP',
    '2025-03-27T06:04:40',
    ( '' ),
    ( '' ),
    'SwSTEP 2.0',
    'SolidWorks 2023',
    '' );
FILE_SCHEMA (( 'AUTOMOTIVE_DESIGN' ));
ENDSEC;

DATA;
#1 = CARTESIAN_POINT ( 'NONE',  ( 41.00000000000000711, -21.54553042861309109, 125.8386419148774280 ) ) ;
#2 = COLOUR_RGB ( '',0.7921568627450980005, 0.8196078431372548767, 0.9333333333333333481 ) ;
#3 = AXIS2_PLACEMENT_3D ( 'NONE', #859, #728, #642 ) ;
#4 = ORIENTED_EDGE ( 'NONE', *, *, #215, .F. ) ;
#5 = DIRECTION ( 'NONE',  ( -0.000000000000000000, -0.2666445879059222146, -0.9637949282604059142 ) ) ;
#6 = CARTESIAN_POINT ( 'NONE',  ( 34.00000000000000711, -40.58853136677721807, 135.1332606967178549 ) ) ;
#7 = CYLINDRICAL_SURFACE ( 'NONE', #375, 1.200000000000017497 ) ;
#8 = ORIENTED_EDGE ( 'NONE', *, *, #171, .T. ) ;
#9 = FACE_BOUND ( 'NONE', #723, .T. ) ;
#10 = ADVANCED_FACE ( 'NONE', ( #235 ), #725, .T. ) ;
#11 = PRODUCT_DEFINITION_CONTEXT ( 'detailed design', #165, 'design' ) ;
#12 = CARTESIAN_POINT ( 'NONE',  ( 41.00000000000001421, -37.98396913135103148, 137.1103957804667175 ) ) ;
#13 = CARTESIAN_POINT ( 'NONE',  ( 37.18522376143483399, -35.79041074545360601, 119.9888854228536417 ) ) ;
#14 = CARTESIAN_POINT ( 'NONE',  ( 41.00000000000000000, -33.28087481330206998, 138.5521536071588855 ) ) ;
#15 = ORIENTED_EDGE ( 'NONE', *, *, #821, .F. ) ;
#16 = VECTOR ( 'NONE', #684, 1000.000000000000000 ) ;
#17 = CARTESIAN_POINT ( 'NONE',  ( 37.81461688449607550, -33.53788219022793982, 119.3657205572824012 ) ) ;
#18 = EDGE_CURVE ( 'NONE', #489, #508, #651, .T. ) ;
#19 = ORIENTED_EDGE ( 'NONE', *, *, #457, .F. ) ;
#20 = CARTESIAN_POINT ( 'NONE',  ( 37.50000000000001421, -33.50639223918932430, 119.3619919721777336 ) ) ;
#21 = CYLINDRICAL_SURFACE ( 'NONE', #48, 17.99999999999999645 ) ;
#22 = ORIENTED_EDGE ( 'NONE', *, *, #618, .T. ) ;
#23 = CARTESIAN_POINT ( 'NONE',  ( 34.00000000000000000, -32.50000000000000000, 127.5000000000000000 ) ) ;
#24 = B_SPLINE_CURVE_WITH_KNOTS ( 'NONE', 3,
 ( #650, #159, #17, #862, #306, #581, #451, #94, #447, #243, #583, #515, #791, #168, #81, #367, #527, #799 ),
 .UNSPECIFIED., .F., .F.,
 ( 4, 2, 2, 2, 2, 2, 2, 2, 4 ),
 ( 0.000000000000000000, 0.0004695985345349672322, 0.0009391970690699344643, 0.001408795603604901751, 0.001878394138139868929, 0.002347992672674836107, 0.002817591207209803501, 0.003287189741744770462, 0.003756788276279737857 ),
 .UNSPECIFIED. ) ;
#25 = CARTESIAN_POINT ( 'NONE',  ( 38.10362658804732661, -40.05875042014140774, 130.6794554802411028 ) ) ;
#26 = CIRCLE ( 'NONE', #836, 11.06000000000000405 ) ;
#27 = EDGE_LOOP ( 'NONE', ( #665, #446 ) ) ;
#28 = CARTESIAN_POINT ( 'NONE',  ( 34.00000000000000000, -30.33146141141408592, 126.9000496772116833 ) ) ;
#29 = CONICAL_SURFACE ( 'NONE', #285, 12.49999999999999822, 0.2268928027592633789 ) ;
#30 = AXIS2_PLACEMENT_3D ( 'NONE', #202, #760, #430 ) ;
#31 = CARTESIAN_POINT ( 'NONE',  ( 34.00000000000001421, -22.60074687175747599, 132.5704042580526902 ) ) ;
#32 = EDGE_CURVE ( 'NONE', #633, #350, #854, .T. ) ;
#33 = EDGE_CURVE ( 'NONE', #832, #426, #331, .T. ) ;
#34 = CARTESIAN_POINT ( 'NONE',  ( 34.00000000000000000, -21.84042809343990399, 124.5509108577605133 ) ) ;
#35 = EDGE_LOOP ( 'NONE', ( #86, #879, #795, #127 ) ) ;
#36 = LINE ( 'NONE', #323, #79 ) ;
#37 = DIRECTION ( 'NONE',  ( 0.000000000000000000, -0.2666445879059221591, -0.9637949282604059142 ) ) ;
#38 = MANIFOLD_SOLID_BREP ( 'Cut-Extrude1', #404 ) ;
#39 = CARTESIAN_POINT ( 'NONE',  ( 38.69989483223132254, -40.36059659641545494, 129.8401242896857184 ) ) ;
#40 = ORIENTED_EDGE ( 'NONE', *, *, #804, .F. ) ;
#41 = CARTESIAN_POINT ( 'NONE',  ( 41.00000000000002132, -28.36301926929084161, 117.2253751528019734 ) ) ;
#42 = B_SPLINE_CURVE_WITH_KNOTS ( 'NONE', 3,
 ( #540, #338, #871, #675, #46, #731, #118, #178, #459, #391, #608, #406, #386, #319, #812, #592, #104, #866 ),
 .UNSPECIFIED., .F., .F.,
 ( 4, 2, 2, 2, 2, 2, 2, 2, 4 ),
 ( 0.000000000000000000, 0.0004695985345353412819, 0.0009391970690706825638, 0.001408795603606023900, 0.001878394138141365128, 0.002347992672676706572, 0.002817591207212047800, 0.003287189741747389028, 0.003756788276282730255 ),
 .UNSPECIFIED. ) ;
#43 = CARTESIAN_POINT ( 'NONE',  ( 19.00000000000000355, -32.50000000000000000, 127.5000000000000000 ) ) ;
#44 = CARTESIAN_POINT ( 'NONE',  ( 38.45951030659407621, -40.56845024181846782, 128.9671287127891048 ) ) ;
#45 = EDGE_LOOP ( 'NONE', ( #332, #312 ) ) ;
#46 = CARTESIAN_POINT ( 'NONE',  ( 36.76182397291488257, -40.60531655196356127, 128.7474782388026711 ) ) ;
#47 = CARTESIAN_POINT ( 'NONE',  ( 41.00000000000000711, -32.50000000000000000, 127.5000000000000000 ) ) ;
#48 = AXIS2_PLACEMENT_3D ( 'NONE', #449, #111, #668 ) ;
#49 = VECTOR ( 'NONE', #5, 1000.000000000000000 ) ;
#50 = ADVANCED_FACE ( 'NONE', ( #582 ), #7, .F. ) ;
#51 = CARTESIAN_POINT ( 'NONE',  ( 41.00000000000000711, -41.96000609955368787, 133.2299115156848188 ) ) ;
#52 = ORIENTED_EDGE ( 'NONE', *, *, #821, .T. ) ;
#53 = EDGE_CURVE ( 'NONE', #390, #755, #789, .T. ) ;
#54 = CARTESIAN_POINT ( 'NONE',  ( 41.00000000000000711, -23.66851177763022207, 120.8154189125173019 ) ) ;
#55 = CARTESIAN_POINT ( 'NONE',  ( 37.50000000000001421, -34.49473671952306120, 120.2899635632136750 ) ) ;
#56 = CARTESIAN_POINT ( 'NONE',  ( 0.000000000000000000, 27.61705950017886835, 99.82269690442585386 ) ) ;
#57 = ORIENTED_EDGE ( 'NONE', *, *, #182, .T. ) ;
#58 = DIRECTION ( 'NONE',  ( 0.000000000000000000, -0.9637949282604064694, 0.2666445879059202717 ) ) ;
#59 = CARTESIAN_POINT ( 'NONE',  ( 34.00000000000000000, -25.29902241434429300, 119.1053873340764397 ) ) ;
#60 = EDGE_LOOP ( 'NONE', ( #267, #462, #548, #855 ) ) ;
#61 =( BOUNDED_SURFACE ( )  B_SPLINE_SURFACE ( 3, 1, ( 
 ( #897, #818 ),
 ( #614, #488 ),
 ( #765, #133 ),
 ( #695, #824 ),
 ( #70, #188 ),
 ( #902, #199 ),
 ( #280, #469 ) ),
 .UNSPECIFIED., .T., .F., .F. ) 
 B_SPLINE_SURFACE_WITH_KNOTS ( ( 4, 3, 4 ),
 ( 2, 2 ),
 ( 0.000000000000000000, 0.5000000000000000000, 1.000000000000000000 ),
 ( 0.000000000000000000, 1.000000000000000000 ),
 .UNSPECIFIED. ) 
 GEOMETRIC_REPRESENTATION_ITEM ( )  RATIONAL_B_SPLINE_SURFACE ( (
 ( 1.000000000000000000, 1.000000000000000000),
 ( 0.3333333333333335369, 0.3333333333333335369),
 ( 0.3333333333333335369, 0.3333333333333335369),
 ( 1.000000000000000000, 1.000000000000000000),
 ( 0.3333333333333335369, 0.3333333333333335369),
 ( 0.3333333333333335369, 0.3333333333333335369),
 ( 1.000000000000000000, 1.000000000000000000) ) ) 
 REPRESENTATION_ITEM ( '' )  SURFACE ( )  );
#62 = CARTESIAN_POINT ( 'NONE',  ( 19.00000000000000355, -15.15169129131268377, 122.7003974176934520 ) ) ;
#63 = EDGE_CURVE ( 'NONE', #861, #183, #429, .T. ) ;
#64 = AXIS2_PLACEMENT_3D ( 'NONE', #257, #686, #37 ) ;
#65 = CARTESIAN_POINT ( 'NONE',  ( 34.00000000000000711, -27.41967510352360904, 117.5904567449824611 ) ) ;
#66 = VECTOR ( 'NONE', #631, 1000.000000000000000 ) ;
#67 = B_SPLINE_CURVE_WITH_KNOTS ( 'NONE', 3,
 ( #632, #6, #226, #554 ),
 .UNSPECIFIED., .F., .F.,
 ( 4, 4 ),
 ( 0.000000000000000000, 1.000000000000000000 ),
 .UNSPECIFIED. ) ;
#68 = ORIENTED_EDGE ( 'NONE', *, *, #364, .T. ) ;
#69 = CARTESIAN_POINT ( 'NONE',  ( 16.00000000000000000, -32.50000000000000000, 127.5000000000000000 ) ) ;
#70 = CARTESIAN_POINT ( 'NONE',  ( 34.00000000000000000, -42.08824774619138509, 104.7034321627650257 ) ) ;
#71 = EDGE_LOOP ( 'NONE', ( #15, #544, #259, #539 ) ) ;
#72 = FACE_OUTER_BOUND ( 'NONE', #71, .T. ) ;
#73 = DIRECTION ( 'NONE',  ( 0.000000000000000000, -0.9637949282604073575, 0.2666445879059167190 ) ) ;
#74 = CARTESIAN_POINT ( 'NONE',  ( 41.00000000000001421, -25.82840197851155395, 136.3458801003341989 ) ) ;
#75 = FILL_AREA_STYLE_COLOUR ( '', #2 ) ;
#76 = DIRECTION ( 'NONE',  ( 0.000000000000000000, 0.000000000000000000, -1.000000000000000000 ) ) ;
#77 = CARTESIAN_POINT ( 'NONE',  ( 34.00000000000000000, -32.50000000000000000, 127.5000000000000000 ) ) ;
#78 = CARTESIAN_POINT ( 'NONE',  ( 34.00000000000000711, -21.51049175038465222, 129.2131608998383001 ) ) ;
#79 = VECTOR ( 'NONE', #596, 1000.000000000000000 ) ;
#80 = ORIENTED_EDGE ( 'NONE', *, *, #18, .F. ) ;
#81 = CARTESIAN_POINT ( 'NONE',  ( 38.10465778907093437, -35.67902758315418765, 119.9410666205420313 ) ) ;
#82 = CARTESIAN_POINT ( 'NONE',  ( 41.00000000000001421, -28.72662611185344517, 137.9175210307565465 ) ) ;
#83 = SURFACE_STYLE_USAGE ( .BOTH. , #372 ) ;
#84 = CARTESIAN_POINT ( 'NONE',  ( 36.54135364817881992, -35.38961652799797264, 119.8252057938789363 ) ) ;
#85 = CARTESIAN_POINT ( 'NONE',  ( 41.00000000000000711, -37.10739058547823532, 137.5763253969277287 ) ) ;
#86 = ORIENTED_EDGE ( 'NONE', *, *, #325, .F. ) ;
#87 = EDGE_LOOP ( 'NONE', ( #745, #201, #405, #781 ) ) ;
#88 = CARTESIAN_POINT ( 'NONE',  ( 37.50000000000000711, -39.39006291503858392, 130.6512906922101536 ) ) ;
#89 = DIRECTION ( 'NONE',  ( -1.000000000000000000, -0.000000000000000000, 0.000000000000000000 ) ) ;
#90 = AXIS2_PLACEMENT_3D ( 'NONE', #644, #149, #157 ) ;
#91 = EDGE_LOOP ( 'NONE', ( #396, #112, #373, #153 ) ) ;
#92 = CARTESIAN_POINT ( 'NONE',  ( 34.00000000000001421, -23.74880762108253762, 120.6494111786577577 ) ) ;
#93 = DIRECTION ( 'NONE',  ( 0.000000000000000000, -0.9637949282604051371, 0.2666445879059250457 ) ) ;
#94 = CARTESIAN_POINT ( 'NONE',  ( 38.66833732487301489, -34.38132226481368292, 119.5174230144025387 ) ) ;
#95 = ADVANCED_FACE ( 'NONE', ( #571 ), #229, .T. ) ;
#96 = FACE_OUTER_BOUND ( 'NONE', #739, .T. ) ;
#97 = ORIENTED_EDGE ( 'NONE', *, *, #742, .T. ) ;
#98 = LINE ( 'NONE', #681, #852 ) ;
#99 = CARTESIAN_POINT ( 'NONE',  ( 34.00000000000000711, -21.75639246211997957, 130.3773440720751751 ) ) ;
#100 = CARTESIAN_POINT ( 'NONE',  ( 38.66884992562106049, -40.48225322649557256, 129.3827599262414481 ) ) ;
#101 = CIRCLE ( 'NONE', #622, 9.729581706493240389 ) ;
#102 = EDGE_CURVE ( 'NONE', #586, #658, #864, .T. ) ;
#103 = VERTEX_POINT ( 'NONE', #810 ) ;
#104 = CARTESIAN_POINT ( 'NONE',  ( 37.34325594033845874, -39.99806100928216068, 130.8195001281943917 ) ) ;
#105 = AXIS2_PLACEMENT_3D ( 'NONE', #363, #840, #358 ) ;
#106 = CARTESIAN_POINT ( 'NONE',  ( 41.00000000000000711, -41.65682267415673579, 121.2251928085406973 ) ) ;
#107 = LINE ( 'NONE', #176, #792 ) ;
#108 = ORIENTED_EDGE ( 'NONE', *, *, #295, .F. ) ;
#109 = CARTESIAN_POINT ( 'NONE',  ( 41.00000000000000711, -32.44714172426166243, 116.4401263116306069 ) ) ;
#110 = CYLINDRICAL_SURFACE ( 'NONE', #423, 1.200000000000006173 ) ;
#111 = DIRECTION ( 'NONE',  ( -1.000000000000000000, -0.000000000000000000, 0.000000000000000000 ) ) ;
#112 = ORIENTED_EDGE ( 'NONE', *, *, #804, .T. ) ;
#113 = CARTESIAN_POINT ( 'NONE',  ( 19.00000000000000355, -15.15169129131268377, 122.7003974176934520 ) ) ;
#114 = CARTESIAN_POINT ( 'NONE',  ( 34.00000000000000711, -32.11902711141539868, 138.6157128199347710 ) ) ;
#115 = EDGE_CURVE ( 'NONE', #130, #385, #588, .T. ) ;
#116 = DIRECTION ( 'NONE',  ( -1.000000000000000000, -0.000000000000000000, -0.000000000000000000 ) ) ;
#117 = ORIENTED_EDGE ( 'NONE', *, *, #575, .F. ) ;
#118 = CARTESIAN_POINT ( 'NONE',  ( 36.45140216870302652, -40.54394384898237291, 129.0987107773125615 ) ) ;
#119 = DIRECTION ( 'NONE',  ( 0.000000000000000000, -0.9637949282604065804, 0.2666445879059198831 ) ) ;
#120 = CIRCLE ( 'NONE', #679, 8.199999999999999289 ) ;
#121 = CARTESIAN_POINT ( 'NONE',  ( 41.00000000000000711, -32.44714172426164822, 116.4401263116305927 ) ) ;
#122 = ORIENTED_EDGE ( 'NONE', *, *, #742, .F. ) ;
#123 =( LENGTH_UNIT ( ) NAMED_UNIT ( * ) SI_UNIT ( .MILLI., .METRE. ) );
#124 =( BOUNDED_SURFACE ( )  B_SPLINE_SURFACE ( 3, 1, ( 
 ( #616, #901 ),
 ( #497, #291 ),
 ( #771, #431 ),
 ( #704, #564 ),
 ( #636, #844 ),
 ( #221, #775 ),
 ( #144, #436 ) ),
 .UNSPECIFIED., .T., .F., .F. ) 
 B_SPLINE_SURFACE_WITH_KNOTS ( ( 4, 3, 4 ),
 ( 2, 2 ),
 ( 0.000000000000000000, 0.5000000000000000000, 1.000000000000000000 ),
 ( 0.000000000000000000, 1.000000000000000000 ),
 .UNSPECIFIED. ) 
 GEOMETRIC_REPRESENTATION_ITEM ( )  RATIONAL_B_SPLINE_SURFACE ( (
 ( 1.000000000000000000, 1.000000000000000000),
 ( 0.3333333333333335369, 0.3333333333333335369),
 ( 0.3333333333333335369, 0.3333333333333335369),
 ( 1.000000000000000000, 1.000000000000000000),
 ( 0.3333333333333335369, 0.3333333333333335369),
 ( 0.3333333333333335369, 0.3333333333333335369),
 ( 1.000000000000000000, 1.000000000000000000) ) ) 
 REPRESENTATION_ITEM ( '' )  SURFACE ( )  );
#125 = DIRECTION ( 'NONE',  ( 0.000000000000000000, 0.9637949282604066914, -0.2666445879059194946 ) ) ;
#126 = FACE_BOUND ( 'NONE', #208, .T. ) ;
#127 = ORIENTED_EDGE ( 'NONE', *, *, #501, .F. ) ;
#128 = DIRECTION ( 'NONE',  ( 0.000000000000000000, 0.9637949282604065804, -0.2666445879059197166 ) ) ;
#129 = LINE ( 'NONE', #121, #574 ) ;
#130 = VERTEX_POINT ( 'NONE', #380 ) ;
#131 = DIRECTION ( 'NONE',  ( -0.9743700647852350238, -0.2168066852834486247, 0.05998198118452219285 ) ) ;
#132 = CIRCLE ( 'NONE', #780, 1.200000000000006173 ) ;
#133 = CARTESIAN_POINT ( 'NONE',  ( 30.99999999999999289, -17.93399788793685445, 143.6603027010019673 ) ) ;
#134 = VERTEX_POINT ( 'NONE', #395 ) ;
#135 = EDGE_CURVE ( 'NONE', #158, #658, #107, .T. ) ;
#136 = CARTESIAN_POINT ( 'NONE',  ( 19.00000000000000355, -44.54743660325507904, 130.8330573488240134 ) ) ;
#137 = DIRECTION ( 'NONE',  ( 0.000000000000000000, -0.9637949282604065804, 0.2666445879059198831 ) ) ;
#138 = VERTEX_POINT ( 'NONE', #598 ) ;
#139 = CARTESIAN_POINT ( 'NONE',  ( 41.00000000000000711, -22.20518531748234636, 123.4137105313148197 ) ) ;
#140 = CYLINDRICAL_SURFACE ( 'NONE', #661, 11.06000000000000050 ) ;
#141 = ADVANCED_FACE ( 'NONE', ( #311, #244, #726 ), #744, .F. ) ;
#142 = CARTESIAN_POINT ( 'NONE',  ( 16.00000000000000000, -30.33146141141408592, 126.9000496772116833 ) ) ;
#143 = CARTESIAN_POINT ( 'NONE',  ( 41.00000000000000711, -43.55987368836940732, 127.4471417242616411 ) ) ;
#144 = CARTESIAN_POINT ( 'NONE',  ( 34.00000000000000000, -39.70097758565570700, 135.8946126659235745 ) ) ;
#145 = CARTESIAN_POINT ( 'NONE',  ( 41.00000000000000711, -23.92481547654609031, 134.5163293748958324 ) ) ;
#146 = ADVANCED_FACE ( 'NONE', ( #253 ), #21, .T. ) ;
#147 = AXIS2_PLACEMENT_3D ( 'NONE', #336, #298, #784 ) ;
#148 = PRODUCT_DEFINITION_FORMATION_WITH_SPECIFIED_SOURCE ( 'ANY', '', #383, .NOT_KNOWN. ) ;
#149 = DIRECTION ( 'NONE',  ( 1.000000000000000000, 0.000000000000000000, 0.000000000000000000 ) ) ;
#150 = B_SPLINE_CURVE_WITH_KNOTS ( 'NONE', 1,
 ( #262, #340 ),
 .UNSPECIFIED., .F., .F.,
 ( 2, 2 ),
 ( 0.000000000000000000, 1.000000000000000000 ),
 .UNSPECIFIED. ) ;
#151 = CARTESIAN_POINT ( 'NONE',  ( 36.30010516770943241, -34.84012423079106213, 119.6394033860516117 ) ) ;
#152 = PLANE ( 'NONE',  #227 ) ;
#153 = ORIENTED_EDGE ( 'NONE', *, *, #779, .F. ) ;
#154 = EDGE_LOOP ( 'NONE', ( #749, #8, #615, #640 ) ) ;
#155 = CARTESIAN_POINT ( 'NONE',  ( 36.33148388958733221, -34.98898562589296546, 119.6855173425169738 ) ) ;
#156 = CARTESIAN_POINT ( 'NONE',  ( 41.00000000000000711, -24.35840460886159420, 135.0149824952017639 ) ) ;
#157 = DIRECTION ( 'NONE',  ( 0.000000000000000000, -0.9637949282604064694, 0.2666445879059198831 ) ) ;
#158 = VERTEX_POINT ( 'NONE', #160 ) ;
#159 = CARTESIAN_POINT ( 'NONE',  ( 37.65880347614828594, -33.50639223918931719, 119.3619919721777478 ) ) ;
#160 = CARTESIAN_POINT ( 'NONE',  ( 34.00000000000000000, -32.44714172426166243, 116.4401263116306069 ) ) ;
#161 = AXIS2_PLACEMENT_3D ( 'NONE', #399, #465, #673 ) ;
#162 = VECTOR ( 'NONE', #750, 1000.000000000000000 ) ;
#163 = ORIENTED_EDGE ( 'NONE', *, *, #115, .F. ) ;
#164 = CARTESIAN_POINT ( 'NONE',  ( 36.33115007449701750, -34.38275986644725890, 119.5177467594011631 ) ) ;
#165 = APPLICATION_CONTEXT ( 'automotive_design' ) ;
#166 = CARTESIAN_POINT ( 'NONE',  ( 38.54771964991028455, -40.22122001742509667, 130.2647694465391055 ) ) ;
#167 = VERTEX_POINT ( 'NONE', #521 ) ;
#168 = CARTESIAN_POINT ( 'NONE',  ( 38.23671805188704553, -35.59722510673726248, 119.9065920126619176 ) ) ;
#169 = EDGE_CURVE ( 'NONE', #318, #365, #170, .T. ) ;
#170 = LINE ( 'NONE', #248, #256 ) ;
#171 = EDGE_CURVE ( 'NONE', #709, #895, #252, .T. ) ;
#172 = ADVANCED_FACE ( 'NONE', ( #96 ), #664, .F. ) ;
#173 = ORIENTED_EDGE ( 'NONE', *, *, #585, .F. ) ;
#174 = CARTESIAN_POINT ( 'NONE',  ( 16.00000000000000000, -32.50000000000000000, 127.5000000000000000 ) ) ;
#175 = CARTESIAN_POINT ( 'NONE',  ( 34.00000000000000711, -35.62127888525655806, 138.1752906263741068 ) ) ;
#176 = CARTESIAN_POINT ( 'NONE',  ( 34.00000000000000000, -32.44714172426166243, 116.4401263116306069 ) ) ;
#177 = ORIENTED_EDGE ( 'NONE', *, *, #282, .F. ) ;
#178 = CARTESIAN_POINT ( 'NONE',  ( 36.33166267501451330, -40.48257697150906864, 129.3813223245924462 ) ) ;
#179 = AXIS2_PLACEMENT_3D ( 'NONE', #778, #562, #787 ) ;
#180 = FACE_OUTER_BOUND ( 'NONE', #308, .T. ) ;
#181 = CARTESIAN_POINT ( 'NONE',  ( 37.81648222499578083, -40.63419520750750280, 128.5385254387590805 ) ) ;
#182 = EDGE_CURVE ( 'NONE', #811, #193, #330, .T. ) ;
#183 = VERTEX_POINT ( 'NONE', #34 ) ;
#184 = CARTESIAN_POINT ( 'NONE',  ( 41.00000000000000000, -26.75941322429095592, 118.0275889673849008 ) ) ;
#185 = B_SPLINE_CURVE_WITH_KNOTS ( 'NONE', 3,
 ( #218, #494, #1, #643, #717, #212, #428, #786, #846, #848, #510, #145, #156, #287, #74, #700, #292, #82, #561, #444, #566, #639, #14, #222, #712, #500, #85, #12, #776, #498, #369, #387, #705, #371, #772, #438 ),
 .UNSPECIFIED., .F., .F.,
 ( 4, 2, 2, 2, 2, 2, 2, 2, 2, 2, 2, 2, 2, 2, 2, 2, 2, 4 ),
 ( 0.000000000000000000, 0.06250000000000030531, 0.1250000000000006106, 0.1875000000000009159, 0.2500000000000012212, 0.3125000000000015543, 0.3750000000000018319, 0.4375000000000021094, 0.5000000000000024425, 0.5625000000000027756, 0.6250000000000031086, 0.6875000000000033307, 0.7500000000000036637, 0.8125000000000039968, 0.8437500000000034417, 0.8750000000000028866, 0.9375000000000014433, 1.000000000000000000 ),
 .UNSPECIFIED. ) ;
#186 = DIRECTION ( 'NONE',  ( 0.000000000000000000, 0.9637949282604065804, -0.2666445879059197166 ) ) ;
#187 = ADVANCED_FACE ( 'NONE', ( #321 ), #29, .T. ) ;
#188 = CARTESIAN_POINT ( 'NONE',  ( 30.99999999999999289, -28.31135910643631703, 106.1510166897482748 ) ) ;
#189 = ORIENTED_EDGE ( 'NONE', *, *, #607, .F. ) ;
#190 = CARTESIAN_POINT ( 'NONE',  ( 19.00000000000000355, -20.45256339674491741, 124.1669426511760008 ) ) ;
#191 = CARTESIAN_POINT ( 'NONE',  ( 10.80689757708123899, -32.50000000000000000, 127.5000000000000000 ) ) ;
#192 = CARTESIAN_POINT ( 'NONE',  ( 34.00000000000000711, -26.28431368304608640, 118.2601952300899484 ) ) ;
#193 = VERTEX_POINT ( 'NONE', #461 ) ;
#194 = PLANE ( 'NONE',  #348 ) ;
#195 = AXIS2_PLACEMENT_3D ( 'NONE', #409, #828, #538 ) ;
#196 = PRODUCT_DEFINITION ( 'UNKNOWN', '', #148, #11 ) ;
#197 = B_SPLINE_CURVE_WITH_KNOTS ( 'NONE', 3,
 ( #313, #653, #13, #239, #847, #84, #300, #155, #151, #296, #164, #443, #370, #503, #520, #382, #724, #20 ),
 .UNSPECIFIED., .F., .F.,
 ( 4, 2, 2, 2, 2, 2, 2, 2, 4 ),
 ( 0.003756788276279737857, 0.004226271934949544194, 0.004695755593619350965, 0.005165239252289157736, 0.005634722910958964506, 0.006104206569628770410, 0.006573690228298578048, 0.007043173886968383951, 0.007512657545638190722 ),
 .UNSPECIFIED. ) ;
#198 = CIRCLE ( 'NONE', #30, 12.49999999999999822 ) ;
#199 = CARTESIAN_POINT ( 'NONE',  ( 30.99999999999999289, -47.06600211206315265, 111.3396972989980327 ) ) ;
#200 = EDGE_CURVE ( 'NONE', #495, #400, #288, .T. ) ;
#201 = ORIENTED_EDGE ( 'NONE', *, *, #102, .T. ) ;
#202 = CARTESIAN_POINT ( 'NONE',  ( 19.00000000000000355, -32.50000000000000000, 127.5000000000000000 ) ) ;
#203 = DIRECTION ( 'NONE',  ( 0.000000000000000000, -0.9637949282604073575, 0.2666445879059167190 ) ) ;
#204 = LINE ( 'NONE', #628, #16 ) ;
#205 = EDGE_LOOP ( 'NONE', ( #899, #870, #445, #254 ) ) ;
#206 = CARTESIAN_POINT ( 'NONE',  ( 37.50000000000000711, -39.71003642052568949, 129.4947367782976357 ) ) ;
#207 = CARTESIAN_POINT ( 'NONE',  ( 34.00000000000000000, -25.29902241434429300, 119.1053873340764397 ) ) ;
#208 = EDGE_LOOP ( 'NONE', ( #696, #572 ) ) ;
#209 = CARTESIAN_POINT ( 'NONE',  ( 37.50000000000000711, -40.63800802025639314, 128.5063923003693844 ) ) ;
#210 = DIRECTION ( 'NONE',  ( 0.000000000000000000, -0.9637949282604063583, 0.2666445879059208823 ) ) ;
#211 = AXIS2_PLACEMENT_3D ( 'NONE', #214, #552, #76 ) ;
#212 = CARTESIAN_POINT ( 'NONE',  ( 41.00000000000000000, -21.54161783562967969, 129.1359968593200733 ) ) ;
#213 = ORIENTED_EDGE ( 'NONE', *, *, #473, .T. ) ;
#214 = CARTESIAN_POINT ( 'NONE',  ( 34.00000000000000000, -32.50000000000000000, 127.5000000000000000 ) ) ;
#215 = EDGE_CURVE ( 'NONE', #390, #318, #678, .T. ) ;
#216 = PLANE ( 'NONE',  #448 ) ;
#217 = ADVANCED_FACE ( 'NONE', ( #753, #757 ), #266, .F. ) ;
#218 = CARTESIAN_POINT ( 'NONE',  ( 41.00000000000000711, -21.84042904759057890, 124.5509111217887721 ) ) ;
#219 = DIRECTION ( 'NONE',  ( 1.000000000000000000, -0.000000000000000000, -0.000000000000000000 ) ) ;
#220 = ORIENTED_EDGE ( 'NONE', *, *, #379, .F. ) ;
#221 = CARTESIAN_POINT ( 'NONE',  ( 34.00000000000000000, -56.49020291750280620, 121.4926574946121036 ) ) ;
#222 = CARTESIAN_POINT ( 'NONE',  ( 41.00000000000000711, -34.59271462688196408, 138.3804078896875183 ) ) ;
#223 = EDGE_CURVE ( 'NONE', #158, #495, #411, .T. ) ;
#224 = DIRECTION ( 'NONE',  ( -1.000000000000000000, -0.000000000000000000, 0.000000000000000000 ) ) ;
#225 = FACE_OUTER_BOUND ( 'NONE', #669, .T. ) ;
#226 = CARTESIAN_POINT ( 'NONE',  ( 34.00000000000000711, -41.35418852091485320, 134.2301080356481862 ) ) ;
#227 = AXIS2_PLACEMENT_3D ( 'NONE', #506, #441, #137 ) ;
#228 = VECTOR ( 'NONE', #710, 1000.000000000000000 ) ;
#229 = CYLINDRICAL_SURFACE ( 'NONE', #634, 11.06000000000000050 ) ;
#230 = EDGE_CURVE ( 'NONE', #850, #158, #129, .T. ) ;
#231 = ADVANCED_FACE ( 'NONE', ( #620, #126 ), #687, .T. ) ;
#232 = EDGE_LOOP ( 'NONE', ( #865, #263, #412, #826 ) ) ;
#233 = DIRECTION ( 'NONE',  ( 1.000000000000000000, 0.000000000000000000, 0.000000000000000000 ) ) ;
#234 = CARTESIAN_POINT ( 'NONE',  ( 34.00000000000000000, -21.84042809343990399, 124.5509108577605133 ) ) ;
#235 = FACE_OUTER_BOUND ( 'NONE', #35, .T. ) ;
#236 = CARTESIAN_POINT ( 'NONE',  ( 37.50000000000000711, -39.99806100928216779, 130.8195001281943917 ) ) ;
#237 = B_SPLINE_CURVE_WITH_KNOTS ( 'NONE', 3,
 ( #109, #885, #820, #397, #670, #41, #537, #184, #880, #328, #260, #875, #54, #816, #255, #139, #626, #496 ),
 .UNSPECIFIED., .F., .F.,
 ( 4, 2, 2, 2, 2, 2, 2, 2, 4 ),
 ( 0.000000000000000000, 0.1250000000000006106, 0.2500000000000004996, 0.3750000000000003886, 0.5000000000000002220, 0.6250000000000001110, 0.7500000000000001110, 0.8750000000000000000, 1.000000000000000000 ),
 .UNSPECIFIED. ) ;
#238 = ORIENTED_EDGE ( 'NONE', *, *, #716, .F. ) ;
#239 = CARTESIAN_POINT ( 'NONE',  ( 36.89637341191272668, -35.67945542354500077, 119.9412495560107459 ) ) ;
#240 = CARTESIAN_POINT ( 'NONE',  ( 37.81477623856137882, -40.01111455242544679, 130.7904108018857130 ) ) ;
#241 = AXIS2_PLACEMENT_3D ( 'NONE', #23, #782, #645 ) ;
#242 = ORIENTED_EDGE ( 'NONE', *, *, #672, .T. ) ;
#243 = CARTESIAN_POINT ( 'NONE',  ( 38.70005830471478703, -34.83715338910401726, 119.6385566482234708 ) ) ;
#244 = FACE_BOUND ( 'NONE', #536, .T. ) ;
#245 = ORIENTED_EDGE ( 'NONE', *, *, #513, .T. ) ;
#246 = DIRECTION ( 'NONE',  ( 0.000000000000000000, -0.9637949282604066914, 0.2666445879059194946 ) ) ;
#247 = CARTESIAN_POINT ( 'NONE',  ( 34.00000000000000711, -24.68807485250118461, 135.4169462122067671 ) ) ;
#248 = CARTESIAN_POINT ( 'NONE',  ( 41.00000000000000711, -41.96000616093388658, 133.2299112938240739 ) ) ;
#249 = VERTEX_POINT ( 'NONE', #474 ) ;
#250 = CARTESIAN_POINT ( 'NONE',  ( 37.50000000000001421, -33.33818280561057179, 119.9699900577265623 ) ) ;
#251 = CYLINDRICAL_SURFACE ( 'NONE', #517, 8.199999999999999289 ) ;
#252 = B_SPLINE_CURVE_WITH_KNOTS ( 'NONE', 3,
 ( #584, #657, #240, #25, #732, #802, #166, #729, #39, #518, #100, #258, #44, #590, #326, #181, #794, #389 ),
 .UNSPECIFIED., .F., .F.,
 ( 4, 2, 2, 2, 2, 2, 2, 2, 4 ),
 ( 0.003756788276282730255, 0.004226271934950360382, 0.004695755593617990074, 0.005165239252285619767, 0.005634722910953250327, 0.006104206569620880020, 0.006573690228288509713, 0.007043173886956140273, 0.007512657545623769965 ),
 .UNSPECIFIED. ) ;
#253 = FACE_OUTER_BOUND ( 'NONE', #442, .T. ) ;
#254 = ORIENTED_EDGE ( 'NONE', *, *, #33, .T. ) ;
#255 = CARTESIAN_POINT ( 'NONE',  ( 41.00000000000001421, -22.70639941732880018, 122.3265938152473069 ) ) ;
#256 = VECTOR ( 'NONE', #455, 1000.000000000000000 ) ;
#257 = CARTESIAN_POINT ( 'NONE',  ( 0.000000000000000000, -73.21552593387359309, 20.25588967996553791 ) ) ;
#258 = CARTESIAN_POINT ( 'NONE',  ( 38.54861204903303928, -40.54399733122706806, 129.0985175779363487 ) ) ;
#259 = ORIENTED_EDGE ( 'NONE', *, *, #585, .T. ) ;
#260 = CARTESIAN_POINT ( 'NONE',  ( 41.00000000000001421, -24.86288424485647397, 119.4779655591817829 ) ) ;
#261 = CARTESIAN_POINT ( 'NONE',  ( 34.00000000000000711, -34.46299795706053004, 138.4476413376432333 ) ) ;
#262 = CARTESIAN_POINT ( 'NONE',  ( 34.00000000000000000, -39.70097758565570700, 135.8946126659235745 ) ) ;
#263 = ORIENTED_EDGE ( 'NONE', *, *, #839, .T. ) ;
#264 = CARTESIAN_POINT ( 'NONE',  ( 37.50000000000001421, -35.65129063343555771, 120.6099370687007877 ) ) ;
#265 = CARTESIAN_POINT ( 'NONE',  ( 19.00000000000000355, -49.84830870868731978, 132.2996025823065622 ) ) ;
#266 = PLANE ( 'NONE',  #271 ) ;
#267 = ORIENTED_EDGE ( 'NONE', *, *, #839, .F. ) ;
#268 = AXIS2_PLACEMENT_3D ( 'NONE', #896, #761, #549 ) ;
#269 = CYLINDRICAL_SURFACE ( 'NONE', #894, 2.249999999999996891 ) ;
#270 = DIRECTION ( 'NONE',  ( 0.000000000000000000, -0.9637949282604065804, 0.2666445879059198831 ) ) ;
#271 = AXIS2_PLACEMENT_3D ( 'NONE', #276, #415, #624 ) ;
#272 = CIRCLE ( 'NONE', #863, 17.99999999999999645 ) ;
#273 = CARTESIAN_POINT ( 'NONE',  ( 41.00000000000000711, -43.55987368836944285, 127.4471417242616980 ) ) ;
#274 = ORIENTED_EDGE ( 'NONE', *, *, #845, .F. ) ;
#275 = CARTESIAN_POINT ( 'NONE',  ( 41.00000000000000711, -32.50000000000000000, 127.5000000000000000 ) ) ;
#276 = CARTESIAN_POINT ( 'NONE',  ( 16.00000000000000000, -32.50000000000000000, 127.5000000000000000 ) ) ;
#277 = ORIENTED_EDGE ( 'NONE', *, *, #379, .T. ) ;
#278 = CARTESIAN_POINT ( 'NONE',  ( 41.00000000000000711, -21.84042904759057890, 124.5509111217887721 ) ) ;
#279 = CARTESIAN_POINT ( 'NONE',  ( 16.00000000000000000, -30.33146141141408592, 126.9000496772116833 ) ) ;
#280 = CARTESIAN_POINT ( 'NONE',  ( 34.00000000000000000, -39.70097758565570700, 135.8946126659235745 ) ) ;
#281 = ORIENTED_EDGE ( 'NONE', *, *, #171, .F. ) ;
#282 = EDGE_CURVE ( 'NONE', #138, #815, #150, .T. ) ;
#283 = ADVANCED_FACE ( 'NONE', ( #550 ), #547, .F. ) ;
#284 = CARTESIAN_POINT ( 'NONE',  ( 34.00000000000000000, -43.55987368836944285, 127.4471417242616980 ) ) ;
#285 = AXIS2_PLACEMENT_3D ( 'NONE', #594, #534, #525 ) ;
#286 = AXIS2_PLACEMENT_3D ( 'NONE', #623, #546, #499 ) ;
#287 = CARTESIAN_POINT ( 'NONE',  ( 41.00000000000001421, -25.31252147756104875, 135.9322460853046834 ) ) ;
#288 = B_SPLINE_CURVE_WITH_KNOTS ( 'NONE', 1,
 ( #59, #888 ),
 .UNSPECIFIED., .F., .F.,
 ( 2, 2 ),
 ( 0.000000000000000000, 1.000000000000000000 ),
 .UNSPECIFIED. ) ;
#289 = CARTESIAN_POINT ( 'NONE',  ( 10.80689757708123899, -32.50000000000000000, 119.2999999999999972 ) ) ;
#290 = DIRECTION ( 'NONE',  ( 0.000000000000000000, 0.000000000000000000, 1.000000000000000000 ) ) ;
#291 = CARTESIAN_POINT ( 'NONE',  ( 30.99999999999999289, -36.68864089356369362, 148.8489833102516968 ) ) ;
#292 = CARTESIAN_POINT ( 'NONE',  ( 41.00000000000000711, -27.51186315378481950, 137.3933191185649321 ) ) ;
#293 = SURFACE_STYLE_FILL_AREA ( #376 ) ;
#294 = PRODUCT_DEFINITION_SHAPE ( 'NONE', 'NONE',  #196 ) ;
#295 = EDGE_CURVE ( 'NONE', #903, #480, #475, .T. ) ;
#296 = CARTESIAN_POINT ( 'NONE',  ( 36.29989535716539706, -34.53437666734492950, 119.5547830666422300 ) ) ;
#297 = EDGE_CURVE ( 'NONE', #489, #249, #204, .T. ) ;
#298 = DIRECTION ( 'NONE',  ( 1.000000000000000000, 0.000000000000000000, 0.000000000000000000 ) ) ;
#299 = DIRECTION ( 'NONE',  ( 0.000000000000000000, -0.9637949282604064694, 0.2666445879059202717 ) ) ;
#300 = CARTESIAN_POINT ( 'NONE',  ( 36.45228034993905908, -35.26476938873697264, 119.7787799618773192 ) ) ;
#301 = FACE_OUTER_BOUND ( 'NONE', #580, .T. ) ;
#302 = CIRCLE ( 'NONE', #105, 17.99999999999999645 ) ;
#303 = CIRCLE ( 'NONE', #268, 2.249999999999996891 ) ;
#304 = ORIENTED_EDGE ( 'NONE', *, *, #513, .F. ) ;
#305 = ORIENTED_EDGE ( 'NONE', *, *, #223, .F. ) ;
#306 = CARTESIAN_POINT ( 'NONE',  ( 38.23817602700633245, -33.74747817806350980, 119.3946834386877782 ) ) ;
#307 = EDGE_CURVE ( 'NONE', #385, #130, #132, .T. ) ;
#308 = EDGE_LOOP ( 'NONE', ( #691, #274, #416, #568, #327 ) ) ;
#309 = CARTESIAN_POINT ( 'NONE',  ( 34.00000000000000711, -22.57894145379098205, 122.4913542174939067 ) ) ;
#310 = ADVANCED_FACE ( 'NONE', ( #419 ), #61, .T. ) ;
#311 = FACE_BOUND ( 'NONE', #359, .T. ) ;
#312 = ORIENTED_EDGE ( 'NONE', *, *, #343, .F. ) ;
#313 = CARTESIAN_POINT ( 'NONE',  ( 37.50000000000001421, -35.81950007182530982, 120.0019389657624345 ) ) ;
#314 = EDGE_CURVE ( 'NONE', #563, #633, #530, .T. ) ;
#315 = DIRECTION ( 'NONE',  ( 0.000000000000000000, 0.9637949282604065804, -0.2666445879059197166 ) ) ;
#316 = AXIS2_PLACEMENT_3D ( 'NONE', #403, #116, #543 ) ;
#317 = CIRCLE ( 'NONE', #576, 11.06000000000000405 ) ;
#318 = VERTEX_POINT ( 'NONE', #51 ) ;
#319 = CARTESIAN_POINT ( 'NONE',  ( 36.76328194820207074, -40.09340796412519126, 130.5972251636489148 ) ) ;
#320 = LINE ( 'NONE', #136, #777 ) ;
#321 = FACE_OUTER_BOUND ( 'NONE', #205, .T. ) ;
#322 = EDGE_LOOP ( 'NONE', ( #220, #377, #857, #68, #341 ) ) ;
#323 = CARTESIAN_POINT ( 'NONE',  ( 41.00000000000000711, -32.44714172426166243, 116.4401263116306069 ) ) ;
#324 = CARTESIAN_POINT ( 'NONE',  ( 41.00000000000000711, -39.77456994725713457, 119.1153546414402200 ) ) ;
#325 = EDGE_CURVE ( 'NONE', #400, #815, #437, .T. ) ;
#326 = CARTESIAN_POINT ( 'NONE',  ( 38.10504352797992311, -40.61797073117298140, 128.6585413107035265 ) ) ;
#327 = ORIENTED_EDGE ( 'NONE', *, *, #716, .T. ) ;
#328 = CARTESIAN_POINT ( 'NONE',  ( 41.00000000000001421, -25.30704051360250872, 119.0771912029901358 ) ) ;
#329 = DIRECTION ( 'NONE',  ( -0.000000000000000000, -0.2666445879059215485, -0.9637949282604060253 ) ) ;
#330 = LINE ( 'NONE', #604, #677 ) ;
#331 = CIRCLE ( 'NONE', #90, 12.49999999999999822 ) ;
#332 = ORIENTED_EDGE ( 'NONE', *, *, #805, .F. ) ;
#333 = DIRECTION ( 'NONE',  ( 1.000000000000000000, 0.000000000000000000, 0.000000000000000000 ) ) ;
#334 = CIRCLE ( 'NONE', #891, 2.249999999999996891 ) ;
#335 = CARTESIAN_POINT ( 'NONE',  ( 34.00000000000000711, -30.93373834442454395, 138.5114048269679756 ) ) ;
#336 = CARTESIAN_POINT ( 'NONE',  ( 31.00000000000000355, -32.50000000000000000, 127.5000000000000000 ) ) ;
#337 = ORIENTED_EDGE ( 'NONE', *, *, #297, .F. ) ;
#338 = CARTESIAN_POINT ( 'NONE',  ( 37.34119652385307830, -40.63800802025640024, 128.5063923003693844 ) ) ;
#339 = CARTESIAN_POINT ( 'NONE',  ( 19.00000000000000355, -20.45256339674491741, 124.1669426511760008 ) ) ;
#340 = CARTESIAN_POINT ( 'NONE',  ( 31.00000000000000355, -41.87732150281341603, 130.0943403046248648 ) ) ;
#341 = ORIENTED_EDGE ( 'NONE', *, *, #169, .F. ) ;
#342 = FACE_OUTER_BOUND ( 'NONE', #551, .T. ) ;
#343 = EDGE_CURVE ( 'NONE', #249, #103, #302, .T. ) ;
#344 = CARTESIAN_POINT ( 'NONE',  ( 34.00000000000001421, -29.85233997014892182, 116.6834088113144787 ) ) ;
#345 = ORIENTED_EDGE ( 'NONE', *, *, #33, .F. ) ;
#346 = FACE_OUTER_BOUND ( 'NONE', #766, .T. ) ;
#347 = AXIS2_PLACEMENT_3D ( 'NONE', #647, #577, #853 ) ;
#348 = AXIS2_PLACEMENT_3D ( 'NONE', #47, #751, #119 ) ;
#349 = CARTESIAN_POINT ( 'NONE',  ( 34.00000000000000000, -32.44714172426166243, 116.4401263116306069 ) ) ;
#350 = VERTEX_POINT ( 'NONE', #768 ) ;
#351 = DIRECTION ( 'NONE',  ( 1.000000000000000000, 0.000000000000000000, 0.000000000000000000 ) ) ;
#352 = CARTESIAN_POINT ( 'NONE',  ( 37.50000000000000711, -42.75993992465168247, 130.3385265090429073 ) ) ;
#353 = ADVANCED_FACE ( 'NONE', ( #301 ), #152, .T. ) ;
#354 = B_SPLINE_CURVE_WITH_KNOTS ( 'NONE', 3,
 ( #736, #408, #872, #667, #671, #106, #609, #324, #800, #876 ),
 .UNSPECIFIED., .F., .F.,
 ( 4, 2, 2, 2, 4 ),
 ( 0.000000000000000000, 0.2500000000000000000, 0.5000000000000000000, 0.7500000000000000000, 1.000000000000000000 ),
 .UNSPECIFIED. ) ;
#355 = ORIENTED_EDGE ( 'NONE', *, *, #805, .T. ) ;
#356 =( NAMED_UNIT ( * ) PLANE_ANGLE_UNIT ( ) SI_UNIT ( $, .RADIAN. ) );
#357 = DIRECTION ( 'NONE',  ( 0.000000000000000000, 0.000000000000000000, -1.000000000000000000 ) ) ;
#358 = DIRECTION ( 'NONE',  ( 0.000000000000000000, -0.9637949282604066914, 0.2666445879059194946 ) ) ;
#359 = EDGE_LOOP ( 'NONE', ( #97, #242 ) ) ;
#360 = SHAPE_DEFINITION_REPRESENTATION ( #294, #557 ) ;
#361 = CARTESIAN_POINT ( 'NONE',  ( 34.00000000000000000, -32.50000000000000000, 135.7000000000000171 ) ) ;
#362 = VECTOR ( 'NONE', #454, 1000.000000000000227 ) ;
#363 = CARTESIAN_POINT ( 'NONE',  ( 16.00000000000000000, -32.50000000000000000, 127.5000000000000000 ) ) ;
#364 = EDGE_CURVE ( 'NONE', #138, #365, #67, .T. ) ;
#365 = VERTEX_POINT ( 'NONE', #835 ) ;
#366 = ORIENTED_EDGE ( 'NONE', *, *, #759, .T. ) ;
#367 = CARTESIAN_POINT ( 'NONE',  ( 37.81418787456519937, -35.79066843171149515, 119.9889953080779037 ) ) ;
#368 = UNCERTAINTY_MEASURE_WITH_UNIT (LENGTH_MEASURE( 1.000000000000000082E-05 ), #123, 'distance_accuracy_value', 'NONE');
#369 = CARTESIAN_POINT ( 'NONE',  ( 41.00000000000000000, -39.08998872289420490, 136.3884237996890931 ) ) ;
#370 = CARTESIAN_POINT ( 'NONE',  ( 36.54048969355312693, -33.96712865237096679, 119.4315497471950493 ) ) ;
#371 = CARTESIAN_POINT ( 'NONE',  ( 41.00000000000000711, -41.22617413456463709, 134.3271762327690055 ) ) ;
#372 = SURFACE_SIDE_STYLE ('',( #293 ) ) ;
#373 = ORIENTED_EDGE ( 'NONE', *, *, #307, .F. ) ;
#374 = CARTESIAN_POINT ( 'NONE',  ( 34.00000000000000711, -22.13134396845878982, 123.4993866280898089 ) ) ;
#375 = AXIS2_PLACEMENT_3D ( 'NONE', #773, #299, #514 ) ;
#376 = FILL_AREA_STYLE ('',( #75 ) ) ;
#377 = ORIENTED_EDGE ( 'NONE', *, *, #63, .T. ) ;
#378 = LINE ( 'NONE', #88, #754 ) ;
#379 = EDGE_CURVE ( 'NONE', #861, #318, #185, .T. ) ;
#380 = CARTESIAN_POINT ( 'NONE',  ( 37.50000000000001421, -36.49508036418080792, 117.5600335645748373 ) ) ;
#381 = VERTEX_POINT ( 'NONE', #142 ) ;
#382 = CARTESIAN_POINT ( 'NONE',  ( 37.18351777500474498, -33.53852537764821307, 119.3658047846898711 ) ) ;
#383 = PRODUCT ( 'project 2 wheels edited', 'project 2 wheels edited', '', ( #697 ) ) ;
#384 = DIRECTION ( 'NONE',  ( 1.000000000000000000, -0.000000000000000000, -0.000000000000000000 ) ) ;
#385 = VERTEX_POINT ( 'NONE', #570 ) ;
#386 = CARTESIAN_POINT ( 'NONE',  ( 36.53958177867521329, -40.17549368320761261, 130.3878097137830991 ) ) ;
#387 = CARTESIAN_POINT ( 'NONE',  ( 41.00000000000000000, -39.86735186977340106, 135.7754075204256026 ) ) ;
#388 = AXIS2_PLACEMENT_3D ( 'NONE', #418, #764, #203 ) ;
#389 = CARTESIAN_POINT ( 'NONE',  ( 37.50000000000000711, -40.63800802025639314, 128.5063923003693844 ) ) ;
#390 = VERTEX_POINT ( 'NONE', #432 ) ;
#391 = CARTESIAN_POINT ( 'NONE',  ( 36.29994169534301562, -40.36144333426785380, 129.8371534479978777 ) ) ;
#392 = DIRECTION ( 'NONE',  ( 0.000000000000000000, 0.000000000000000000, -1.000000000000000000 ) ) ;
#393 = EDGE_CURVE ( 'NONE', #658, #158, #737, .T. ) ;
#394 = EDGE_CURVE ( 'NONE', #183, #138, #722, .T. ) ;
#395 = CARTESIAN_POINT ( 'NONE',  ( 41.00000000000000711, -32.50000000000000000, 135.7000000000000171 ) ) ;
#396 = ORIENTED_EDGE ( 'NONE', *, *, #672, .F. ) ;
#397 = CARTESIAN_POINT ( 'NONE',  ( 41.00000000000000000, -30.07407498629290643, 116.6929062903523970 ) ) ;
#398 = FACE_BOUND ( 'NONE', #718, .T. ) ;
#399 = CARTESIAN_POINT ( 'NONE',  ( 16.00000000000000000, -32.50000000000000000, 127.5000000000000000 ) ) ;
#400 = VERTEX_POINT ( 'NONE', #682 ) ;
#401 = CARTESIAN_POINT ( 'NONE',  ( 34.00000000000000000, -43.55987368836940732, 127.4471417242616411 ) ) ;
#402 = FACE_OUTER_BOUND ( 'NONE', #502, .T. ) ;
#403 = CARTESIAN_POINT ( 'NONE',  ( 34.00000000000000000, -32.50000000000000000, 127.5000000000000000 ) ) ;
#404 = CLOSED_SHELL ( 'NONE', ( #141, #283, #617, #660, #353, #887, #95, #646, #10, #491, #535, #146, #701, #217, #187, #310, #565, #485, #486, #172, #434, #50, #231, #424, #458 ) ) ;
#405 = ORIENTED_EDGE ( 'NONE', *, *, #135, .F. ) ;
#406 = CARTESIAN_POINT ( 'NONE',  ( 36.45153196860262312, -40.22165820847847328, 130.2635500292026052 ) ) ;
#407 = CIRCLE ( 'NONE', #825, 17.99999999999999645 ) ;
#408 = CARTESIAN_POINT ( 'NONE',  ( 41.00000000000000000, -43.55535252674311408, 126.5011502818035893 ) ) ;
#409 = CARTESIAN_POINT ( 'NONE',  ( 37.50000000000001421, -34.49473671952306120, 120.2899635632136750 ) ) ;
#410 = B_SPLINE_CURVE_WITH_KNOTS ( 'NONE', 3,
 ( #796, #655, #92, #309, #374, #512 ),
 .UNSPECIFIED., .F., .F.,
 ( 4, 2, 4 ),
 ( 0.000000000000000000, 0.5000000000000000000, 1.000000000000000000 ),
 .UNSPECIFIED. ) ;
#411 = B_SPLINE_CURVE_WITH_KNOTS ( 'NONE', 3,
 ( #349, #483, #344, #65, #192, #207 ),
 .UNSPECIFIED., .F., .F.,
 ( 4, 2, 4 ),
 ( 0.000000000000000000, 0.5000000000000000000, 1.000000000000000000 ),
 .UNSPECIFIED. ) ;
#412 = ORIENTED_EDGE ( 'NONE', *, *, #579, .T. ) ;
#413 = APPLICATION_PROTOCOL_DEFINITION ( 'draft international standard', 'automotive_design', 1998, #165 ) ;
#414 = CARTESIAN_POINT ( 'NONE',  ( 34.00000000000000000, -25.29902241434429300, 119.1053873340764397 ) ) ;
#415 = DIRECTION ( 'NONE',  ( 1.000000000000000000, 0.000000000000000000, 0.000000000000000000 ) ) ;
#416 = ORIENTED_EDGE ( 'NONE', *, *, #230, .T. ) ;
#417 = CARTESIAN_POINT ( 'NONE',  ( 34.00000000000000000, -32.50000000000000000, 127.5000000000000000 ) ) ;
#418 = CARTESIAN_POINT ( 'NONE',  ( 34.00000000000000000, -32.50000000000000000, 127.5000000000000000 ) ) ;
#419 = FACE_OUTER_BOUND ( 'NONE', #688, .T. ) ;
#420 = ORIENTED_EDGE ( 'NONE', *, *, #200, .F. ) ;
#421 = LINE ( 'NONE', #284, #49 ) ;
#422 = VECTOR ( 'NONE', #707, 1000.000000000000000 ) ;
#423 = AXIS2_PLACEMENT_3D ( 'NONE', #55, #329, #468 ) ;
#424 = ADVANCED_FACE ( 'NONE', ( #528 ), #110, .F. ) ;
#425 = DIRECTION ( 'NONE',  ( 0.000000000000000000, 0.2666445879059216040, 0.9637949282604061363 ) ) ;
#426 = VERTEX_POINT ( 'NONE', #339 ) ;
#427 = APPLICATION_PROTOCOL_DEFINITION ( 'draft international standard', 'automotive_design', 1998, #699 ) ;
#428 = CARTESIAN_POINT ( 'NONE',  ( 41.00000000000000000, -21.65885563245553413, 129.7867771608225382 ) ) ;
#429 = LINE ( 'NONE', #567, #605 ) ;
#430 = DIRECTION ( 'NONE',  ( 0.000000000000000000, -0.9637949282604064694, 0.2666445879059198831 ) ) ;
#431 = CARTESIAN_POINT ( 'NONE',  ( 30.99999999999999289, -17.93399788793685445, 143.6603027010019673 ) ) ;
#432 = CARTESIAN_POINT ( 'NONE',  ( 41.00000000000000711, -43.55987368836940732, 127.4471417242616411 ) ) ;
#433 =( LENGTH_UNIT ( ) NAMED_UNIT ( * ) SI_UNIT ( .MILLI., .METRE. ) );
#434 = ADVANCED_FACE ( 'NONE', ( #398, #867 ), #741, .T. ) ;
#435 = ORIENTED_EDGE ( 'NONE', *, *, #394, .F. ) ;
#436 = CARTESIAN_POINT ( 'NONE',  ( 31.00000000000000355, -41.87732150281341603, 130.0943403046248648 ) ) ;
#437 = CIRCLE ( 'NONE', #147, 9.729581706493240389 ) ;
#438 = CARTESIAN_POINT ( 'NONE',  ( 41.00000000000000711, -41.96000609955368787, 133.2299115156848188 ) ) ;
#439 =( NAMED_UNIT ( * ) SI_UNIT ( $, .STERADIAN. ) SOLID_ANGLE_UNIT ( ) );
#440 = CARTESIAN_POINT ( 'NONE',  ( 37.50000000000000711, -40.03000992601279506, 128.3381828643851463 ) ) ;
#441 = DIRECTION ( 'NONE',  ( 1.000000000000000000, 0.000000000000000000, 0.000000000000000000 ) ) ;
#442 = EDGE_LOOP ( 'NONE', ( #337, #774, #366, #355 ) ) ;
#443 = CARTESIAN_POINT ( 'NONE',  ( 36.45138795112228536, -34.09851751771179096, 119.4560026568053246 ) ) ;
#444 = CARTESIAN_POINT ( 'NONE',  ( 41.00000000000000711, -30.64379081472328892, 138.4232398544762646 ) ) ;
#445 = ORIENTED_EDGE ( 'NONE', *, *, #501, .T. ) ;
#446 = ORIENTED_EDGE ( 'NONE', *, *, #314, .F. ) ;
#447 = CARTESIAN_POINT ( 'NONE',  ( 38.69994152883318606, -34.53495623933119418, 119.5549681787044562 ) ) ;
#448 = AXIS2_PLACEMENT_3D ( 'NONE', #77, #890, #270 ) ;
#449 = CARTESIAN_POINT ( 'NONE',  ( 19.00000000000000355, -32.50000000000000000, 127.5000000000000000 ) ) ;
#450 = EDGE_LOOP ( 'NONE', ( #345, #599 ) ) ;
#451 = CARTESIAN_POINT ( 'NONE',  ( 38.54859783114520155, -34.09871071709242329, 119.4560561390492097 ) ) ;
#452 = DIRECTION ( 'NONE',  ( 0.000000000000000000, 0.2666445879059216040, 0.9637949282604061363 ) ) ;
#453 = ORIENTED_EDGE ( 'NONE', *, *, #706, .F. ) ;
#454 = DIRECTION ( 'NONE',  ( -0.000000000000000000, -0.2666445879059215485, -0.9637949282604060253 ) ) ;
#455 = DIRECTION ( 'NONE',  ( -1.000000000000000000, -0.000000000000000000, 0.000000000000000000 ) ) ;
#456 = ORIENTED_EDGE ( 'NONE', *, *, #579, .F. ) ;
#457 = EDGE_CURVE ( 'NONE', #390, #586, #354, .T. ) ;
#458 = ADVANCED_FACE ( 'NONE', ( #613 ), #251, .F. ) ;
#459 = CARTESIAN_POINT ( 'NONE',  ( 36.30005847110870576, -40.44503180605279624, 129.5349562988434968 ) ) ;
#460 = CARTESIAN_POINT ( 'NONE',  ( 34.00000000000000000, -39.70097758565570700, 135.8946126659235745 ) ) ;
#461 = CARTESIAN_POINT ( 'NONE',  ( 34.00000000000000000, -34.66853858858591764, 128.0999503227883167 ) ) ;
#462 = ORIENTED_EDGE ( 'NONE', *, *, #314, .T. ) ;
#463 = DIRECTION ( 'NONE',  ( 1.000000000000000000, 0.000000000000000000, 0.000000000000000000 ) ) ;
#464 = CARTESIAN_POINT ( 'NONE',  ( 41.00000000000000711, -32.50000000000000000, 127.5000000000000000 ) ) ;
#465 = DIRECTION ( 'NONE',  ( 1.000000000000000000, 0.000000000000000000, 0.000000000000000000 ) ) ;
#466 = ORIENTED_EDGE ( 'NONE', *, *, #883, .T. ) ;
#467 = CARTESIAN_POINT ( 'NONE',  ( 16.00000000000000000, -34.66853858858591764, 128.0999503227883167 ) ) ;
#468 = DIRECTION ( 'NONE',  ( 0.000000000000000000, 0.9637949282604051371, -0.2666445879059250457 ) ) ;
#469 = CARTESIAN_POINT ( 'NONE',  ( 31.00000000000000355, -41.87732150281341603, 130.0943403046248648 ) ) ;
#470 = ORIENTED_EDGE ( 'NONE', *, *, #883, .F. ) ;
#471 = LINE ( 'NONE', #190, #663 ) ;
#472 = DIRECTION ( 'NONE',  ( 0.000000000000000000, -0.9637949282604066914, 0.2666445879059194946 ) ) ;
#473 = EDGE_CURVE ( 'NONE', #508, #489, #407, .T. ) ;
#474 = CARTESIAN_POINT ( 'NONE',  ( 16.00000000000000000, -49.84830870868731978, 132.2996025823065622 ) ) ;
#475 = CIRCLE ( 'NONE', #708, 1.200000000000017497 ) ;
#476 = ORIENTED_EDGE ( 'NONE', *, *, #801, .F. ) ;
#477 = CIRCLE ( 'NONE', #619, 2.249999999999996891 ) ;
#478 = CARTESIAN_POINT ( 'NONE',  ( 19.00000000000000355, -32.50000000000000000, 127.5000000000000000 ) ) ;
#479 = DIRECTION ( 'NONE',  ( -1.000000000000000000, -0.000000000000000000, 0.000000000000000000 ) ) ;
#480 = VERTEX_POINT ( 'NONE', #533 ) ;
#481 = DIRECTION ( 'NONE',  ( 1.000000000000000000, 0.000000000000000000, 0.000000000000000000 ) ) ;
#482 = FACE_OUTER_BOUND ( 'NONE', #727, .T. ) ;
#483 = CARTESIAN_POINT ( 'NONE',  ( 34.00000000000001421, -31.14902382274449977, 116.4463303855547878 ) ) ;
#484 = ORIENTED_EDGE ( 'NONE', *, *, #618, .F. ) ;
#485 = ADVANCED_FACE ( 'NONE', ( #180 ), #676, .T. ) ;
#486 = ADVANCED_FACE ( 'NONE', ( #747, #402 ), #194, .T. ) ;
#487 = LINE ( 'NONE', #279, #66 ) ;
#488 = CARTESIAN_POINT ( 'NONE',  ( 30.99999999999999289, -36.68864089356369362, 148.8489833102516968 ) ) ;
#489 = VERTEX_POINT ( 'NONE', #265 ) ;
#490 = CARTESIAN_POINT ( 'NONE',  ( 16.00000000000000000, -32.50000000000000000, 127.5000000000000000 ) ) ;
#491 = ADVANCED_FACE ( 'NONE', ( #541 ), #822, .T. ) ;
#492 = DIRECTION ( 'NONE',  ( 1.000000000000000000, 0.000000000000000000, 0.000000000000000000 ) ) ;
#493 = AXIS2_PLACEMENT_3D ( 'NONE', #702, #89, #578 ) ;
#494 = CARTESIAN_POINT ( 'NONE',  ( 41.00000000000000711, -21.66391235552838879, 125.1888771059515904 ) ) ;
#495 = VERTEX_POINT ( 'NONE', #414 ) ;
#496 = CARTESIAN_POINT ( 'NONE',  ( 41.00000000000000711, -21.84042904759057890, 124.5509111217887721 ) ) ;
#497 = CARTESIAN_POINT ( 'NONE',  ( 34.00000000000000000, -22.91175225380862202, 150.2965678372349316 ) ) ;
#498 = CARTESIAN_POINT ( 'NONE',  ( 41.00000000000001421, -38.82062117613282481, 136.5820655891040758 ) ) ;
#499 = DIRECTION ( 'NONE',  ( 0.000000000000000000, -0.2666445879059167190, -0.9637949282604074686 ) ) ;
#500 = CARTESIAN_POINT ( 'NONE',  ( 41.00000000000000711, -36.49846374363283985, 137.8332199513364742 ) ) ;
#501 = EDGE_CURVE ( 'NONE', #815, #832, #320, .T. ) ;
#502 = EDGE_LOOP ( 'NONE', ( #719, #803, #277, #4, #531 ) ) ;
#503 = CARTESIAN_POINT ( 'NONE',  ( 36.76131618636619436, -33.74788148979864388, 119.3947456701214804 ) ) ;
#504 = STYLED_ITEM ( 'NONE', ( #511 ), #38 ) ;
#505 = AXIS2_PLACEMENT_3D ( 'NONE', #692, #290, #545 ) ;
#506 = CARTESIAN_POINT ( 'NONE',  ( 34.00000000000000000, -32.50000000000000000, 127.5000000000000000 ) ) ;
#507 = CARTESIAN_POINT ( 'NONE',  ( 41.00000000000000711, -32.50000000000000000, 127.5000000000000000 ) ) ;
#508 = VERTEX_POINT ( 'NONE', #62 ) ;
#509 = CARTESIAN_POINT ( 'NONE',  ( 34.00000000000000000, -38.22991107191535320, 118.0399937776726063 ) ) ;
#510 = CARTESIAN_POINT ( 'NONE',  ( 41.00000000000000711, -23.14937844249223176, 133.4435976062448788 ) ) ;
#511 = PRESENTATION_STYLE_ASSIGNMENT (( #83 ) ) ;
#512 = CARTESIAN_POINT ( 'NONE',  ( 34.00000000000000000, -21.84042809343990399, 124.5509108577605133 ) ) ;
#513 = EDGE_CURVE ( 'NONE', #755, #658, #26, .T. ) ;
#514 = DIRECTION ( 'NONE',  ( 0.000000000000000000, -0.2666445879059167190, -0.9637949282604074686 ) ) ;
#515 = CARTESIAN_POINT ( 'NONE',  ( 38.54846803155834323, -35.26354997137915603, 119.7783417708266427 ) ) ;
#516 = EDGE_CURVE ( 'NONE', #365, #755, #421, .T. ) ;
#517 = AXIS2_PLACEMENT_3D ( 'NONE', #191, #597, #392 ) ;
#518 = CARTESIAN_POINT ( 'NONE',  ( 38.70010464289330088, -40.44521691812008157, 129.5343767268561521 ) ) ;
#519 = ORIENTED_EDGE ( 'NONE', *, *, #325, .T. ) ;
#520 = CARTESIAN_POINT ( 'NONE',  ( 36.89495647206951645, -33.65854124980933904, 119.3820292601362638 ) ) ;
#521 = CARTESIAN_POINT ( 'NONE',  ( 37.50000000000001421, -33.50639223918932430, 119.3619919721777336 ) ) ;
#522 = ORIENTED_EDGE ( 'NONE', *, *, #683, .F. ) ;
#523 = DIRECTION ( 'NONE',  ( 0.000000000000000000, -0.9637949282604073575, 0.2666445879059167190 ) ) ;
#524 = CARTESIAN_POINT ( 'NONE',  ( 34.00000000000000711, -38.80914911710666360, 136.6596315021517967 ) ) ;
#525 = DIRECTION ( 'NONE',  ( 0.000000000000000000, -0.9637949282604064694, 0.2666445879059198831 ) ) ;
#526 = ORIENTED_EDGE ( 'NONE', *, *, #169, .T. ) ;
#527 = CARTESIAN_POINT ( 'NONE',  ( 37.65674405965732063, -35.81950007182532403, 120.0019389657624345 ) ) ;
#528 = FACE_OUTER_BOUND ( 'NONE', #889, .T. ) ;
#529 = DIRECTION ( 'NONE',  ( 0.000000000000000000, 0.000000000000000000, -1.000000000000000000 ) ) ;
#530 = CIRCLE ( 'NONE', #316, 8.199999999999999289 ) ;
#531 = ORIENTED_EDGE ( 'NONE', *, *, #457, .T. ) ;
#532 = CARTESIAN_POINT ( 'NONE',  ( 19.00000000000000355, -44.54743660325507904, 130.8330573488240134 ) ) ;
#533 = CARTESIAN_POINT ( 'NONE',  ( 37.50000000000000711, -42.43996641916457691, 131.4950804229553967 ) ) ;
#534 = DIRECTION ( 'NONE',  ( -1.000000000000000000, -0.000000000000000000, 0.000000000000000000 ) ) ;
#535 = ADVANCED_FACE ( 'NONE', ( #346 ), #216, .T. ) ;
#536 = EDGE_LOOP ( 'NONE', ( #476, #281 ) ) ;
#537 = CARTESIAN_POINT ( 'NONE',  ( 41.00000000000000711, -27.81435248066373234, 117.4638874357999754 ) ) ;
#538 = DIRECTION ( 'NONE',  ( 0.000000000000000000, 0.9637949282604051371, -0.2666445879059250457 ) ) ;
#539 = ORIENTED_EDGE ( 'NONE', *, *, #182, .F. ) ;
#540 = CARTESIAN_POINT ( 'NONE',  ( 37.50000000000000711, -40.63800802025639314, 128.5063923003693844 ) ) ;
#541 = FACE_OUTER_BOUND ( 'NONE', #606, .T. ) ;
#542 = VECTOR ( 'NONE', #734, 1000.000000000000227 ) ;
#543 = DIRECTION ( 'NONE',  ( 0.000000000000000000, 0.000000000000000000, -1.000000000000000000 ) ) ;
#544 = ORIENTED_EDGE ( 'NONE', *, *, #602, .T. ) ;
#545 = DIRECTION ( 'NONE',  ( 1.000000000000000000, 0.000000000000000000, 0.000000000000000000 ) ) ;
#546 = DIRECTION ( 'NONE',  ( 0.000000000000000000, -0.9637949282604065804, 0.2666445879059203272 ) ) ;
#547 = CYLINDRICAL_SURFACE ( 'NONE', #195, 1.200000000000006173 ) ;
#548 = ORIENTED_EDGE ( 'NONE', *, *, #32, .T. ) ;
#549 = DIRECTION ( 'NONE',  ( 0.000000000000000000, -0.9637949282604073575, 0.2666445879059167190 ) ) ;
#550 = FACE_OUTER_BOUND ( 'NONE', #91, .T. ) ;
#551 = EDGE_LOOP ( 'NONE', ( #238, #842, #519, #177, #435 ) ) ;
#552 = DIRECTION ( 'NONE',  ( -1.000000000000000000, -0.000000000000000000, -0.000000000000000000 ) ) ;
#553 = CARTESIAN_POINT ( 'NONE',  ( 34.00000000000000000, -32.50000000000000000, 127.5000000000000000 ) ) ;
#554 = CARTESIAN_POINT ( 'NONE',  ( 34.00000000000000000, -41.96000688694119418, 133.2299117335242897 ) ) ;
#555 = ORIENTED_EDGE ( 'NONE', *, *, #135, .T. ) ;
#556 =( NAMED_UNIT ( * ) SI_UNIT ( $, .STERADIAN. ) SOLID_ANGLE_UNIT ( ) );
#557 = ADVANCED_BREP_SHAPE_REPRESENTATION ( 'project 2 wheels edited', ( #38, #505 ), #693 ) ;
#558 = PRESENTATION_LAYER_ASSIGNMENT (  '', '', ( #504 ) ) ;
#559 = DIRECTION ( 'NONE',  ( -1.000000000000000000, -0.000000000000000000, 0.000000000000000000 ) ) ;
#560 = CIRCLE ( 'NONE', #286, 1.200000000000017497 ) ;
#561 = CARTESIAN_POINT ( 'NONE',  ( 41.00000000000000711, -29.35445868044698159, 138.1238411974523501 ) ) ;
#562 = DIRECTION ( 'NONE',  ( 1.000000000000000000, 0.000000000000000000, 0.000000000000000000 ) ) ;
#563 = VERTEX_POINT ( 'NONE', #361 ) ;
#564 = CARTESIAN_POINT ( 'NONE',  ( 31.00000000000000355, -23.12267849718658397, 124.9056596953751352 ) ) ;
#565 = ADVANCED_FACE ( 'NONE', ( #482 ), #140, .T. ) ;
#566 = CARTESIAN_POINT ( 'NONE',  ( 41.00000000000000711, -31.29825675559800402, 138.5143714333033529 ) ) ;
#567 = CARTESIAN_POINT ( 'NONE',  ( 41.00000000000000711, -21.84042809343990399, 124.5509108577605275 ) ) ;
#568 = ORIENTED_EDGE ( 'NONE', *, *, #223, .T. ) ;
#569 = LINE ( 'NONE', #440, #228 ) ;
#570 = CARTESIAN_POINT ( 'NONE',  ( 37.50000000000001421, -34.18197253635582911, 116.9200865536006120 ) ) ;
#571 = FACE_OUTER_BOUND ( 'NONE', #322, .T. ) ;
#572 = ORIENTED_EDGE ( 'NONE', *, *, #115, .T. ) ;
#573 = FACE_OUTER_BOUND ( 'NONE', #27, .T. ) ;
#574 = VECTOR ( 'NONE', #479, 1000.000000000000000 ) ;
#575 = EDGE_CURVE ( 'NONE', #480, #903, #560, .T. ) ;
#576 = AXIS2_PLACEMENT_3D ( 'NONE', #417, #703, #630 ) ;
#577 = DIRECTION ( 'NONE',  ( 1.000000000000000000, 0.000000000000000000, 0.000000000000000000 ) ) ;
#578 = DIRECTION ( 'NONE',  ( 0.000000000000000000, -0.9637949282604064694, 0.2666445879059198831 ) ) ;
#579 = EDGE_CURVE ( 'NONE', #134, #350, #809, .T. ) ;
#580 = EDGE_LOOP ( 'NONE', ( #555, #733 ) ) ;
#581 = CARTESIAN_POINT ( 'NONE',  ( 38.45922853124945107, -33.96674840878797141, 119.4314804660864127 ) ) ;
#582 = FACE_OUTER_BOUND ( 'NONE', #154, .T. ) ;
#583 = CARTESIAN_POINT ( 'NONE',  ( 38.66891377334804503, -34.98758390250860373, 119.6850693809573869 ) ) ;
#584 = CARTESIAN_POINT ( 'NONE',  ( 37.50000000000000711, -39.99806100928216779, 130.8195001281943917 ) ) ;
#585 = EDGE_CURVE ( 'NONE', #790, #193, #711, .T. ) ;
#586 = VERTEX_POINT ( 'NONE', #689 ) ;
#587 = DIRECTION ( 'NONE',  ( 0.000000000000000000, -0.9637949282604064694, 0.2666445879059202717 ) ) ;
#588 = CIRCLE ( 'NONE', #892, 1.200000000000006173 ) ;
#589 = AXIS2_PLACEMENT_3D ( 'NONE', #206, #58, #694 ) ;
#590 = CARTESIAN_POINT ( 'NONE',  ( 38.23868381371924841, -40.60525432052619266, 128.7478815505417060 ) ) ;
#591 = ORIENTED_EDGE ( 'NONE', *, *, #215, .T. ) ;
#592 = CARTESIAN_POINT ( 'NONE',  ( 37.18581212544457770, -40.01100466719836390, 130.7906684881449451 ) ) ;
#593 = CARTESIAN_POINT ( 'NONE',  ( 34.00000000000000711, -25.57852961267279213, 136.2061736437111676 ) ) ;
#594 = CARTESIAN_POINT ( 'NONE',  ( 19.00000000000000355, -32.50000000000000000, 127.5000000000000000 ) ) ;
#595 = ORIENTED_EDGE ( 'NONE', *, *, #343, .T. ) ;
#596 = DIRECTION ( 'NONE',  ( -0.000000000000000000, 0.9637949282604063583, -0.2666445879059208268 ) ) ;
#597 = DIRECTION ( 'NONE',  ( 1.000000000000000000, -0.000000000000000000, -0.000000000000000000 ) ) ;
#598 = CARTESIAN_POINT ( 'NONE',  ( 34.00000000000000000, -39.70097758565570700, 135.8946126659235745 ) ) ;
#599 = ORIENTED_EDGE ( 'NONE', *, *, #868, .F. ) ;
#600 = LINE ( 'NONE', #264, #542 ) ;
#601 = CARTESIAN_POINT ( 'NONE',  ( 34.00000000000000711, -37.79454043279439901, 137.2812092014537768 ) ) ;
#602 = EDGE_CURVE ( 'NONE', #381, #790, #487, .T. ) ;
#603 = VECTOR ( 'NONE', #860, 1000.000000000000000 ) ;
#604 = CARTESIAN_POINT ( 'NONE',  ( 16.00000000000000000, -34.66853858858591764, 128.0999503227883167 ) ) ;
#605 = VECTOR ( 'NONE', #224, 1000.000000000000000 ) ;
#606 = EDGE_LOOP ( 'NONE', ( #80, #819, #595, #769 ) ) ;
#607 = EDGE_CURVE ( 'NONE', #193, #790, #303, .T. ) ;
#608 = CARTESIAN_POINT ( 'NONE',  ( 36.33108622676551391, -40.31493060041150756, 129.9875839610394337 ) ) ;
#609 = CARTESIAN_POINT ( 'NONE',  ( 41.00000000000000711, -41.09263071554016733, 120.4727556909517432 ) ) ;
#610 = DIRECTION ( 'NONE',  ( 0.000000000000000000, 0.2666445879059222146, 0.9637949282604059142 ) ) ;
#611 = ORIENTED_EDGE ( 'NONE', *, *, #635, .T. ) ;
#612 = CARTESIAN_POINT ( 'NONE',  ( 16.00000000000000000, -32.50000000000000000, 127.5000000000000000 ) ) ;
#613 = FACE_OUTER_BOUND ( 'NONE', #60, .T. ) ;
#614 = CARTESIAN_POINT ( 'NONE',  ( 34.00000000000000000, -22.91175225380862202, 150.2965678372349316 ) ) ;
#615 = ORIENTED_EDGE ( 'NONE', *, *, #683, .T. ) ;
#616 = CARTESIAN_POINT ( 'NONE',  ( 34.00000000000000000, -39.70097758565570700, 135.8946126659235745 ) ) ;
#617 = ADVANCED_FACE ( 'NONE', ( #834 ), #830, .F. ) ;
#618 = EDGE_CURVE ( 'NONE', #811, #381, #334, .T. ) ;
#619 = AXIS2_PLACEMENT_3D ( 'NONE', #174, #463, #523 ) ;
#620 = FACE_OUTER_BOUND ( 'NONE', #87, .T. ) ;
#621 = ORIENTED_EDGE ( 'NONE', *, *, #713, .T. ) ;
#622 = AXIS2_PLACEMENT_3D ( 'NONE', #838, #904, #767 ) ;
#623 = CARTESIAN_POINT ( 'NONE',  ( 37.50000000000000711, -42.75993992465168247, 130.3385265090429073 ) ) ;
#624 = DIRECTION ( 'NONE',  ( 0.000000000000000000, -0.9637949282604065804, 0.2666445879059198831 ) ) ;
#625 = ORIENTED_EDGE ( 'NONE', *, *, #102, .F. ) ;
#626 = CARTESIAN_POINT ( 'NONE',  ( 41.00000000000001421, -22.00006421087734054, 123.9739635141507250 ) ) ;
#627 = CARTESIAN_POINT ( 'NONE',  ( 34.00000000000000000, -32.50000000000000000, 119.2999999999999972 ) ) ;
#628 = CARTESIAN_POINT ( 'NONE',  ( 19.00000000000000355, -49.84830870868731978, 132.2996025823065622 ) ) ;
#629 = ORIENTED_EDGE ( 'NONE', *, *, #607, .T. ) ;
#630 = DIRECTION ( 'NONE',  ( 0.000000000000000000, -0.9637949282604063583, 0.2666445879059208823 ) ) ;
#631 = DIRECTION ( 'NONE',  ( 1.000000000000000000, 0.000000000000000000, 0.000000000000000000 ) ) ;
#632 = CARTESIAN_POINT ( 'NONE',  ( 34.00000000000000000, -39.70097758565570700, 135.8946126659235745 ) ) ;
#633 = VERTEX_POINT ( 'NONE', #627 ) ;
#634 = AXIS2_PLACEMENT_3D ( 'NONE', #507, #878, #315 ) ;
#635 = EDGE_CURVE ( 'NONE', #815, #400, #101, .T. ) ;
#636 = CARTESIAN_POINT ( 'NONE',  ( 34.00000000000000000, -42.08824774619138509, 104.7034321627650257 ) ) ;
#637 = AXIS2_PLACEMENT_3D ( 'NONE', #478, #756, #125 ) ;
#638 = UNCERTAINTY_MEASURE_WITH_UNIT (LENGTH_MEASURE( 1.000000000000000082E-05 ), #433, 'distance_accuracy_value', 'NONE');
#639 = CARTESIAN_POINT ( 'NONE',  ( 41.00000000000000000, -32.62022035745926729, 138.5791771118676934 ) ) ;
#640 = ORIENTED_EDGE ( 'NONE', *, *, #295, .T. ) ;
#641 = ORIENTED_EDGE ( 'NONE', *, *, #364, .F. ) ;
#642 = DIRECTION ( 'NONE',  ( 0.000000000000000000, -0.9637949282604065804, 0.2666445879059198831 ) ) ;
#643 = CARTESIAN_POINT ( 'NONE',  ( 41.00000000000000711, -21.42548403514945576, 127.1568505398144282 ) ) ;
#644 = CARTESIAN_POINT ( 'NONE',  ( 19.00000000000000355, -32.50000000000000000, 127.5000000000000000 ) ) ;
#645 = DIRECTION ( 'NONE',  ( 0.000000000000000000, -0.9637949282604065804, 0.2666445879059198831 ) ) ;
#646 = ADVANCED_FACE ( 'NONE', ( #342 ), #124, .T. ) ;
#647 = CARTESIAN_POINT ( 'NONE',  ( 34.00000000000000000, -32.50000000000000000, 127.5000000000000000 ) ) ;
#648 = ORIENTED_EDGE ( 'NONE', *, *, #575, .T. ) ;
#649 = ORIENTED_EDGE ( 'NONE', *, *, #516, .T. ) ;
#650 = CARTESIAN_POINT ( 'NONE',  ( 37.50000000000001421, -33.50639223918932430, 119.3619919721777336 ) ) ;
#651 = CIRCLE ( 'NONE', #179, 17.99999999999999645 ) ;
#652 =( NAMED_UNIT ( * ) PLANE_ANGLE_UNIT ( ) SI_UNIT ( $, .RADIAN. ) );
#653 = CARTESIAN_POINT ( 'NONE',  ( 37.34329428396634398, -35.81950007182529561, 120.0019389657624203 ) ) ;
#654 = DIRECTION ( 'NONE',  ( 0.000000000000000000, -0.9637949282604063583, 0.2666445879059208268 ) ) ;
#655 = CARTESIAN_POINT ( 'NONE',  ( 34.00000000000001421, -24.47092737504097570, 119.8157350361237548 ) ) ;
#656 = PRODUCT_RELATED_PRODUCT_CATEGORY ( 'part', '', ( #383 ) ) ;
#657 = CARTESIAN_POINT ( 'NONE',  ( 37.65670571603709504, -39.99806100928216068, 130.8195001281943917 ) ) ;
#658 = VERTEX_POINT ( 'NONE', #509 ) ;
#659 = DIRECTION ( 'NONE',  ( -0.9743700647852350238, 0.2168066852834486247, -0.05998198118452216510 ) ) ;
#660 = ADVANCED_FACE ( 'NONE', ( #9, #573 ), #785, .T. ) ;
#661 = AXIS2_PLACEMENT_3D ( 'NONE', #698, #559, #128 ) ;
#662 = CARTESIAN_POINT ( 'NONE',  ( 34.00000000000001421, -21.52712219619293066, 125.6833645000119901 ) ) ;
#663 = VECTOR ( 'NONE', #659, 1000.000000000000227 ) ;
#664 = CYLINDRICAL_SURFACE ( 'NONE', #161, 2.249999999999996891 ) ;
#665 = ORIENTED_EDGE ( 'NONE', *, *, #898, .F. ) ;
#666 = CARTESIAN_POINT ( 'NONE',  ( 31.00000000000000355, -41.87732150281341603, 130.0943403046248648 ) ) ;
#667 = CARTESIAN_POINT ( 'NONE',  ( 41.00000000000000711, -42.94484495907815358, 123.7415687774662132 ) ) ;
#668 = DIRECTION ( 'NONE',  ( 0.000000000000000000, 0.9637949282604066914, -0.2666445879059194946 ) ) ;
#669 = EDGE_LOOP ( 'NONE', ( #213, #874 ) ) ;
#670 = CARTESIAN_POINT ( 'NONE',  ( 41.00000000000001421, -29.49414322472973637, 116.8396250262744331 ) ) ;
#671 = CARTESIAN_POINT ( 'NONE',  ( 41.00000000000000711, -42.58873034679408676, 122.8705378937131201 ) ) ;
#672 = EDGE_CURVE ( 'NONE', #730, #167, #197, .T. ) ;
#673 = DIRECTION ( 'NONE',  ( 0.000000000000000000, -0.9637949282604073575, 0.2666445879059167190 ) ) ;
#674 = EDGE_LOOP ( 'NONE', ( #591, #526, #649, #829 ) ) ;
#675 = CARTESIAN_POINT ( 'NONE',  ( 36.89482076812659272, -40.61798363067487116, 128.6584659102018975 ) ) ;
#676 = CYLINDRICAL_SURFACE ( 'NONE', #783, 11.06000000000000050 ) ;
#677 = VECTOR ( 'NONE', #869, 1000.000000000000000 ) ;
#678 = LINE ( 'NONE', #273, #752 ) ;
#679 = AXIS2_PLACEMENT_3D ( 'NONE', #715, #233, #788 ) ;
#680 = ORIENTED_EDGE ( 'NONE', *, *, #282, .T. ) ;
#681 = CARTESIAN_POINT ( 'NONE',  ( 10.80689757708123899, -32.50000000000000000, 135.7000000000000171 ) ) ;
#682 = CARTESIAN_POINT ( 'NONE',  ( 31.00000000000000355, -23.12267849718658397, 124.9056596953751352 ) ) ;
#683 = EDGE_CURVE ( 'NONE', #895, #903, #569, .T. ) ;
#684 = DIRECTION ( 'NONE',  ( -1.000000000000000000, -0.000000000000000000, 0.000000000000000000 ) ) ;
#685 = EDGE_LOOP ( 'NONE', ( #884, #621, #648, #522 ) ) ;
#686 = DIRECTION ( 'NONE',  ( 0.000000000000000000, -0.9637949282604059142, 0.2666445879059221591 ) ) ;
#687 = PLANE ( 'NONE',  #690 ) ;
#688 = EDGE_LOOP ( 'NONE', ( #420, #305, #798, #304, #470, #641, #680, #611 ) ) ;
#689 = CARTESIAN_POINT ( 'NONE',  ( 41.00000000000000711, -38.22991107191535320, 118.0399937776726063 ) ) ;
#690 = AXIS2_PLACEMENT_3D ( 'NONE', #56, #893, #814 ) ;
#691 = ORIENTED_EDGE ( 'NONE', *, *, #63, .F. ) ;
#692 = CARTESIAN_POINT ( 'NONE',  ( 0.000000000000000000, 0.000000000000000000, 0.000000000000000000 ) ) ;
#693 =( GEOMETRIC_REPRESENTATION_CONTEXT ( 3 ) GLOBAL_UNCERTAINTY_ASSIGNED_CONTEXT ( ( #368 ) ) GLOBAL_UNIT_ASSIGNED_CONTEXT ( ( #123, #356, #556 ) ) REPRESENTATION_CONTEXT ( 'NONE', 'WORKASPACE' ) );
#694 = DIRECTION ( 'NONE',  ( 0.000000000000000000, -0.2666445879059167190, -0.9637949282604074686 ) ) ;
#695 = CARTESIAN_POINT ( 'NONE',  ( 34.00000000000000000, -25.29902241434428944, 119.1053873340764540 ) ) ;
#696 = ORIENTED_EDGE ( 'NONE', *, *, #307, .T. ) ;
#697 = PRODUCT_CONTEXT ( 'NONE', #699, 'mechanical' ) ;
#698 = CARTESIAN_POINT ( 'NONE',  ( 41.00000000000000711, -32.50000000000000000, 127.5000000000000000 ) ) ;
#699 = APPLICATION_CONTEXT ( 'automotive_design' ) ;
#700 = CARTESIAN_POINT ( 'NONE',  ( 41.00000000000000711, -26.93029795425486483, 137.0781622414839944 ) ) ;
#701 = ADVANCED_FACE ( 'NONE', ( #720, #225 ), #851, .T. ) ;
#702 = CARTESIAN_POINT ( 'NONE',  ( 19.00000000000000355, -32.50000000000000000, 127.5000000000000000 ) ) ;
#703 = DIRECTION ( 'NONE',  ( 1.000000000000000000, 0.000000000000000000, 0.000000000000000000 ) ) ;
#704 = CARTESIAN_POINT ( 'NONE',  ( 34.00000000000000000, -25.29902241434428944, 119.1053873340764540 ) ) ;
#705 = CARTESIAN_POINT ( 'NONE',  ( 40.99999999999999289, -40.34685973420926075, 135.3217851288333407 ) ) ;
#706 = EDGE_CURVE ( 'NONE', #350, #134, #120, .T. ) ;
#707 = DIRECTION ( 'NONE',  ( -1.000000000000000000, -0.000000000000000000, 0.000000000000000000 ) ) ;
#708 = AXIS2_PLACEMENT_3D ( 'NONE', #352, #831, #748 ) ;
#709 = VERTEX_POINT ( 'NONE', #236 ) ;
#710 = DIRECTION ( 'NONE',  ( 0.000000000000000000, -0.9637949282604064694, 0.2666445879059202717 ) ) ;
#711 = CIRCLE ( 'NONE', #388, 2.249999999999996891 ) ;
#712 = CARTESIAN_POINT ( 'NONE',  ( 41.00000000000000711, -35.23829364240435780, 138.2359624025322091 ) ) ;
#713 = EDGE_CURVE ( 'NONE', #709, #480, #378, .T. ) ;
#714 = ORIENTED_EDGE ( 'NONE', *, *, #516, .F. ) ;
#715 = CARTESIAN_POINT ( 'NONE',  ( 41.00000000000000711, -32.50000000000000000, 127.5000000000000000 ) ) ;
#716 = EDGE_CURVE ( 'NONE', #495, #183, #410, .T. ) ;
#717 = CARTESIAN_POINT ( 'NONE',  ( 41.00000000000000000, -21.42482094715686003, 127.8176695836468184 ) ) ;
#718 = EDGE_LOOP ( 'NONE', ( #108, #117 ) ) ;
#719 = ORIENTED_EDGE ( 'NONE', *, *, #843, .T. ) ;
#720 = FACE_BOUND ( 'NONE', #450, .T. ) ;
#721 = CARTESIAN_POINT ( 'NONE',  ( 34.00000000000001421, -21.39584680717294063, 126.8659702630578465 ) ) ;
#722 = B_SPLINE_CURVE_WITH_KNOTS ( 'NONE', 3,
 ( #234, #662, #721, #78, #99, #31, #881, #247, #593, #886, #817, #335, #114, #261, #175, #601, #524, #460 ),
 .UNSPECIFIED., .F., .F.,
 ( 4, 2, 2, 2, 2, 2, 2, 2, 4 ),
 ( 0.000000000000000000, 0.1250000000000000000, 0.2500000000000000000, 0.3750000000000000000, 0.5000000000000000000, 0.6250000000000000000, 0.7500000000000000000, 0.8750000000000000000, 1.000000000000000000 ),
 .UNSPECIFIED. ) ;
#723 = EDGE_LOOP ( 'NONE', ( #189, #173 ) ) ;
#724 = CARTESIAN_POINT ( 'NONE',  ( 37.34123537126155412, -33.50639223918932430, 119.3619919721777478 ) ) ;
#725 = CONICAL_SURFACE ( 'NONE', #493, 12.49999999999999822, 0.2268928027592633789 ) ;
#726 = FACE_OUTER_BOUND ( 'NONE', #232, .T. ) ;
#727 = EDGE_LOOP ( 'NONE', ( #245, #625, #19, #841 ) ) ;
#728 = DIRECTION ( 'NONE',  ( 1.000000000000000000, 0.000000000000000000, 0.000000000000000000 ) ) ;
#729 = CARTESIAN_POINT ( 'NONE',  ( 38.66851611030129732, -40.31448263884497152, 129.9889856844090161 ) ) ;
#730 = VERTEX_POINT ( 'NONE', #856 ) ;
#731 = CARTESIAN_POINT ( 'NONE',  ( 36.54077146861118308, -40.56851952293160934, 128.9667484691971140 ) ) ;
#732 = CARTESIAN_POINT ( 'NONE',  ( 38.23729007749989961, -40.09366745392615883, 130.5965407125335105 ) ) ;
#733 = ORIENTED_EDGE ( 'NONE', *, *, #393, .T. ) ;
#734 = DIRECTION ( 'NONE',  ( -0.000000000000000000, -0.2666445879059215485, -0.9637949282604060253 ) ) ;
#735 = CIRCLE ( 'NONE', #211, 8.199999999999999289 ) ;
#736 = CARTESIAN_POINT ( 'NONE',  ( 41.00000000000000711, -43.55987368836940732, 127.4471417242616411 ) ) ;
#737 = CIRCLE ( 'NONE', #347, 11.06000000000000405 ) ;
#738 = CARTESIAN_POINT ( 'NONE',  ( 41.00000000000000711, -38.22991129382408815, 118.0399938390661134 ) ) ;
#739 = EDGE_LOOP ( 'NONE', ( #763, #484, #57, #629 ) ) ;
#740 = DIRECTION ( 'NONE',  ( 1.000000000000000000, -0.000000000000000000, -0.000000000000000000 ) ) ;
#741 = PLANE ( 'NONE',  #64 ) ;
#742 = EDGE_CURVE ( 'NONE', #167, #730, #24, .T. ) ;
#743 = EDGE_CURVE ( 'NONE', #400, #426, #471, .T. ) ;
#744 = CYLINDRICAL_SURFACE ( 'NONE', #823, 8.199999999999999289 ) ;
#745 = ORIENTED_EDGE ( 'NONE', *, *, #843, .F. ) ;
#746 = LINE ( 'NONE', #113, #162 ) ;
#747 = FACE_BOUND ( 'NONE', #758, .T. ) ;
#748 = DIRECTION ( 'NONE',  ( 0.000000000000000000, -0.2666445879059167190, -0.9637949282604074686 ) ) ;
#749 = ORIENTED_EDGE ( 'NONE', *, *, #713, .F. ) ;
#750 = DIRECTION ( 'NONE',  ( -1.000000000000000000, -0.000000000000000000, 0.000000000000000000 ) ) ;
#751 = DIRECTION ( 'NONE',  ( 1.000000000000000000, 0.000000000000000000, 0.000000000000000000 ) ) ;
#752 = VECTOR ( 'NONE', #610, 1000.000000000000000 ) ;
#753 = FACE_BOUND ( 'NONE', #837, .T. ) ;
#754 = VECTOR ( 'NONE', #587, 1000.000000000000000 ) ;
#755 = VERTEX_POINT ( 'NONE', #401 ) ;
#756 = DIRECTION ( 'NONE',  ( -1.000000000000000000, -0.000000000000000000, 0.000000000000000000 ) ) ;
#757 = FACE_OUTER_BOUND ( 'NONE', #45, .T. ) ;
#758 = EDGE_LOOP ( 'NONE', ( #453, #456 ) ) ;
#759 = EDGE_CURVE ( 'NONE', #508, #103, #746, .T. ) ;
#760 = DIRECTION ( 'NONE',  ( 1.000000000000000000, 0.000000000000000000, 0.000000000000000000 ) ) ;
#761 = DIRECTION ( 'NONE',  ( 1.000000000000000000, 0.000000000000000000, 0.000000000000000000 ) ) ;
#762 = CARTESIAN_POINT ( 'NONE',  ( 37.50000000000001421, -35.33852645026831851, 117.2400600590877247 ) ) ;
#763 = ORIENTED_EDGE ( 'NONE', *, *, #602, .F. ) ;
#764 = DIRECTION ( 'NONE',  ( 1.000000000000000000, 0.000000000000000000, 0.000000000000000000 ) ) ;
#765 = CARTESIAN_POINT ( 'NONE',  ( 34.00000000000000000, -8.509797082497208009, 133.5073425053878680 ) ) ;
#766 = EDGE_LOOP ( 'NONE', ( #714, #466 ) ) ;
#767 = DIRECTION ( 'NONE',  ( 0.000000000000000000, 0.9637949282604064694, -0.2666445879059199386 ) ) ;
#768 = CARTESIAN_POINT ( 'NONE',  ( 41.00000000000000711, -32.50000000000000000, 119.2999999999999972 ) ) ;
#769 = ORIENTED_EDGE ( 'NONE', *, *, #759, .F. ) ;
#770 = DIRECTION ( 'NONE',  ( 0.000000000000000000, -0.9637949282604073575, 0.2666445879059167190 ) ) ;
#771 = CARTESIAN_POINT ( 'NONE',  ( 34.00000000000000000, -8.509797082497208009, 133.5073425053878680 ) ) ;
#772 = CARTESIAN_POINT ( 'NONE',  ( 41.00000000000000000, -41.61733721008027942, 133.7956531037766297 ) ) ;
#773 = CARTESIAN_POINT ( 'NONE',  ( 37.50000000000000711, -39.71003642052568949, 129.4947367782976357 ) ) ;
#774 = ORIENTED_EDGE ( 'NONE', *, *, #473, .F. ) ;
#775 = CARTESIAN_POINT ( 'NONE',  ( 30.99999999999999289, -47.06600211206315265, 111.3396972989980327 ) ) ;
#776 = CARTESIAN_POINT ( 'NONE',  ( 41.00000000000000000, -38.26817667975706883, 136.9426057933326604 ) ) ;
#777 = VECTOR ( 'NONE', #131, 1000.000000000000227 ) ;
#778 = CARTESIAN_POINT ( 'NONE',  ( 19.00000000000000355, -32.50000000000000000, 127.5000000000000000 ) ) ;
#779 = EDGE_CURVE ( 'NONE', #167, #385, #806, .T. ) ;
#780 = AXIS2_PLACEMENT_3D ( 'NONE', #762, #425, #882 ) ;
#781 = ORIENTED_EDGE ( 'NONE', *, *, #230, .F. ) ;
#782 = DIRECTION ( 'NONE',  ( 1.000000000000000000, 0.000000000000000000, 0.000000000000000000 ) ) ;
#783 = AXIS2_PLACEMENT_3D ( 'NONE', #464, #813, #186 ) ;
#784 = DIRECTION ( 'NONE',  ( 0.000000000000000000, 0.9637949282604064694, -0.2666445879059199386 ) ) ;
#785 = PLANE ( 'NONE',  #241 ) ;
#786 = CARTESIAN_POINT ( 'NONE',  ( 41.00000000000000000, -22.00858973150046438, 131.0627412742150568 ) ) ;
#787 = DIRECTION ( 'NONE',  ( 0.000000000000000000, -0.9637949282604066914, 0.2666445879059194946 ) ) ;
#788 = DIRECTION ( 'NONE',  ( 0.000000000000000000, 0.000000000000000000, -1.000000000000000000 ) ) ;
#789 = LINE ( 'NONE', #143, #422 ) ;
#790 = VERTEX_POINT ( 'NONE', #28 ) ;
#791 = CARTESIAN_POINT ( 'NONE',  ( 38.46041822146946743, -35.38780965631001152, 119.8245062951692859 ) ) ;
#792 = VECTOR ( 'NONE', #654, 1000.000000000000000 ) ;
#793 = AXIS2_PLACEMENT_3D ( 'NONE', #275, #492, #357 ) ;
#794 = CARTESIAN_POINT ( 'NONE',  ( 37.65876462873629293, -40.63800802025640024, 128.5063923003694413 ) ) ;
#795 = ORIENTED_EDGE ( 'NONE', *, *, #868, .T. ) ;
#796 = CARTESIAN_POINT ( 'NONE',  ( 34.00000000000000000, -25.29902241434429300, 119.1053873340764397 ) ) ;
#797 = CARTESIAN_POINT ( 'NONE',  ( 10.80689757708123899, -32.50000000000000000, 127.5000000000000000 ) ) ;
#798 = ORIENTED_EDGE ( 'NONE', *, *, #393, .F. ) ;
#799 = CARTESIAN_POINT ( 'NONE',  ( 37.50000000000001421, -35.81950007182530982, 120.0019389657624345 ) ) ;
#800 = CARTESIAN_POINT ( 'NONE',  ( 41.00000000000000711, -39.04000693473229688, 118.5306675323969188 ) ) ;
#801 = EDGE_CURVE ( 'NONE', #895, #709, #42, .T. ) ;
#802 = CARTESIAN_POINT ( 'NONE',  ( 38.45864635168843648, -40.17479418448927220, 130.3896165854529841 ) ) ;
#803 = ORIENTED_EDGE ( 'NONE', *, *, #845, .T. ) ;
#804 = EDGE_CURVE ( 'NONE', #730, #130, #600, .T. ) ;
#805 = EDGE_CURVE ( 'NONE', #103, #249, #272, .T. ) ;
#806 = LINE ( 'NONE', #250, #362 ) ;
#807 = DIRECTION ( 'NONE',  ( 1.000000000000000000, 0.000000000000000000, 0.000000000000000000 ) ) ;
#808 = VECTOR ( 'NONE', #219, 1000.000000000000000 ) ;
#809 = CIRCLE ( 'NONE', #793, 8.199999999999999289 ) ;
#810 = CARTESIAN_POINT ( 'NONE',  ( 16.00000000000000000, -15.15169129131268377, 122.7003974176934520 ) ) ;
#811 = VERTEX_POINT ( 'NONE', #467 ) ;
#812 = CARTESIAN_POINT ( 'NONE',  ( 36.89534221096923972, -40.05893335561331270, 130.6790276398518245 ) ) ;
#813 = DIRECTION ( 'NONE',  ( -1.000000000000000000, -0.000000000000000000, 0.000000000000000000 ) ) ;
#814 = DIRECTION ( 'NONE',  ( 0.000000000000000000, 0.9637949282604063583, -0.2666445879059208268 ) ) ;
#815 = VERTEX_POINT ( 'NONE', #666 ) ;
#816 = CARTESIAN_POINT ( 'NONE',  ( 41.00000000000001421, -22.99967506382807514, 121.8056116529386657 ) ) ;
#817 = CARTESIAN_POINT ( 'NONE',  ( 34.00000000000000000, -28.65514769985680488, 137.9365378659392150 ) ) ;
#818 = CARTESIAN_POINT ( 'NONE',  ( 31.00000000000000355, -41.87732150281341603, 130.0943403046248648 ) ) ;
#819 = ORIENTED_EDGE ( 'NONE', *, *, #297, .T. ) ;
#820 = CARTESIAN_POINT ( 'NONE',  ( 41.00000000000000711, -31.25555905612780450, 116.4942092913192369 ) ) ;
#821 = EDGE_CURVE ( 'NONE', #381, #811, #477, .T. ) ;
#822 = CYLINDRICAL_SURFACE ( 'NONE', #637, 17.99999999999999645 ) ;
#823 = AXIS2_PLACEMENT_3D ( 'NONE', #797, #384, #529 ) ;
#824 = CARTESIAN_POINT ( 'NONE',  ( 31.00000000000000355, -23.12267849718658397, 124.9056596953751352 ) ) ;
#825 = AXIS2_PLACEMENT_3D ( 'NONE', #43, #807, #472 ) ;
#826 = ORIENTED_EDGE ( 'NONE', *, *, #32, .F. ) ;
#827 = DIRECTION ( 'NONE',  ( 1.000000000000000000, 0.000000000000000000, 0.000000000000000000 ) ) ;
#828 = DIRECTION ( 'NONE',  ( -0.000000000000000000, -0.2666445879059215485, -0.9637949282604060253 ) ) ;
#829 = ORIENTED_EDGE ( 'NONE', *, *, #53, .F. ) ;
#830 = CYLINDRICAL_SURFACE ( 'NONE', #589, 1.200000000000017497 ) ;
#831 = DIRECTION ( 'NONE',  ( 0.000000000000000000, -0.9637949282604065804, 0.2666445879059203272 ) ) ;
#832 = VERTEX_POINT ( 'NONE', #532 ) ;
#833 = CARTESIAN_POINT ( 'NONE',  ( 37.50000000000000711, -43.07991343013878804, 129.1819725951303894 ) ) ;
#834 = FACE_OUTER_BOUND ( 'NONE', #685, .T. ) ;
#835 = CARTESIAN_POINT ( 'NONE',  ( 34.00000000000000000, -41.96000688694119418, 133.2299117335242897 ) ) ;
#836 = AXIS2_PLACEMENT_3D ( 'NONE', #553, #827, #210 ) ;
#837 = EDGE_LOOP ( 'NONE', ( #22, #52 ) ) ;
#838 = CARTESIAN_POINT ( 'NONE',  ( 31.00000000000000355, -32.50000000000000000, 127.5000000000000000 ) ) ;
#839 = EDGE_CURVE ( 'NONE', #563, #134, #98, .T. ) ;
#840 = DIRECTION ( 'NONE',  ( 1.000000000000000000, 0.000000000000000000, 0.000000000000000000 ) ) ;
#841 = ORIENTED_EDGE ( 'NONE', *, *, #53, .T. ) ;
#842 = ORIENTED_EDGE ( 'NONE', *, *, #200, .T. ) ;
#843 = EDGE_CURVE ( 'NONE', #586, #850, #36, .T. ) ;
#844 = CARTESIAN_POINT ( 'NONE',  ( 30.99999999999999289, -28.31135910643631703, 106.1510166897482748 ) ) ;
#845 = EDGE_CURVE ( 'NONE', #850, #861, #237, .T. ) ;
#846 = CARTESIAN_POINT ( 'NONE',  ( 41.00000000000000000, -22.24000703481243235, 131.6823369020614791 ) ) ;
#847 = CARTESIAN_POINT ( 'NONE',  ( 36.76270992241995117, -35.59654065562594383, 119.9063325228685954 ) ) ;
#848 = CARTESIAN_POINT ( 'NONE',  ( 41.00000000000000711, -22.81157063810373131, 132.8756286032832463 ) ) ;
#849 = MECHANICAL_DESIGN_GEOMETRIC_PRESENTATION_REPRESENTATION (  '', ( #504 ), #877 ) ;
#850 = VERTEX_POINT ( 'NONE', #900 ) ;
#851 = PLANE ( 'NONE',  #3 ) ;
#852 = VECTOR ( 'NONE', #740, 1000.000000000000000 ) ;
#853 = DIRECTION ( 'NONE',  ( 0.000000000000000000, -0.9637949282604063583, 0.2666445879059208823 ) ) ;
#854 = LINE ( 'NONE', #289, #808 ) ;
#855 = ORIENTED_EDGE ( 'NONE', *, *, #706, .T. ) ;
#856 = CARTESIAN_POINT ( 'NONE',  ( 37.50000000000001421, -35.81950007182530982, 120.0019389657624345 ) ) ;
#857 = ORIENTED_EDGE ( 'NONE', *, *, #394, .T. ) ;
#858 = ORIENTED_EDGE ( 'NONE', *, *, #779, .T. ) ;
#859 = CARTESIAN_POINT ( 'NONE',  ( 19.00000000000000355, -32.50000000000000000, 127.5000000000000000 ) ) ;
#860 = DIRECTION ( 'NONE',  ( -1.000000000000000000, -0.000000000000000000, 0.000000000000000000 ) ) ;
#861 = VERTEX_POINT ( 'NONE', #278 ) ;
#862 = CARTESIAN_POINT ( 'NONE',  ( 38.10517923182703015, -33.65846584930931584, 119.3820163606351628 ) ) ;
#863 = AXIS2_PLACEMENT_3D ( 'NONE', #612, #333, #246 ) ;
#864 = LINE ( 'NONE', #738, #603 ) ;
#865 = ORIENTED_EDGE ( 'NONE', *, *, #898, .T. ) ;
#866 = CARTESIAN_POINT ( 'NONE',  ( 37.50000000000000711, -39.99806100928216779, 130.8195001281943917 ) ) ;
#867 = FACE_OUTER_BOUND ( 'NONE', #674, .T. ) ;
#868 = EDGE_CURVE ( 'NONE', #426, #832, #198, .T. ) ;
#869 = DIRECTION ( 'NONE',  ( 1.000000000000000000, 0.000000000000000000, 0.000000000000000000 ) ) ;
#870 = ORIENTED_EDGE ( 'NONE', *, *, #635, .F. ) ;
#871 = CARTESIAN_POINT ( 'NONE',  ( 37.18538311550568665, -40.63427943491983285, 128.5378822513395392 ) ) ;
#872 = CARTESIAN_POINT ( 'NONE',  ( 41.00000000000000000, -43.43094051423877033, 125.5689501039489500 ) ) ;
#873 = CARTESIAN_POINT ( 'NONE',  ( 37.50000000000001421, -35.33852645026831851, 117.2400600590877247 ) ) ;
#874 = ORIENTED_EDGE ( 'NONE', *, *, #18, .T. ) ;
#875 = CARTESIAN_POINT ( 'NONE',  ( 41.00000000000000711, -24.04222396332933798, 120.3483050733702271 ) ) ;
#876 = CARTESIAN_POINT ( 'NONE',  ( 41.00000000000000711, -38.22991107191535320, 118.0399937776726063 ) ) ;
#877 =( GEOMETRIC_REPRESENTATION_CONTEXT ( 3 ) GLOBAL_UNCERTAINTY_ASSIGNED_CONTEXT ( ( #638 ) ) GLOBAL_UNIT_ASSIGNED_CONTEXT ( ( #433, #652, #439 ) ) REPRESENTATION_CONTEXT ( 'NONE', 'WORKASPACE' ) );
#878 = DIRECTION ( 'NONE',  ( -1.000000000000000000, -0.000000000000000000, 0.000000000000000000 ) ) ;
#879 = ORIENTED_EDGE ( 'NONE', *, *, #743, .T. ) ;
#880 = CARTESIAN_POINT ( 'NONE',  ( 41.00000000000000000, -26.25641071809638660, 118.3514270893384861 ) ) ;
#881 = CARTESIAN_POINT ( 'NONE',  ( 34.00000000000000000, -23.19905606566165090, 133.5989059483970607 ) ) ;
#882 = DIRECTION ( 'NONE',  ( 0.000000000000000000, -0.9637949282604051371, 0.2666445879059250457 ) ) ;
#883 = EDGE_CURVE ( 'NONE', #365, #755, #317, .T. ) ;
#884 = ORIENTED_EDGE ( 'NONE', *, *, #801, .T. ) ;
#885 = CARTESIAN_POINT ( 'NONE',  ( 41.00000000000000711, -31.85017925601798439, 116.4429793647161233 ) ) ;
#886 = CARTESIAN_POINT ( 'NONE',  ( 34.00000000000001421, -27.56223578347885805, 137.4660772814152949 ) ) ;
#887 = ADVANCED_FACE ( 'NONE', ( #72 ), #269, .F. ) ;
#888 = CARTESIAN_POINT ( 'NONE',  ( 31.00000000000000355, -23.12267849718658397, 124.9056596953751352 ) ) ;
#889 = EDGE_LOOP ( 'NONE', ( #40, #122, #858, #163 ) ) ;
#890 = DIRECTION ( 'NONE',  ( 1.000000000000000000, 0.000000000000000000, 0.000000000000000000 ) ) ;
#891 = AXIS2_PLACEMENT_3D ( 'NONE', #69, #351, #73 ) ;
#892 = AXIS2_PLACEMENT_3D ( 'NONE', #873, #452, #93 ) ;
#893 = DIRECTION ( 'NONE',  ( 0.000000000000000000, -0.2666445879059208268, -0.9637949282604063583 ) ) ;
#894 = AXIS2_PLACEMENT_3D ( 'NONE', #490, #481, #770 ) ;
#895 = VERTEX_POINT ( 'NONE', #209 ) ;
#896 = CARTESIAN_POINT ( 'NONE',  ( 34.00000000000000000, -32.50000000000000000, 127.5000000000000000 ) ) ;
#897 = CARTESIAN_POINT ( 'NONE',  ( 34.00000000000000000, -39.70097758565570700, 135.8946126659235745 ) ) ;
#898 = EDGE_CURVE ( 'NONE', #633, #563, #735, .T. ) ;
#899 = ORIENTED_EDGE ( 'NONE', *, *, #743, .F. ) ;
#900 = CARTESIAN_POINT ( 'NONE',  ( 41.00000000000000711, -32.44714172426166243, 116.4401263116306069 ) ) ;
#901 = CARTESIAN_POINT ( 'NONE',  ( 31.00000000000000355, -41.87732150281341603, 130.0943403046248648 ) ) ;
#902 = CARTESIAN_POINT ( 'NONE',  ( 34.00000000000000000, -56.49020291750280620, 121.4926574946121036 ) ) ;
#903 = VERTEX_POINT ( 'NONE', #833 ) ;
#904 = DIRECTION ( 'NONE',  ( 1.000000000000000000, 0.000000000000000000, 0.000000000000000000 ) ) ;
ENDSEC;
END-ISO-10303-21;
