ISO-10303-21;
HEADER;
FILE_DESCRIPTION (( 'STEP AP214' ),
    '1' );
FILE_NAME ('wheel_nopulley.STEP',
    '2025-03-17T21:50:11',
    ( '' ),
    ( '' ),
    'SwSTEP 2.0',
    'SolidWorks 2024',
    '' );
FILE_SCHEMA (( 'AUTOMOTIVE_DESIGN' ));
ENDSEC;

DATA;
#1 = CIRCLE ( 'NONE', #9, 6.320508075688764826 ) ;
#2 = LINE ( 'NONE', #229, #165 ) ;
#3 =( NAMED_UNIT ( * ) SI_UNIT ( $, .STERADIAN. ) SOLID_ANGLE_UNIT ( ) );
#4 = ORIENTED_EDGE ( 'NONE', *, *, #45, .T. ) ;
#5 = DIRECTION ( 'NONE',  ( -0.000000000000000000, -0.000000000000000000, 1.000000000000000000 ) ) ;
#6 = CARTESIAN_POINT ( 'NONE',  ( 0.000000000000000000, 0.000000000000000000, 0.000000000000000000 ) ) ;
#7 = ORIENTED_EDGE ( 'NONE', *, *, #79, .F. ) ;
#8 = DIRECTION ( 'NONE',  ( 1.000000000000000000, 0.000000000000000000, 0.000000000000000000 ) ) ;
#9 = AXIS2_PLACEMENT_3D ( 'NONE', #268, #94, #118 ) ;
#10 = PRODUCT_RELATED_PRODUCT_CATEGORY ( 'part', '', ( #110 ) ) ;
#11 = AXIS2_PLACEMENT_3D ( 'NONE', #157, #108, #48 ) ;
#12 = ORIENTED_EDGE ( 'NONE', *, *, #261, .F. ) ;
#13 = AXIS2_PLACEMENT_3D ( 'NONE', #24, #114, #214 ) ;
#14 = CONICAL_SURFACE ( 'NONE', #11, 9.000000000000000000, 0.2617993877991500740 ) ;
#15 = MANIFOLD_SOLID_BREP ( 'Cut-Extrude1', #98 ) ;
#16 =( NAMED_UNIT ( * ) PLANE_ANGLE_UNIT ( ) SI_UNIT ( $, .RADIAN. ) );
#17 = PRODUCT_DEFINITION_FORMATION_WITH_SPECIFIED_SOURCE ( 'ANY', '', #110, .NOT_KNOWN. ) ;
#18 = DIRECTION ( 'NONE',  ( 1.000000000000000000, 0.000000000000000000, 0.000000000000000000 ) ) ;
#19 = ORIENTED_EDGE ( 'NONE', *, *, #100, .T. ) ;
#20 = DIRECTION ( 'NONE',  ( -0.000000000000000000, -0.000000000000000000, -1.000000000000000000 ) ) ;
#21 = ORIENTED_EDGE ( 'NONE', *, *, #45, .F. ) ;
#22 = AXIS2_PLACEMENT_3D ( 'NONE', #197, #264, #67 ) ;
#23 = DIRECTION ( 'NONE',  ( 0.2588190451025213501, 0.000000000000000000, -0.9659258262890680902 ) ) ;
#24 = CARTESIAN_POINT ( 'NONE',  ( 0.000000000000000000, 0.000000000000000000, 0.000000000000000000 ) ) ;
#25 = AXIS2_PLACEMENT_3D ( 'NONE', #189, #249, #254 ) ;
#26 = FACE_OUTER_BOUND ( 'NONE', #126, .T. ) ;
#27 = DIRECTION ( 'NONE',  ( 1.000000000000000000, 0.000000000000000000, 0.000000000000000000 ) ) ;
#28 = DIRECTION ( 'NONE',  ( 0.000000000000000000, 0.000000000000000000, 1.000000000000000000 ) ) ;
#29 = EDGE_CURVE ( 'NONE', #41, #70, #239, .T. ) ;
#30 = LINE ( 'NONE', #170, #174 ) ;
#31 = FACE_BOUND ( 'NONE', #93, .T. ) ;
#32 = CONICAL_SURFACE ( 'NONE', #25, 9.000000000000000000, 0.2617993877991500740 ) ;
#33 = SHAPE_DEFINITION_REPRESENTATION ( #150, #104 ) ;
#34 = CARTESIAN_POINT ( 'NONE',  ( 0.000000000000000000, 0.000000000000000000, 13.00000000000000178 ) ) ;
#35 = VERTEX_POINT ( 'NONE', #111 ) ;
#36 = ADVANCED_FACE ( 'NONE', ( #26 ), #176, .T. ) ;
#37 = FILL_AREA_STYLE_COLOUR ( '', #86 ) ;
#38 = ADVANCED_FACE ( 'NONE', ( #156, #245 ), #43, .T. ) ;
#39 = PRODUCT_DEFINITION_CONTEXT ( 'detailed design', #82, 'design' ) ;
#40 = CARTESIAN_POINT ( 'NONE',  ( 9.000000000000000000, 0.000000000000000000, 3.000000000000000000 ) ) ;
#41 = VERTEX_POINT ( 'NONE', #68 ) ;
#42 = DIRECTION ( 'NONE',  ( 0.000000000000000000, 0.000000000000000000, 1.000000000000000000 ) ) ;
#43 = PLANE ( 'NONE',  #205 ) ;
#44 = CARTESIAN_POINT ( 'NONE',  ( -11.50000000000000000, 0.000000000000000000, 3.000000000000000000 ) ) ;
#45 = EDGE_CURVE ( 'NONE', #117, #154, #2, .T. ) ;
#46 = DIRECTION ( 'NONE',  ( 0.000000000000000000, 0.000000000000000000, 1.000000000000000000 ) ) ;
#47 = VECTOR ( 'NONE', #134, 1000.000000000000000 ) ;
#48 = DIRECTION ( 'NONE',  ( 1.000000000000000000, 0.000000000000000000, 0.000000000000000000 ) ) ;
#49 = CARTESIAN_POINT ( 'NONE',  ( 0.000000000000000000, 0.000000000000000000, 13.00000000000000178 ) ) ;
#50 = CIRCLE ( 'NONE', #52, 9.000000000000000000 ) ;
#51 = CARTESIAN_POINT ( 'NONE',  ( 0.000000000000000000, 0.000000000000000000, 0.000000000000000000 ) ) ;
#52 = AXIS2_PLACEMENT_3D ( 'NONE', #234, #97, #27 ) ;
#53 = ORIENTED_EDGE ( 'NONE', *, *, #210, .F. ) ;
#54 = ORIENTED_EDGE ( 'NONE', *, *, #147, .T. ) ;
#55 = ORIENTED_EDGE ( 'NONE', *, *, #105, .F. ) ;
#56 = FACE_BOUND ( 'NONE', #187, .T. ) ;
#57 = EDGE_LOOP ( 'NONE', ( #21, #135, #142, #196 ) ) ;
#58 = VECTOR ( 'NONE', #23, 1000.000000000000000 ) ;
#59 = ORIENTED_EDGE ( 'NONE', *, *, #182, .T. ) ;
#60 =( LENGTH_UNIT ( ) NAMED_UNIT ( * ) SI_UNIT ( .MILLI., .METRE. ) );
#61 = AXIS2_PLACEMENT_3D ( 'NONE', #49, #140, #8 ) ;
#62 = DIRECTION ( 'NONE',  ( 1.000000000000000000, 0.000000000000000000, 0.000000000000000000 ) ) ;
#63 = CARTESIAN_POINT ( 'NONE',  ( 0.000000000000000000, 0.000000000000000000, 3.000000000000000000 ) ) ;
#64 = DIRECTION ( 'NONE',  ( -1.000000000000000000, 0.000000000000000000, 0.000000000000000000 ) ) ;
#65 = CARTESIAN_POINT ( 'NONE',  ( 0.000000000000000000, 0.000000000000000000, 13.00000000000000178 ) ) ;
#66 = ADVANCED_FACE ( 'NONE', ( #183 ), #14, .T. ) ;
#67 = DIRECTION ( 'NONE',  ( 1.000000000000000000, 0.000000000000000000, 0.000000000000000000 ) ) ;
#68 = CARTESIAN_POINT ( 'NONE',  ( 11.50000000000000000, 1.408343819019456176E-15, 3.000000000000000000 ) ) ;
#69 = CARTESIAN_POINT ( 'NONE',  ( 0.000000000000000000, 0.000000000000000000, 0.000000000000000000 ) ) ;
#70 = VERTEX_POINT ( 'NONE', #139 ) ;
#71 = AXIS2_PLACEMENT_3D ( 'NONE', #204, #207, #186 ) ;
#72 = ADVANCED_FACE ( 'NONE', ( #85 ), #206, .F. ) ;
#73 = ORIENTED_EDGE ( 'NONE', *, *, #257, .F. ) ;
#74 =( GEOMETRIC_REPRESENTATION_CONTEXT ( 3 ) GLOBAL_UNCERTAINTY_ASSIGNED_CONTEXT ( ( #191 ) ) GLOBAL_UNIT_ASSIGNED_CONTEXT ( ( #60, #16, #3 ) ) REPRESENTATION_CONTEXT ( 'NONE', 'WORKASPACE' ) );
#75 = FACE_OUTER_BOUND ( 'NONE', #270, .T. ) ;
#76 = DIRECTION ( 'NONE',  ( 1.000000000000000000, 0.000000000000000000, -0.000000000000000000 ) ) ;
#77 = CIRCLE ( 'NONE', #160, 11.50000000000000000 ) ;
#78 = ORIENTED_EDGE ( 'NONE', *, *, #92, .T. ) ;
#79 = EDGE_CURVE ( 'NONE', #181, #154, #271, .T. ) ;
#80 = APPLICATION_PROTOCOL_DEFINITION ( 'draft international standard', 'automotive_design', 1998, #82 ) ;
#81 = AXIS2_PLACEMENT_3D ( 'NONE', #152, #42, #244 ) ;
#82 = APPLICATION_CONTEXT ( 'automotive_design' ) ;
#83 = VERTEX_POINT ( 'NONE', #90 ) ;
#84 = CIRCLE ( 'NONE', #148, 2.000000000000000000 ) ;
#85 = FACE_OUTER_BOUND ( 'NONE', #145, .T. ) ;
#86 = COLOUR_RGB ( '',0.7921568627450980005, 0.8196078431372548767, 0.9333333333333333481 ) ;
#87 = DIRECTION ( 'NONE',  ( 1.000000000000000000, 0.000000000000000000, 0.000000000000000000 ) ) ;
#88 = EDGE_LOOP ( 'NONE', ( #218, #159, #242, #201 ) ) ;
#89 =( LENGTH_UNIT ( ) NAMED_UNIT ( * ) SI_UNIT ( .MILLI., .METRE. ) );
#90 = CARTESIAN_POINT ( 'NONE',  ( -6.320508075688764826, -9.381105588101710271E-16, 13.00000000000000178 ) ) ;
#91 = EDGE_CURVE ( 'NONE', #83, #166, #246, .T. ) ;
#92 = EDGE_CURVE ( 'NONE', #195, #129, #77, .T. ) ;
#93 = EDGE_LOOP ( 'NONE', ( #211, #54 ) ) ;
#94 = DIRECTION ( 'NONE',  ( 0.000000000000000000, 0.000000000000000000, 1.000000000000000000 ) ) ;
#95 = DIRECTION ( 'NONE',  ( 0.000000000000000000, 0.000000000000000000, 1.000000000000000000 ) ) ;
#96 = ORIENTED_EDGE ( 'NONE', *, *, #185, .T. ) ;
#97 = DIRECTION ( 'NONE',  ( 0.000000000000000000, 0.000000000000000000, 1.000000000000000000 ) ) ;
#98 = CLOSED_SHELL ( 'NONE', ( #72, #144, #162, #36, #38, #113, #66, #127, #228 ) ) ;
#99 = EDGE_LOOP ( 'NONE', ( #171, #106, #259, #177 ) ) ;
#100 = EDGE_CURVE ( 'NONE', #70, #195, #263, .T. ) ;
#101 = AXIS2_PLACEMENT_3D ( 'NONE', #163, #208, #266 ) ;
#102 = APPLICATION_CONTEXT ( 'automotive_design' ) ;
#103 = APPLICATION_PROTOCOL_DEFINITION ( 'draft international standard', 'automotive_design', 1998, #102 ) ;
#104 = ADVANCED_BREP_SHAPE_REPRESENTATION ( 'wheel_nopulley', ( #15, #141 ), #260 ) ;
#105 = EDGE_CURVE ( 'NONE', #129, #195, #215, .T. ) ;
#106 = ORIENTED_EDGE ( 'NONE', *, *, #185, .F. ) ;
#107 = SURFACE_SIDE_STYLE ('',( #173 ) ) ;
#108 = DIRECTION ( 'NONE',  ( -0.000000000000000000, -0.000000000000000000, -1.000000000000000000 ) ) ;
#109 = CYLINDRICAL_SURFACE ( 'NONE', #190, 11.50000000000000000 ) ;
#110 = PRODUCT ( 'wheel_nopulley', 'wheel_nopulley', '', ( #216 ) ) ;
#111 = CARTESIAN_POINT ( 'NONE',  ( 2.000000000000000000, 0.000000000000000000, 0.000000000000000000 ) ) ;
#112 = CARTESIAN_POINT ( 'NONE',  ( 11.50000000000000000, 1.408343819019456176E-15, 3.000000000000000000 ) ) ;
#113 = ADVANCED_FACE ( 'NONE', ( #31, #272 ), #235, .F. ) ;
#114 = DIRECTION ( 'NONE',  ( 0.000000000000000000, 0.000000000000000000, 1.000000000000000000 ) ) ;
#115 = AXIS2_PLACEMENT_3D ( 'NONE', #267, #184, #265 ) ;
#116 = FACE_OUTER_BOUND ( 'NONE', #57, .T. ) ;
#117 = VERTEX_POINT ( 'NONE', #256 ) ;
#118 = DIRECTION ( 'NONE',  ( 1.000000000000000000, 0.000000000000000000, 0.000000000000000000 ) ) ;
#119 = EDGE_CURVE ( 'NONE', #35, #181, #30, .T. ) ;
#120 = CIRCLE ( 'NONE', #101, 11.50000000000000000 ) ;
#121 = DIRECTION ( 'NONE',  ( -0.000000000000000000, -0.000000000000000000, 1.000000000000000000 ) ) ;
#122 = ORIENTED_EDGE ( 'NONE', *, *, #219, .F. ) ;
#123 = ORIENTED_EDGE ( 'NONE', *, *, #231, .T. ) ;
#124 = FACE_OUTER_BOUND ( 'NONE', #88, .T. ) ;
#125 = ORIENTED_EDGE ( 'NONE', *, *, #29, .T. ) ;
#126 = EDGE_LOOP ( 'NONE', ( #12, #237, #19, #78 ) ) ;
#127 = ADVANCED_FACE ( 'NONE', ( #56, #75 ), #233, .T. ) ;
#128 = DIRECTION ( 'NONE',  ( 0.000000000000000000, 0.000000000000000000, 1.000000000000000000 ) ) ;
#129 = VERTEX_POINT ( 'NONE', #212 ) ;
#130 = CIRCLE ( 'NONE', #224, 6.320508075688764826 ) ;
#131 = DIRECTION ( 'NONE',  ( 0.000000000000000000, 0.000000000000000000, 1.000000000000000000 ) ) ;
#132 = STYLED_ITEM ( 'NONE', ( #169 ), #15 ) ;
#133 = DIRECTION ( 'NONE',  ( 1.000000000000000000, 0.000000000000000000, 0.000000000000000000 ) ) ;
#134 = DIRECTION ( 'NONE',  ( -0.000000000000000000, -0.000000000000000000, -1.000000000000000000 ) ) ;
#135 = ORIENTED_EDGE ( 'NONE', *, *, #149, .F. ) ;
#136 = DIRECTION ( 'NONE',  ( 1.000000000000000000, 0.000000000000000000, -0.000000000000000000 ) ) ;
#137 = EDGE_LOOP ( 'NONE', ( #122, #276 ) ) ;
#138 = AXIS2_PLACEMENT_3D ( 'NONE', #63, #178, #262 ) ;
#139 = CARTESIAN_POINT ( 'NONE',  ( -11.50000000000000000, 0.000000000000000000, 3.000000000000000000 ) ) ;
#140 = DIRECTION ( 'NONE',  ( 0.000000000000000000, 0.000000000000000000, 1.000000000000000000 ) ) ;
#141 = AXIS2_PLACEMENT_3D ( 'NONE', #146, #274, #167 ) ;
#142 = ORIENTED_EDGE ( 'NONE', *, *, #119, .T. ) ;
#143 = DIRECTION ( 'NONE',  ( -0.000000000000000000, -0.000000000000000000, 1.000000000000000000 ) ) ;
#144 = ADVANCED_FACE ( 'NONE', ( #279 ), #32, .T. ) ;
#145 = EDGE_LOOP ( 'NONE', ( #277, #4, #194, #180 ) ) ;
#146 = CARTESIAN_POINT ( 'NONE',  ( 0.000000000000000000, 0.000000000000000000, 0.000000000000000000 ) ) ;
#147 = EDGE_CURVE ( 'NONE', #117, #35, #84, .T. ) ;
#148 = AXIS2_PLACEMENT_3D ( 'NONE', #6, #95, #18 ) ;
#149 = EDGE_CURVE ( 'NONE', #35, #117, #258, .T. ) ;
#150 = PRODUCT_DEFINITION_SHAPE ( 'NONE', 'NONE',  #273 ) ;
#151 = ORIENTED_EDGE ( 'NONE', *, *, #92, .F. ) ;
#152 = CARTESIAN_POINT ( 'NONE',  ( 0.000000000000000000, 0.000000000000000000, 3.000000000000000000 ) ) ;
#153 = CARTESIAN_POINT ( 'NONE',  ( -9.000000000000000000, -1.102182119232617714E-15, 3.000000000000000000 ) ) ;
#154 = VERTEX_POINT ( 'NONE', #198 ) ;
#155 = LINE ( 'NONE', #112, #275 ) ;
#156 = FACE_BOUND ( 'NONE', #137, .T. ) ;
#157 = CARTESIAN_POINT ( 'NONE',  ( 0.000000000000000000, 0.000000000000000000, 3.000000000000000000 ) ) ;
#158 = DIRECTION ( 'NONE',  ( 1.000000000000000000, 0.000000000000000000, 0.000000000000000000 ) ) ;
#159 = ORIENTED_EDGE ( 'NONE', *, *, #261, .T. ) ;
#160 = AXIS2_PLACEMENT_3D ( 'NONE', #69, #179, #158 ) ;
#161 = CARTESIAN_POINT ( 'NONE',  ( -9.000000000000000000, -1.102182119232617714E-15, 3.000000000000000000 ) ) ;
#162 = ADVANCED_FACE ( 'NONE', ( #124 ), #109, .T. ) ;
#163 = CARTESIAN_POINT ( 'NONE',  ( 0.000000000000000000, 0.000000000000000000, 3.000000000000000000 ) ) ;
#164 = VERTEX_POINT ( 'NONE', #199 ) ;
#165 = VECTOR ( 'NONE', #5, 1000.000000000000000 ) ;
#166 = VERTEX_POINT ( 'NONE', #153 ) ;
#167 = DIRECTION ( 'NONE',  ( 1.000000000000000000, 0.000000000000000000, 0.000000000000000000 ) ) ;
#168 = EDGE_LOOP ( 'NONE', ( #151, #55 ) ) ;
#169 = PRESENTATION_STYLE_ASSIGNMENT (( #223 ) ) ;
#170 = CARTESIAN_POINT ( 'NONE',  ( 2.000000000000000000, 0.000000000000000000, 0.000000000000000000 ) ) ;
#171 = ORIENTED_EDGE ( 'NONE', *, *, #91, .F. ) ;
#172 = CARTESIAN_POINT ( 'NONE',  ( 2.000000000000000000, 0.000000000000000000, 13.00000000000000178 ) ) ;
#173 = SURFACE_STYLE_FILL_AREA ( #240 ) ;
#174 = VECTOR ( 'NONE', #121, 1000.000000000000000 ) ;
#175 = EDGE_CURVE ( 'NONE', #164, #222, #226, .T. ) ;
#176 = CYLINDRICAL_SURFACE ( 'NONE', #138, 11.50000000000000000 ) ;
#177 = ORIENTED_EDGE ( 'NONE', *, *, #219, .T. ) ;
#178 = DIRECTION ( 'NONE',  ( -0.000000000000000000, -0.000000000000000000, -1.000000000000000000 ) ) ;
#179 = DIRECTION ( 'NONE',  ( 0.000000000000000000, 0.000000000000000000, 1.000000000000000000 ) ) ;
#180 = ORIENTED_EDGE ( 'NONE', *, *, #119, .F. ) ;
#181 = VERTEX_POINT ( 'NONE', #172 ) ;
#182 = EDGE_CURVE ( 'NONE', #70, #41, #120, .T. ) ;
#183 = FACE_OUTER_BOUND ( 'NONE', #99, .T. ) ;
#184 = DIRECTION ( 'NONE',  ( 0.000000000000000000, 0.000000000000000000, 1.000000000000000000 ) ) ;
#185 = EDGE_CURVE ( 'NONE', #164, #83, #1, .T. ) ;
#186 = DIRECTION ( 'NONE',  ( 1.000000000000000000, 0.000000000000000000, 0.000000000000000000 ) ) ;
#187 = EDGE_LOOP ( 'NONE', ( #7, #53 ) ) ;
#188 = CARTESIAN_POINT ( 'NONE',  ( 9.000000000000000000, 0.000000000000000000, 3.000000000000000000 ) ) ;
#189 = CARTESIAN_POINT ( 'NONE',  ( 0.000000000000000000, 0.000000000000000000, 3.000000000000000000 ) ) ;
#190 = AXIS2_PLACEMENT_3D ( 'NONE', #241, #20, #64 ) ;
#191 = UNCERTAINTY_MEASURE_WITH_UNIT (LENGTH_MEASURE( 1.000000000000000082E-05 ), #60, 'distance_accuracy_value', 'NONE');
#192 = CIRCLE ( 'NONE', #81, 9.000000000000000000 ) ;
#193 =( NAMED_UNIT ( * ) SI_UNIT ( $, .STERADIAN. ) SOLID_ANGLE_UNIT ( ) );
#194 = ORIENTED_EDGE ( 'NONE', *, *, #210, .T. ) ;
#195 = VERTEX_POINT ( 'NONE', #250 ) ;
#196 = ORIENTED_EDGE ( 'NONE', *, *, #79, .T. ) ;
#197 = CARTESIAN_POINT ( 'NONE',  ( 0.000000000000000000, 0.000000000000000000, 3.000000000000000000 ) ) ;
#198 = CARTESIAN_POINT ( 'NONE',  ( -2.000000000000000000, 2.449293598294706414E-16, 13.00000000000000178 ) ) ;
#199 = CARTESIAN_POINT ( 'NONE',  ( 6.320508075688764826, 0.000000000000000000, 13.00000000000000178 ) ) ;
#200 = AXIS2_PLACEMENT_3D ( 'NONE', #213, #269, #76 ) ;
#201 = ORIENTED_EDGE ( 'NONE', *, *, #100, .F. ) ;
#202 = DIRECTION ( 'NONE',  ( -0.000000000000000000, -0.000000000000000000, -1.000000000000000000 ) ) ;
#203 =( NAMED_UNIT ( * ) PLANE_ANGLE_UNIT ( ) SI_UNIT ( $, .RADIAN. ) );
#204 = CARTESIAN_POINT ( 'NONE',  ( 0.000000000000000000, 0.000000000000000000, 0.000000000000000000 ) ) ;
#205 = AXIS2_PLACEMENT_3D ( 'NONE', #247, #46, #136 ) ;
#206 = CYLINDRICAL_SURFACE ( 'NONE', #71, 2.000000000000000000 ) ;
#207 = DIRECTION ( 'NONE',  ( -0.000000000000000000, -0.000000000000000000, 1.000000000000000000 ) ) ;
#208 = DIRECTION ( 'NONE',  ( 0.000000000000000000, 0.000000000000000000, 1.000000000000000000 ) ) ;
#209 = CIRCLE ( 'NONE', #61, 2.000000000000000000 ) ;
#210 = EDGE_CURVE ( 'NONE', #154, #181, #209, .T. ) ;
#211 = ORIENTED_EDGE ( 'NONE', *, *, #149, .T. ) ;
#212 = CARTESIAN_POINT ( 'NONE',  ( 11.50000000000000000, 1.408343819019456176E-15, 0.000000000000000000 ) ) ;
#213 = CARTESIAN_POINT ( 'NONE',  ( 0.000000000000000000, 0.000000000000000000, 0.000000000000000000 ) ) ;
#214 = DIRECTION ( 'NONE',  ( 1.000000000000000000, 0.000000000000000000, 0.000000000000000000 ) ) ;
#215 = CIRCLE ( 'NONE', #13, 11.50000000000000000 ) ;
#216 = PRODUCT_CONTEXT ( 'NONE', #102, 'mechanical' ) ;
#217 = EDGE_LOOP ( 'NONE', ( #59, #125 ) ) ;
#218 = ORIENTED_EDGE ( 'NONE', *, *, #29, .F. ) ;
#219 = EDGE_CURVE ( 'NONE', #222, #166, #50, .T. ) ;
#220 = DIRECTION ( 'NONE',  ( 1.000000000000000000, 0.000000000000000000, -0.000000000000000000 ) ) ;
#221 = ORIENTED_EDGE ( 'NONE', *, *, #257, .T. ) ;
#222 = VERTEX_POINT ( 'NONE', #188 ) ;
#223 = SURFACE_STYLE_USAGE ( .BOTH. , #107 ) ;
#224 = AXIS2_PLACEMENT_3D ( 'NONE', #65, #131, #133 ) ;
#225 = CARTESIAN_POINT ( 'NONE',  ( 0.000000000000000000, 0.000000000000000000, 0.000000000000000000 ) ) ;
#226 = LINE ( 'NONE', #40, #58 ) ;
#227 = PRESENTATION_LAYER_ASSIGNMENT (  '', '', ( #132 ) ) ;
#228 = ADVANCED_FACE ( 'NONE', ( #116 ), #253, .F. ) ;
#229 = CARTESIAN_POINT ( 'NONE',  ( -2.000000000000000000, 2.449293598294706414E-16, 0.000000000000000000 ) ) ;
#230 = VECTOR ( 'NONE', #252, 1000.000000000000000 ) ;
#231 = EDGE_CURVE ( 'NONE', #166, #222, #192, .T. ) ;
#232 = AXIS2_PLACEMENT_3D ( 'NONE', #51, #143, #62 ) ;
#233 = PLANE ( 'NONE',  #243 ) ;
#234 = CARTESIAN_POINT ( 'NONE',  ( 0.000000000000000000, 0.000000000000000000, 3.000000000000000000 ) ) ;
#235 = PLANE ( 'NONE',  #200 ) ;
#236 = EDGE_LOOP ( 'NONE', ( #73, #278, #123, #238 ) ) ;
#237 = ORIENTED_EDGE ( 'NONE', *, *, #182, .F. ) ;
#238 = ORIENTED_EDGE ( 'NONE', *, *, #175, .F. ) ;
#239 = CIRCLE ( 'NONE', #22, 11.50000000000000000 ) ;
#240 = FILL_AREA_STYLE ('',( #37 ) ) ;
#241 = CARTESIAN_POINT ( 'NONE',  ( 0.000000000000000000, 0.000000000000000000, 3.000000000000000000 ) ) ;
#242 = ORIENTED_EDGE ( 'NONE', *, *, #105, .T. ) ;
#243 = AXIS2_PLACEMENT_3D ( 'NONE', #34, #28, #220 ) ;
#244 = DIRECTION ( 'NONE',  ( 1.000000000000000000, 0.000000000000000000, 0.000000000000000000 ) ) ;
#245 = FACE_OUTER_BOUND ( 'NONE', #217, .T. ) ;
#246 = LINE ( 'NONE', #161, #230 ) ;
#247 = CARTESIAN_POINT ( 'NONE',  ( 0.000000000000000000, 0.000000000000000000, 3.000000000000000000 ) ) ;
#248 = AXIS2_PLACEMENT_3D ( 'NONE', #225, #128, #87 ) ;
#249 = DIRECTION ( 'NONE',  ( -0.000000000000000000, -0.000000000000000000, -1.000000000000000000 ) ) ;
#250 = CARTESIAN_POINT ( 'NONE',  ( -11.50000000000000000, 0.000000000000000000, 0.000000000000000000 ) ) ;
#251 = MECHANICAL_DESIGN_GEOMETRIC_PRESENTATION_REPRESENTATION (  '', ( #132 ), #74 ) ;
#252 = DIRECTION ( 'NONE',  ( -0.2588190451025213501, -3.169619151431772337E-17, -0.9659258262890680902 ) ) ;
#253 = CYLINDRICAL_SURFACE ( 'NONE', #232, 2.000000000000000000 ) ;
#254 = DIRECTION ( 'NONE',  ( 1.000000000000000000, 0.000000000000000000, 0.000000000000000000 ) ) ;
#255 = UNCERTAINTY_MEASURE_WITH_UNIT (LENGTH_MEASURE( 1.000000000000000082E-05 ), #89, 'distance_accuracy_value', 'NONE');
#256 = CARTESIAN_POINT ( 'NONE',  ( -2.000000000000000000, 2.449293598294706414E-16, 0.000000000000000000 ) ) ;
#257 = EDGE_CURVE ( 'NONE', #83, #164, #130, .T. ) ;
#258 = CIRCLE ( 'NONE', #248, 2.000000000000000000 ) ;
#259 = ORIENTED_EDGE ( 'NONE', *, *, #175, .T. ) ;
#260 =( GEOMETRIC_REPRESENTATION_CONTEXT ( 3 ) GLOBAL_UNCERTAINTY_ASSIGNED_CONTEXT ( ( #255 ) ) GLOBAL_UNIT_ASSIGNED_CONTEXT ( ( #89, #203, #193 ) ) REPRESENTATION_CONTEXT ( 'NONE', 'WORKASPACE' ) );
#261 = EDGE_CURVE ( 'NONE', #41, #129, #155, .T. ) ;
#262 = DIRECTION ( 'NONE',  ( -1.000000000000000000, 0.000000000000000000, 0.000000000000000000 ) ) ;
#263 = LINE ( 'NONE', #44, #47 ) ;
#264 = DIRECTION ( 'NONE',  ( 0.000000000000000000, 0.000000000000000000, 1.000000000000000000 ) ) ;
#265 = DIRECTION ( 'NONE',  ( 1.000000000000000000, 0.000000000000000000, 0.000000000000000000 ) ) ;
#266 = DIRECTION ( 'NONE',  ( 1.000000000000000000, 0.000000000000000000, 0.000000000000000000 ) ) ;
#267 = CARTESIAN_POINT ( 'NONE',  ( 0.000000000000000000, 0.000000000000000000, 13.00000000000000178 ) ) ;
#268 = CARTESIAN_POINT ( 'NONE',  ( 0.000000000000000000, 0.000000000000000000, 13.00000000000000178 ) ) ;
#269 = DIRECTION ( 'NONE',  ( 0.000000000000000000, 0.000000000000000000, 1.000000000000000000 ) ) ;
#270 = EDGE_LOOP ( 'NONE', ( #96, #221 ) ) ;
#271 = CIRCLE ( 'NONE', #115, 2.000000000000000000 ) ;
#272 = FACE_OUTER_BOUND ( 'NONE', #168, .T. ) ;
#273 = PRODUCT_DEFINITION ( 'UNKNOWN', '', #17, #39 ) ;
#274 = DIRECTION ( 'NONE',  ( 0.000000000000000000, 0.000000000000000000, 1.000000000000000000 ) ) ;
#275 = VECTOR ( 'NONE', #202, 1000.000000000000000 ) ;
#276 = ORIENTED_EDGE ( 'NONE', *, *, #231, .F. ) ;
#277 = ORIENTED_EDGE ( 'NONE', *, *, #147, .F. ) ;
#278 = ORIENTED_EDGE ( 'NONE', *, *, #91, .T. ) ;
#279 = FACE_OUTER_BOUND ( 'NONE', #236, .T. ) ;
ENDSEC;
END-ISO-10303-21;
