  0
SECTION
  2
HEADER
  9
$ACADVER
  1
AC1003
  9
$EXTMIN
 10
1.196850393687
 20
5.14048839158917
  9
$EXTMAX
 10
4.7563617716515
 20
1.19685039368701
  9
$INSBASE
 10
2.97660608266925
 20
3.16866939263809
999
Created with OMAX Layout for Windows. (http://www.omax.com) 2025-02-23
  0
ENDSEC
  0
SECTION
  2
TABLES
  0
TABLE
  2
LAYER
 70
    10
  0
LAYER
  2
0
 70
     0
 62
     7
  6
CONTINUOUS
  0
LAYER
  2
1
 70
     0
 62
     7
  6
CONTINUOUS
  0
LAYER
  2
2
 70
     0
 62
     7
  6
CONTINUOUS
  0
LAYER
  2
3
 70
     0
 62
     7
  6
CONTINUOUS
  0
LAYER
  2
4
 70
     0
 62
     7
  6
CONTINUOUS
  0
LAYER
  2
5
 70
     0
 62
     7
  6
CONTINUOUS
  0
LAYER
  2
6
 70
     0
 62
     7
  6
CONTINUOUS
  0
LAYER
  2
7
 70
     0
 62
     7
  6
CONTINUOUS
  0
LAYER
  2
8
 70
     0
 62
     7
  6
CONTINUOUS
  0
LAYER
  2
9
 70
     0
 62
     7
  6
CONTINUOUS
  0
LAYER
  2
10
 70
     0
 62
     7
  6
CONTINUOUS
  0
LAYER
  2
11
 70
     0
 62
     7
  6
CONTINUOUS
  0
LAYER
  2
12
 70
     0
 62
     7
  6
CONTINUOUS
  0
LAYER
  2
13
 70
     0
 62
     7
  6
CONTINUOUS
  0
LAYER
  2
14
 70
     0
 62
     7
  6
CONTINUOUS
  0
LAYER
  2
15
 70
     0
 62
     7
  6
CONTINUOUS
  0
LAYER
  2
16
 70
     0
 62
     7
  6
CONTINUOUS
  0
LAYER
  2
17
 70
     0
 62
     7
  6
CONTINUOUS
  0
LAYER
  2
18
 70
     0
 62
     7
  6
CONTINUOUS
  0
LAYER
  2
19
 70
     0
 62
     7
  6
CONTINUOUS
  0
LAYER
  2
20
 70
     0
 62
     7
  6
CONTINUOUS
  0
LAYER
  2
21
 70
     0
 62
     7
  6
CONTINUOUS
  0
LAYER
  2
22
 70
     0
 62
     7
  6
CONTINUOUS
  0
LAYER
  2
23
 70
     0
 62
     7
  6
CONTINUOUS
  0
LAYER
  2
24
 70
     0
 62
     7
  6
CONTINUOUS
  0
LAYER
  2
25
 70
     0
 62
     7
  6
CONTINUOUS
  0
LAYER
  2
26
 70
     0
 62
     7
  6
CONTINUOUS
  0
LAYER
  2
27
 70
     0
 62
     7
  6
CONTINUOUS
  0
LAYER
  2
28
 70
     0
 62
     7
  6
CONTINUOUS
  0
LAYER
  2
29
 70
     0
 62
     7
  6
CONTINUOUS
  0
LAYER
  2
30
 70
     0
 62
     7
  6
CONTINUOUS
  0
LAYER
  2
31
 70
     0
 62
     7
  6
CONTINUOUS
  0
ENDTAB
  0
ENDSEC
  0
SECTION
  2
ENTITIES
  0
ARC
  8
3
  6
CONTINUOUS
 62
3
 10
1.51181102361534
 20
2.47342519685658
 30
0.0
 40
0.0688976377983694
 50
179.999999994854
 51
359.999999984565
  0
ARC
  8
3
  6
CONTINUOUS
 62
3
 10
1.51181102359386
 20
2.47342519687135
 30
0.0
 40
0.0688976377768913
 50
80.9999999575947
 51
180.00000000714
  0
ARC
  8
3
  6
CONTINUOUS
 62
3
 10
1.74803149618571
 20
3.09448818895384
 30
0.0
 40
0.393700787372279
 50
278.362362729387
 51
68.0946252908442
  0
ARC
  8
3
  6
CONTINUOUS
 62
3
 10
1.74803149602459
 20
3.09448818913644
 30
0.0
 40
0.393700787262965
 50
68.0946252591755
 51
139.485765777207
  0
ARC
  8
3
  6
CONTINUOUS
 62
3
 10
1.74803149596457
 20
3.09448818891205
 30
0.0
 40
0.393700787363102
 50
139.485765746706
 51
278.362362762112
  0
ARC
  8
3
  6
CONTINUOUS
 62
3
 10
2.10629921259326
 20
2.61606299212289
 30
0.0
 40
0.068897637795275
 50
2.5733231816785E-9
 51
179.999999997426
  0
LINE
  8
3
  6
CONTINUOUS
 62
3
 10
2.17519685038853
 20
2.61606299212598
 30
0.0
 11
2.17519685038854
 21
2.55307086614173
 31
0.0
  0
ARC
  8
3
  6
CONTINUOUS
 62
3
 10
2.10629921259326
 20
2.55307086614792
 30
0.0
 40
0.0688976377952779
 50
180.000000005144
 51
359.999999994854
  0
ARC
  8
3
  6
CONTINUOUS
 62
3
 10
2.14173228345786
 20
3.71555118110855
 30
0.0
 40
0.068897637798369
 50
179.999999994854
 51
359.999999984564
  0
ARC
  8
3
  6
CONTINUOUS
 62
3
 10
2.14173228345743
 20
3.71555118110595
 30
0.0
 40
0.0688976377979456
 50
8.99999997602932
 51
179.999999992693
  0
ARC
  8
3
  6
CONTINUOUS
 62
3
 10
1.51181102362659
 20
3.71555118110012
 30
0.0
 40
0.068897637792871
 50
270.999999991931
 51
89.999999997782
  0
ARC
  8
3
  6
CONTINUOUS
 62
3
 10
1.51181102360838
 20
3.71555118110623
 30
0.0
 40
0.0688976377867679
 50
89.9999999826341
 51
179.999999992925
  0
ARC
  8
3
  6
CONTINUOUS
 62
3
 10
1.39370078735914
 20
2.50393700783675
 30
0.0
 40
0.19685039366352
 50
179.999999989152
 51
270.000000010848
  0
LINE
  8
3
  6
CONTINUOUS
 62
3
 10
1.39370078739641
 20
2.30708661417323
 30
0.0
 11
1.70509144193532
 21
2.30708661417766
 31
0.0
  0
LINE
  8
3
  6
CONTINUOUS
 62
3
 10
1.75509144193532
 20
2.30708661417837
 30
0.0
 11
2.10236220471924
 21
2.30708661418331
 31
0.0
  0
ARC
  8
3
  6
CONTINUOUS
 62
3
 10
2.10236220473059
 20
3.68503937009384
 30
0.0
 40
0.19685039368569
 50
19.7943062853686
 51
90.0000000033024
  0
LINE
  8
3
  6
CONTINUOUS
 62
3
 10
2.10236220471924
 20
3.88188976377953
 30
0.0
 11
1.7634503049349
 21
3.88188976377471
 31
0.0
  0
LINE
  8
3
  6
CONTINUOUS
 62
3
 10
1.7134503049349
 20
3.881889763774
 30
0.0
 11
1.39370078743176
 21
3.88188976376945
 31
0.0
  0
ARC
  8
3
  6
CONTINUOUS
 62
3
 10
2.84494444877646
 20
1.55118110232494
 30
0.0
 40
0.19685039366352
 50
179.999999989152
 51
270.000000010848
  0
LINE
  8
3
  6
CONTINUOUS
 62
3
 10
2.64809405511294
 20
1.55118110236221
 30
0.0
 11
2.64809405510433
 21
2.14960629924795
 31
0.0
  0
ARC
  8
3
  6
CONTINUOUS
 62
3
 10
2.84494444880377
 20
2.14960629921395
 30
0.0
 40
0.196850393699441
 50
89.999999997101
 51
179.999999990103
  0
ARC
  8
3
  6
CONTINUOUS
 62
3
 10
3.19041688979015
 20
2.14960629924413
 30
0.0
 40
0.196850393669258
 50
359.999999990822
 51
90.0000000091777
  0
LINE
  8
3
  6
CONTINUOUS
 62
3
 10
3.3872672834594
 20
2.1496062992126
 30
0.0
 11
3.38726728346801
 21
1.55118110236219
 31
0.0
  0
ARC
  8
3
  6
CONTINUOUS
 62
3
 10
3.19041688976858
 20
1.55118110236086
 30
0.0
 40
0.196850393699435
 50
269.999999997099
 51
3.89223559698779E-10
  0
LINE
  8
3
  6
CONTINUOUS
 62
3
 10
3.19041688975861
 20
1.35433070866142
 30
0.0
 11
2.84494444881373
 21
1.35433070866142
 31
0.0
  0
ARC
  8
3
  6
CONTINUOUS
 62
3
 10
3.62348775589902
 20
1.55511811024152
 30
0.0
 40
0.0590551181128878
 50
179.999999994854
 51
359.999999984564
  0
ARC
  8
3
  6
CONTINUOUS
 62
3
 10
3.62348775590105
 20
1.55511811024006
 30
0.0
 40
0.0590551181108584
 50
359.999999985982
 51
152.99999998438
  0
ARC
  8
3
  6
CONTINUOUS
 62
3
 10
4.0565586220048
 20
1.55118110232493
 30
0.0
 40
0.19685039366351
 50
179.999999989152
 51
270.000000010848
  0
LINE
  8
3
  6
CONTINUOUS
 62
3
 10
3.85970822834129
 20
1.5511811023622
 30
0.0
 11
3.85970822833268
 21
2.14960629924795
 31
0.0
  0
ARC
  8
3
  6
CONTINUOUS
 62
3
 10
4.05655862204067
 20
2.14960629921462
 30
0.0
 40
0.196850393698766
 50
89.9999999995904
 51
159.742882866744
  0
LINE
  8
3
  6
CONTINUOUS
 62
3
 10
4.05655862204207
 20
2.34645669291339
 30
0.0
 11
4.40203106302232
 21
2.34645669291052
 31
0.0
  0
ARC
  8
3
  6
CONTINUOUS
 62
3
 10
4.40203106303761
 20
2.14960629926038
 30
0.0
 40
0.196850393650138
 50
359.999999986093
 51
90.0000000044492
  0
LINE
  8
3
  6
CONTINUOUS
 62
3
 10
4.59888145668774
 20
2.1496062992126
 30
0.0
 11
4.59888145669636
 21
1.55118110236219
 31
0.0
  0
ARC
  8
3
  6
CONTINUOUS
 62
3
 10
4.40203106299693
 20
1.55118110236086
 30
0.0
 40
0.196850393699435
 50
269.999999997099
 51
3.89185393042602E-10
  0
LINE
  8
3
  6
CONTINUOUS
 62
3
 10
4.40203106298696
 20
1.35433070866142
 30
0.0
 11
4.05655862204207
 21
1.35433070866142
 31
0.0
  0
ARC
  8
3
  6
CONTINUOUS
 62
3
 10
3.62348775589902
 20
2.14566929134388
 30
0.0
 40
0.0590551181128876
 50
179.999999994854
 51
359.999999984565
  0
ARC
  8
3
  6
CONTINUOUS
 62
3
 10
3.62348775590308
 20
2.1456692913433
 30
0.0
 40
0.0590551181088299
 50
359.999999985129
 51
134.99999998613
  0
ARC
  8
3
  6
CONTINUOUS
 62
3
 10
3.62348775602462
 20
3.09448818895944
 30
0.0
 40
0.393700787378337
 50
278.362362729789
 51
70.162276358286
  0
ARC
  8
3
  6
CONTINUOUS
 62
3
 10
3.62348775581226
 20
3.09448818893673
 30
0.0
 40
0.393700787386752
 50
117.902890515533
 51
278.362362760845
  0
ARC
  8
3
  6
CONTINUOUS
 62
3
 10
3.00242476377282
 20
2.85826771654162
 30
0.0
 40
0.0688976377983686
 50
179.999999994854
 51
359.999999984564
  0
ARC
  8
3
  6
CONTINUOUS
 62
3
 10
3.00242476376173
 20
2.8582677165469
 30
0.0
 40
0.0688976377872776
 50
71.9999999661416
 51
179.99999999925
  0
ARC
  8
3
  6
CONTINUOUS
 62
3
 10
3.0820704330657
 20
3.45275590551182
 30
0.0
 40
0.068897637795275
 50
89.9999999999998
 51
270
  0
LINE
  8
3
  6
CONTINUOUS
 62
3
 10
3.0820704330657
 20
3.52165354330709
 30
0.0
 11
3.14506255906233
 21
3.52165354330709
 31
0.0
  0
LINE
  8
3
  6
CONTINUOUS
 62
3
 10
3.14506255904686
 20
3.38385826771653
 30
0.0
 11
3.0820704330657
 21
3.38385826771654
 31
0.0
  0
ARC
  8
3
  6
CONTINUOUS
 62
3
 10
2.84494444877646
 20
4.03937007870289
 30
0.0
 40
0.19685039366352
 50
179.999999989152
 51
270.000000010848
  0
LINE
  8
3
  6
CONTINUOUS
 62
3
 10
2.64809405511294
 20
4.03937007874016
 30
0.0
 11
2.64809405510433
 21
4.6377952756259
 31
0.0
  0
ARC
  8
3
  6
CONTINUOUS
 62
3
 10
2.84494444880377
 20
4.6377952755919
 30
0.0
 40
0.196850393699441
 50
89.9999999971008
 51
179.999999990103
  0
LINE
  8
3
  6
CONTINUOUS
 62
3
 10
2.84494444881373
 20
4.83464566929134
 30
0.0
 11
3.19041688979397
 21
4.83464566928847
 31
0.0
  0
ARC
  8
3
  6
CONTINUOUS
 62
3
 10
3.19041688979074
 20
4.63779527562659
 30
0.0
 40
0.196850393661874
 50
14.8457297033744
 51
89.9999999990617
  0
LINE
  8
3
  6
CONTINUOUS
 62
3
 10
3.38726728346276
 20
4.63779527555519
 30
0.0
 11
3.38726728346801
 21
4.03937007874015
 31
0.0
  0
ARC
  8
3
  6
CONTINUOUS
 62
3
 10
3.19041688976858
 20
4.03937007873881
 30
0.0
 40
0.196850393699441
 50
269.999999997101
 51
3.90559392664994E-10
  0
LINE
  8
3
  6
CONTINUOUS
 62
3
 10
3.19041688975861
 20
3.84251968503937
 30
0.0
 11
2.84494444881373
 21
3.84251968503937
 31
0.0
  0
ARC
  8
3
  6
CONTINUOUS
 62
3
 10
3.62348775589902
 20
4.63385826772184
 30
0.0
 40
0.0590551181128876
 50
179.999999994854
 51
359.999999984565
  0
ARC
  8
3
  6
CONTINUOUS
 62
3
 10
3.6234877558959
 20
4.63385826772165
 30
0.0
 40
0.0590551181097674
 50
44.9999999723321
 51
179.999999994666
  0
ARC
  8
3
  6
CONTINUOUS
 62
3
 10
3.62348775589902
 20
4.04330708661947
 30
0.0
 40
0.0590551181128876
 50
179.999999994854
 51
359.999999984565
  0
ARC
  8
3
  6
CONTINUOUS
 62
3
 10
3.62348775590197
 20
4.04330708661842
 30
0.0
 40
0.0590551181099361
 50
359.99999998559
 51
143.99999998521
  0
ARC
  8
3
  6
CONTINUOUS
 62
3
 10
4.05655862200481
 20
4.03937007870288
 30
0.0
 40
0.196850393663515
 50
179.99999998915
 51
270.000000010846
  0
LINE
  8
3
  6
CONTINUOUS
 62
3
 10
3.85970822834129
 20
4.03937007874016
 30
0.0
 11
3.85970822833268
 21
4.6377952756259
 31
0.0
  0
ARC
  8
3
  6
CONTINUOUS
 62
3
 10
4.05655862203211
 20
4.6377952755919
 30
0.0
 40
0.196850393699441
 50
89.9999999971011
 51
179.999999990103
  0
ARC
  8
3
  6
CONTINUOUS
 62
3
 10
4.40203106301849
 20
4.63779527562209
 30
0.0
 40
0.196850393669252
 50
359.99999999082
 51
90.0000000091764
  0
LINE
  8
3
  6
CONTINUOUS
 62
3
 10
4.59888145668774
 20
4.63779527559055
 30
0.0
 11
4.59888145669636
 21
4.03937007874015
 31
0.0
  0
ARC
  8
3
  6
CONTINUOUS
 62
3
 10
4.40203106299692
 20
4.03937007873881
 30
0.0
 40
0.19685039369944
 50
269.999999997101
 51
3.90623003758623E-10
  0
LINE
  8
3
  6
CONTINUOUS
 62
3
 10
4.40203106298696
 20
3.84251968503937
 30
0.0
 11
4.05655862204207
 21
3.84251968503937
 31
0.0
  0
ARC
  8
3
  6
CONTINUOUS
 62
3
 10
4.24455074803604
 20
3.48818897637571
 30
0.0
 40
0.0688976377928712
 50
270.999999991931
 51
89.9999999977822
  0
ARC
  8
3
  6
CONTINUOUS
 62
3
 10
4.24455074801783
 20
3.48818897638182
 30
0.0
 40
0.0688976377867686
 50
89.9999999826347
 51
179.999999992925
  0
ARC
  8
3
  6
CONTINUOUS
 62
3
 10
4.24455074803604
 20
2.85826771653319
 30
0.0
 40
0.0688976377928712
 50
270.999999991931
 51
89.9999999977822
  0
ARC
  8
3
  6
CONTINUOUS
 62
3
 10
4.24455074801783
 20
2.8582677165393
 30
0.0
 40
0.0688976377867686
 50
89.9999999826347
 51
179.999999992925
  0
LINE
  8
3
  6
CONTINUOUS
 62
3
 10
2.80557437007357
 20
1.19685039368701
 30
0.0
 11
4.44140114172711
 21
1.19685039370993
 31
0.0
  0
ARC
  8
3
  6
CONTINUOUS
 62
3
 10
4.44140114173142
 20
1.51181102362688
 30
0.0
 40
0.314960629916959
 50
269.999999999217
 51
359.99999999912
  0
LINE
  8
3
  6
CONTINUOUS
 62
3
 10
4.75636177164837
 20
1.51181102362205
 30
0.0
 11
4.7563617716515
 21
2.42239890500795
 31
0.0
  0
ARC
  8
3
  6
CONTINUOUS
 62
3
 10
4.55951137794599
 20
2.42239890503891
 30
0.0
 40
0.196850393705506
 50
359.999999990988
 51
45.0000000009816
  0
LINE
  8
3
  6
CONTINUOUS
 62
3
 10
4.69870562621201
 20
2.5615931533097
 30
0.0
 11
4.49905728715686
 21
2.76124149235296
 31
0.0
  0
ARC
  8
3
  6
CONTINUOUS
 62
3
 10
4.63825153539307
 20
2.90043574059762
 30
0.0
 40
0.196850393665953
 50
179.999999991747
 51
225.000000001739
  0
LINE
  8
3
  6
CONTINUOUS
 62
3
 10
4.44140114172711
 20
2.90043574062598
 30
0.0
 11
4.44140114172711
 21
3.08950665545666
 31
0.0
  0
LINE
  8
3
  6
CONTINUOUS
 62
3
 10
4.44140114171774
 20
3.13950665545666
 30
0.0
 11
4.44140114171774
 21
3.28854063736212
 31
0.0
  0
ARC
  8
3
  6
CONTINUOUS
 62
3
 10
4.63825153534103
 20
3.28854063735018
 30
0.0
 40
0.196850393623289
 50
134.999999986529
 51
179.999999996522
  0
LINE
  8
3
  6
CONTINUOUS
 62
3
 10
4.49905728716348
 20
3.42773488559317
 30
0.0
 11
4.69870562620538
 21
3.62738322464968
 31
0.0
  0
ARC
  8
3
  6
CONTINUOUS
 62
3
 10
4.55951137799179
 20
3.76657747290371
 30
0.0
 40
0.196850393656589
 50
314.999999991678
 51
1.67022694375971E-9
  0
LINE
  8
3
  6
CONTINUOUS
 62
3
 10
4.75636177164837
 20
3.76657747290945
 30
0.0
 11
4.75636177165142
 21
4.67716535427414
 31
0.0
  0
ARC
  8
3
  6
CONTINUOUS
 62
3
 10
4.44140114175856
 20
4.67716535435911
 30
0.0
 40
0.314960629892864
 50
359.999999984543
 51
90.0000000057195
  0
ARC
  8
3
  6
CONTINUOUS
 62
3
 10
2.68746413381359
 20
3.76657747289239
 30
0.0
 40
0.196850393661273
 50
179.999999995035
 51
225.000000005028
  0
LINE
  8
3
  6
CONTINUOUS
 62
3
 10
2.54826988558867
 20
3.62738322464305
 30
0.0
 11
2.74791822466
 21
3.42773488556596
 31
0.0
  0
ARC
  8
3
  6
CONTINUOUS
 62
3
 10
2.60872397645653
 20
3.28854063735772
 30
0.0
 40
0.196850393617043
 50
359.99999999099
 51
45.0000000009824
  0
LINE
  8
3
  6
CONTINUOUS
 62
3
 10
2.80557437007357
 20
3.28854063732677
 30
0.0
 11
2.80557437007357
 21
3.10607120347053
 31
0.0
  0
LINE
  8
3
  6
CONTINUOUS
 62
3
 10
2.80557437007357
 20
3.05607120347053
 30
0.0
 11
2.80557437007357
 21
2.81889763779528
 31
0.0
  0
LINE
  8
3
  6
CONTINUOUS
 62
3
 10
2.80557437007357
 20
2.81889763779528
 30
0.0
 11
2.5482698856203
 21
2.56159315332807
 31
0.0
  0
ARC
  8
3
  6
CONTINUOUS
 62
3
 10
2.68746413385156
 20
2.42239890503137
 30
0.0
 40
0.19685039369925
 50
134.999999986533
 51
179.999999996525
  0
LINE
  8
3
  6
CONTINUOUS
 62
3
 10
2.49061374015231
 20
2.42239890504331
 30
0.0
 11
2.49061374016145
 21
1.51181102367861
 31
0.0
  0
ARC
  8
3
  6
CONTINUOUS
 62
3
 10
2.8055743700507
 20
1.51181102357626
 30
0.0
 40
0.314960629889248
 50
179.99999998138
 51
270.000000004162
  0
LINE
  8
3
  6
CONTINUOUS
 62
3
 10
2.49061374013854
 20
4.67716535438727
 30
0.0
 11
2.49061374015231
 21
3.76657747290945
 31
0.0
  0
ARC
  8
3
  6
CONTINUOUS
 62
3
 10
2.80557437008228
 20
4.67716535430822
 30
0.0
 40
0.314960629943749
 50
90.0000000015843
 51
179.999999985619
  0
LINE
  8
3
  6
CONTINUOUS
 62
3
 10
2.29921259842864
 20
2.50393700787402
 30
0.0
 11
2.29921259842339
 21
3.68503937004338
 31
0.0
  0
ARC
  8
3
  6
CONTINUOUS
 62
3
 10
2.10236220473424
 20
2.50393700787771
 30
0.0
 40
0.196850393694403
 50
269.999999995633
 51
359.999999998923
  0
LINE
  8
3
  6
CONTINUOUS
 62
3
 10
1.196850393687
 20
3.68503937011409
 30
0.0
 11
1.19685039369562
 21
2.50393700787402
 31
0.0
  0
ARC
  8
3
  6
CONTINUOUS
 62
3
 10
1.39370078739908
 20
3.68503937005737
 30
0.0
 40
0.196850393712078
 50
89.9999999904888
 51
179.99999998349
  0
LINE
  8
9
  6
CONTINUOUS
 62
9
 10
4.13842989680195
 20
5.14048839158917
 30
0.0
 11
4.14490753936491
 21
4.99212598425197
 31
0.0
  0
LINE
  8
9
  6
CONTINUOUS
 62
9
 10
4.14707760389743
 20
5.04182863327518
 30
0.0
 11
4.14490753936491
 21
4.99212598425197
 31
0.0
  0
LINE
  8
9
  6
CONTINUOUS
 62
9
 10
4.14432389778186
 20
4.68628326195472
 30
0.0
 11
4.13784625520558
 21
4.83464566929134
 31
0.0
  0
LINE
  8
9
  6
CONTINUOUS
 62
9
 10
4.13567619067752
 20
4.78494302026793
 30
0.0
 11
4.13784625520558
 21
4.83464566929134
 31
0.0
  0
LINE
  8
9
  6
CONTINUOUS
 62
9
 10
3.62642577256369
 20
4.63325166482454
 30
0.0
 11
3.66524603038775
 21
4.67561654218817
 31
0.0
  0
LINE
  8
9
  6
CONTINUOUS
 62
9
 10
3.62856648287621
 20
4.64200592936501
 30
0.0
 11
3.66524603038775
 21
4.67561654218817
 31
0.0
  0
LINE
  8
9
  6
CONTINUOUS
 62
9
 10
3.23894599268129
 20
4.64395732435218
 30
0.0
 11
3.38069625997397
 21
4.68823175813191
 31
0.0
  0
LINE
  8
9
  6
CONTINUOUS
 62
9
 10
3.33209671696198
 20
4.67759470407423
 30
0.0
 11
3.38069625997397
 21
4.68823175813191
 31
0.0
  0
LINE
  8
9
  6
CONTINUOUS
 62
9
 10
3.62424957072431
 20
4.04589194202798
 30
0.0
 11
3.57571116174894
 21
4.07801881411958
 31
0.0
  0
LINE
  8
9
  6
CONTINUOUS
 62
9
 10
3.61464591754027
 20
4.04704871093167
 30
0.0
 11
3.57571116174894
 21
4.07801881411958
 31
0.0
  0
LINE
  8
9
  6
CONTINUOUS
 62
9
 10
3.51440023986356
 20
3.31433539597987
 30
0.0
 11
3.43924586647759
 21
3.44241811895618
 31
0.0
  0
LINE
  8
9
  6
CONTINUOUS
 62
9
 10
3.46058765657866
 20
3.3974782647588
 30
0.0
 11
3.43924586647759
 21
3.44241811895618
 31
0.0
  0
LINE
  8
9
  6
CONTINUOUS
 62
9
 10
3.13817531662059
 20
3.45658672205142
 30
0.0
 11
3.1855595744598
 21
3.39701654566023
 31
0.0
  0
LINE
  8
9
  6
CONTINUOUS
 62
9
 10
3.15810070945091
 20
3.43850236531494
 30
0.0
 11
3.1855595744598
 21
3.39701654566023
 31
0.0
  0
LINE
  8
9
  6
CONTINUOUS
 62
9
 10
3.00556748064631
 20
2.85835432437913
 30
0.0
 11
3.02371530473724
 21
2.92379326391308
 31
0.0
  0
LINE
  8
9
  6
CONTINUOUS
 62
9
 10
3.00629248750587
 20
2.8771938225031
 30
0.0
 11
3.02371530473724
 21
2.92379326391308
 31
0.0
  0
LINE
  8
9
  6
CONTINUOUS
 62
9
 10
2.94287067869896
 20
2.19809428557677
 30
0.0
 11
2.93639303612267
 21
2.34645669291339
 31
0.0
  0
LINE
  8
9
  6
CONTINUOUS
 62
9
 10
2.93422297159461
 20
2.29675404388998
 30
0.0
 11
2.93639303612267
 21
2.34645669291339
 31
0.0
  0
LINE
  8
9
  6
CONTINUOUS
 62
9
 10
3.6240943587873
 20
2.14860730799657
 30
0.0
 11
3.58172948142716
 21
2.18742756582444
 31
0.0
  0
LINE
  8
9
  6
CONTINUOUS
 62
9
 10
3.61534009424703
 20
2.15074801830987
 30
0.0
 11
3.58172948142716
 21
2.18742756582444
 31
0.0
  0
LINE
  8
9
  6
CONTINUOUS
 62
9
 10
4.01331247583502
 20
2.17247145858445
 30
0.0
 11
3.87188375295147
 21
2.21776251849246
 31
0.0
  0
LINE
  8
9
  6
CONTINUOUS
 62
9
 10
3.91776086113523
 20
2.19851794926641
 30
0.0
 11
3.87188375295147
 21
2.21776251849246
 31
0.0
  0
LINE
  8
9
  6
CONTINUOUS
 62
9
 10
4.24160744760683
 20
2.85716265867719
 30
0.0
 11
4.24575317760367
 21
2.7893805721841
 31
0.0
  0
LINE
  8
9
  6
CONTINUOUS
 62
9
 10
4.24705548079088
 20
2.8391135241014
 30
0.0
 11
4.24575317760367
 21
2.7893805721841
 31
0.0
  0
LINE
  8
9
  6
CONTINUOUS
 62
9
 10
4.24160744760683
 20
3.48708391851971
 30
0.0
 11
4.24575317760367
 21
3.41930183202662
 31
0.0
  0
LINE
  8
9
  6
CONTINUOUS
 62
9
 10
4.24705548079088
 20
3.46903478394392
 30
0.0
 11
4.24575317760367
 21
3.41930183202662
 31
0.0
  0
LINE
  8
9
  6
CONTINUOUS
 62
9
 10
2.42498429174681
 20
3.80803866607697
 30
0.0
 11
2.28758157991568
 21
3.75170165741025
 31
0.0
  0
LINE
  8
9
  6
CONTINUOUS
 62
9
 10
2.33508239963562
 20
3.76649133712057
 30
0.0
 11
2.28758157991568
 21
3.75170165741025
 31
0.0
  0
LINE
  8
9
  6
CONTINUOUS
 62
9
 10
2.14396748402952
 20
3.71293909732539
 30
0.0
 11
2.20978167700759
 21
3.72632914620116
 31
0.0
  0
LINE
  8
9
  6
CONTINUOUS
 62
9
 10
2.16035147718602
 20
3.72069728633075
 30
0.0
 11
2.20978167700759
 21
3.72632914620116
 31
0.0
  0
LINE
  8
9
  6
CONTINUOUS
 62
9
 10
1.84557103253708
 20
3.31969680206572
 30
0.0
 11
1.89491134567081
 21
3.45976427603426
 31
0.0
  0
LINE
  8
9
  6
CONTINUOUS
 62
9
 10
1.87435515033608
 20
3.41445969201277
 30
0.0
 11
1.89491134567081
 21
3.45976427603426
 31
0.0
  0
LINE
  8
9
  6
CONTINUOUS
 62
9
 10
1.50886772319737
 20
3.71444612324412
 30
0.0
 11
1.51301345319422
 21
3.64666403675103
 31
0.0
  0
LINE
  8
9
  6
CONTINUOUS
 62
9
 10
1.51431575638143
 20
3.69639698866833
 30
0.0
 11
1.51301345319422
 21
3.64666403675103
 31
0.0
  0
LINE
  8
9
  6
CONTINUOUS
 62
9
 10
1.51498597787568
 20
2.47474382063747
 30
0.0
 11
1.52258898874017
 21
2.54147459039209
 31
0.0
  0
LINE
  8
9
  6
CONTINUOUS
 62
9
 10
1.51267043398856
 20
2.49272333634012
 30
0.0
 11
1.52258898874017
 21
2.54147459039209
 31
0.0
  0
LINE
  8
9
  6
CONTINUOUS
 62
9
 10
2.10524569071587
 20
2.58752906719333
 30
0.0
 11
2.03740157479798
 21
2.58456692913386
 31
0.0
  0
LINE
  8
9
  6
CONTINUOUS
 62
9
 10
2.08710422382129
 20
2.58239686460357
 30
0.0
 11
2.03740157479798
 21
2.58456692913386
 31
0.0
  0
LINE
  8
9
  6
CONTINUOUS
 62
9
 10
3.62315677244686
 20
1.55809978071818
 30
0.0
 11
3.57086926038005
 21
1.58192857282828
 31
0.0
  0
LINE
  8
9
  6
CONTINUOUS
 62
9
 10
3.61416945624351
 20
1.55743050069625
 30
0.0
 11
3.57086926038005
 21
1.58192857282828
 31
0.0
  0
LINE
  8
0
  6
CONTINUOUS
 62
0
 10
1.196850393687
 20
1.19685039368701
 30
0.0
 11
3.62315677244686
 21
1.55809978071818
 31
0.0
  0
LINE
  8
0
  6
CONTINUOUS
 62
0
 10
3.61416945624351
 20
1.55743050069625
 30
0.0
 11
2.10524569071587
 21
2.58752906719333
 31
0.0
  0
LINE
  8
0
  6
CONTINUOUS
 62
0
 10
2.08710422382129
 20
2.58239686460357
 30
0.0
 11
1.51498597787568
 21
2.47474382063747
 31
0.0
  0
LINE
  8
0
  6
CONTINUOUS
 62
0
 10
1.51267043398856
 20
2.49272333634012
 30
0.0
 11
1.50886772319737
 21
3.71444612324412
 31
0.0
  0
LINE
  8
0
  6
CONTINUOUS
 62
0
 10
1.51431575638143
 20
3.69639698866833
 30
0.0
 11
1.84557103253708
 21
3.31969680206572
 31
0.0
  0
LINE
  8
0
  6
CONTINUOUS
 62
0
 10
1.87435515033608
 20
3.41445969201277
 30
0.0
 11
2.14396748402952
 21
3.71293909732539
 31
0.0
  0
LINE
  8
0
  6
CONTINUOUS
 62
0
 10
2.16035147718602
 20
3.72069728633075
 30
0.0
 11
2.42498429174681
 21
3.80803866607697
 31
0.0
  0
LINE
  8
0
  6
CONTINUOUS
 62
0
 10
2.33508239963562
 20
3.76649133712057
 30
0.0
 11
4.24160744760683
 21
3.48708391851971
 31
0.0
  0
LINE
  8
0
  6
CONTINUOUS
 62
0
 10
4.24705548079088
 20
3.46903478394392
 30
0.0
 11
4.24160744760683
 21
2.85716265867719
 31
0.0
  0
LINE
  8
0
  6
CONTINUOUS
 62
0
 10
4.24705548079088
 20
2.8391135241014
 30
0.0
 11
4.01331247583502
 21
2.17247145858445
 31
0.0
  0
LINE
  8
0
  6
CONTINUOUS
 62
0
 10
3.91776086113523
 20
2.19851794926641
 30
0.0
 11
3.6240943587873
 21
2.14860730799657
 31
0.0
  0
LINE
  8
0
  6
CONTINUOUS
 62
0
 10
3.61534009424703
 20
2.15074801830987
 30
0.0
 11
2.94287067869896
 21
2.19809428557677
 31
0.0
  0
LINE
  8
0
  6
CONTINUOUS
 62
0
 10
2.93422297159461
 20
2.29675404388998
 30
0.0
 11
3.00556748064631
 21
2.85835432437913
 31
0.0
  0
LINE
  8
0
  6
CONTINUOUS
 62
0
 10
3.00629248750587
 20
2.8771938225031
 30
0.0
 11
3.13817531662059
 21
3.45658672205142
 31
0.0
  0
LINE
  8
0
  6
CONTINUOUS
 62
0
 10
3.15810070945091
 20
3.43850236531494
 30
0.0
 11
3.51440023986356
 21
3.31433539597987
 31
0.0
  0
LINE
  8
0
  6
CONTINUOUS
 62
0
 10
3.46058765657866
 20
3.3974782647588
 30
0.0
 11
3.62424957072431
 21
4.04589194202798
 31
0.0
  0
LINE
  8
0
  6
CONTINUOUS
 62
0
 10
3.61464591754027
 20
4.04704871093167
 30
0.0
 11
3.23894599268129
 21
4.64395732435218
 31
0.0
  0
LINE
  8
0
  6
CONTINUOUS
 62
0
 10
3.33209671696198
 20
4.67759470407423
 30
0.0
 11
3.62642577256369
 21
4.63325166482454
 31
0.0
  0
LINE
  8
0
  6
CONTINUOUS
 62
0
 10
3.62856648287621
 20
4.64200592936501
 30
0.0
 11
4.14432389778186
 21
4.68628326195472
 31
0.0
  0
LINE
  8
0
  6
CONTINUOUS
 62
0
 10
4.13567619067752
 20
4.78494302026793
 30
0.0
 11
4.13842989680195
 21
5.14048839158917
 31
0.0
  0
LINE
  8
3
  6
CONTINUOUS
 62
3
 10
4.44140114172711
 20
4.99212598425197
 30
0.0
 11
4.14490753936491
 21
4.99212598425197
 31
0.0
  0
LINE
  8
3
  6
CONTINUOUS
 62
3
 10
4.14490753936491
 20
4.99212598425197
 30
0.0
 11
2.80557437007357
 21
4.99212598425197
 31
0.0
  0
LINE
  8
3
  6
CONTINUOUS
 62
3
 10
4.05655862204207
 20
4.83464566929134
 30
0.0
 11
4.13784625520558
 21
4.83464566929134
 31
0.0
  0
LINE
  8
3
  6
CONTINUOUS
 62
3
 10
4.13784625520558
 20
4.83464566929134
 30
0.0
 11
4.40203106298696
 21
4.83464566929134
 31
0.0
  0
ARC
  8
3
  6
CONTINUOUS
 62
3
 10
3.62348775591447
 20
4.63385826772052
 30
0.0
 40
0.0590551180974341
 50
359.99999998585
 51
44.9999999858506
  0
ARC
  8
3
  6
CONTINUOUS
 62
3
 10
3.19041688989765
 20
4.63779527560094
 30
0.0
 40
0.196850393565111
 50
359.999999986685
 51
14.8457297185651
  0
ARC
  8
3
  6
CONTINUOUS
 62
3
 10
3.62348775588005
 20
4.0433070866155
 30
0.0
 40
0.0590551180939157
 50
143.999999970416
 51
179.999999990996
  0
ARC
  8
3
  6
CONTINUOUS
 62
3
 10
3.62348775585481
 20
3.09448818982681
 30
0.0
 40
0.393700786620059
 50
70.1622762922038
 51
117.902890581624
  0
ARC
  8
3
  6
CONTINUOUS
 62
3
 10
3.14506255905614
 20
3.45275590549277
 30
0.0
 40
0.0688976377762354
 50
269.999999992282
 51
306.000000001029
  0
ARC
  8
3
  6
CONTINUOUS
 62
3
 10
3.14506255905614
 20
3.45275590551382
 30
0.0
 40
0.0688976377932657
 50
305.999999990739
 51
89.9999999948546
  0
ARC
  8
3
  6
CONTINUOUS
 62
3
 10
3.00242476378443
 20
2.85826771654007
 30
0.0
 40
0.06889763778676
 50
359.999999985849
 51
71.9999999858504
  0
LINE
  8
3
  6
CONTINUOUS
 62
3
 10
2.84494444881373
 20
2.34645669291339
 30
0.0
 11
2.93639303612267
 21
2.34645669291339
 31
0.0
  0
LINE
  8
3
  6
CONTINUOUS
 62
3
 10
2.93639303612267
 20
2.34645669291339
 30
0.0
 11
3.19041688975861
 21
2.34645669291339
 31
0.0
  0
ARC
  8
3
  6
CONTINUOUS
 62
3
 10
3.62348775588356
 20
2.14566929133991
 30
0.0
 40
0.059055118097434
 50
134.999999970416
 51
179.999999990996
  0
ARC
  8
3
  6
CONTINUOUS
 62
3
 10
4.05655862193451
 20
2.14960629920694
 30
0.0
 40
0.196850393601838
 50
159.742882853947
 51
179.999999988062
  0
ARC
  8
3
  6
CONTINUOUS
 62
3
 10
4.24455074802633
 20
2.85826771653543
 30
0.0
 40
0.0688976377952756
 50
179.999999989709
 51
270.999999999971
  0
ARC
  8
3
  6
CONTINUOUS
 62
3
 10
4.24455074802633
 20
3.48818897637795
 30
0.0
 40
0.0688976377952756
 50
179.999999989709
 51
270.999999999971
  0
ARC
  8
3
  6
CONTINUOUS
 62
3
 10
2.10236220482392
 20
3.68503937008913
 30
0.0
 40
0.196850393599476
 50
359.999999986686
 51
19.7943062958583
  0
ARC
  8
3
  6
CONTINUOUS
 62
3
 10
2.14173228353956
 20
3.715551181107
 30
0.0
 40
0.068897637716666
 50
359.99999998585
 51
8.9999999858502
  0
ARC
  8
3
  6
CONTINUOUS
 62
3
 10
1.51181102361688
 20
3.71555118110236
 30
0.0
 40
0.0688976377952758
 50
179.999999989709
 51
270.99999999997
  0
ARC
  8
3
  6
CONTINUOUS
 62
3
 10
1.51181102362567
 20
2.47342519685503
 30
0.0
 40
0.0688976377880319
 50
359.99999998585
 51
80.99999998585
  0
LINE
  8
3
  6
CONTINUOUS
 62
3
 10
2.03740157479798
 20
2.55307086614173
 30
0.0
 11
2.03740157479798
 21
2.58456692913386
 31
0.0
  0
LINE
  8
3
  6
CONTINUOUS
 62
3
 10
2.03740157479798
 20
2.58456692913386
 30
0.0
 11
2.03740157479798
 21
2.61606299212598
 31
0.0
  0
ARC
  8
3
  6
CONTINUOUS
 62
3
 10
3.62348775587428
 20
1.55511811023755
 30
0.0
 40
0.0590551180881491
 50
152.999999970417
 51
179.999999990997
  0
LINE
  8
0
  6
CONTINUOUS
 62
0
 10
1.76345030493276
 20
4.03188976377471
 30
0.0
 11
1.71345030493276
 21
4.031889763774
 31
0.0
  0
LINE
  8
4
  6
CONTINUOUS
 62
4
 10
1.7134503049349
 20
3.881889763774
 30
0.0
 11
1.71345030493276
 21
4.031889763774
 31
0.0
  0
LINE
  8
4
  6
CONTINUOUS
 62
4
 10
1.7634503049349
 20
3.88188976377471
 30
0.0
 11
1.76345030493276
 21
4.03188976377471
 31
0.0
  0
LINE
  8
0
  6
CONTINUOUS
 62
0
 10
1.70509144193745
 20
2.15708661417766
 30
0.0
 11
1.75509144193745
 21
2.15708661417837
 31
0.0
  0
LINE
  8
4
  6
CONTINUOUS
 62
4
 10
1.75509144193532
 20
2.30708661417837
 30
0.0
 11
1.75509144193745
 21
2.15708661417837
 31
0.0
  0
LINE
  8
4
  6
CONTINUOUS
 62
4
 10
1.70509144193532
 20
2.30708661417766
 30
0.0
 11
1.70509144193745
 21
2.15708661417766
 31
0.0
  0
LINE
  8
0
  6
CONTINUOUS
 62
0
 10
2.65557437007357
 20
3.10607120347053
 30
0.0
 11
2.65557437007357
 21
3.05607120347053
 31
0.0
  0
LINE
  8
4
  6
CONTINUOUS
 62
4
 10
2.80557437007357
 20
3.05607120347053
 30
0.0
 11
2.65557437007357
 21
3.05607120347053
 31
0.0
  0
LINE
  8
4
  6
CONTINUOUS
 62
4
 10
2.80557437007357
 20
3.10607120347053
 30
0.0
 11
2.65557437007357
 21
3.10607120347053
 31
0.0
  0
LINE
  8
0
  6
CONTINUOUS
 62
0
 10
4.59140114172711
 20
3.08950665545666
 30
0.0
 11
4.59140114171774
 21
3.13950665545666
 31
0.0
  0
LINE
  8
4
  6
CONTINUOUS
 62
4
 10
4.44140114171774
 20
3.13950665545666
 30
0.0
 11
4.59140114171774
 21
3.13950665545666
 31
0.0
  0
LINE
  8
4
  6
CONTINUOUS
 62
4
 10
4.44140114172711
 20
3.08950665545666
 30
0.0
 11
4.59140114172711
 21
3.08950665545666
 31
0.0
  0
ENDSEC
  0
EOF
