  0
SECTION
  2
HEADER
  9
$ACADVER
  1
AC1003
  9
$EXTMIN
 10
0.999999999989923
 20
2.7248031496063
  9
$EXTMAX
 10
2.10236220473449
 20
0.849999999994375
  9
$INSBASE
 10
1.5511811023622
 20
1.78740157480034
999
Created with OMAX Layout for Windows. (http://www.omax.com) 2025-02-23
  0
ENDSEC
  0
SECTION
  2
TABLES
  0
TABLE
  2
LAYER
 70
    10
  0
LAYER
  2
0
 70
     0
 62
     7
  6
CONTINUOUS
  0
LAYER
  2
1
 70
     0
 62
     7
  6
CONTINUOUS
  0
LAYER
  2
2
 70
     0
 62
     7
  6
CONTINUOUS
  0
LAYER
  2
3
 70
     0
 62
     7
  6
CONTINUOUS
  0
LAYER
  2
4
 70
     0
 62
     7
  6
CONTINUOUS
  0
LAYER
  2
5
 70
     0
 62
     7
  6
CONTINUOUS
  0
LAYER
  2
6
 70
     0
 62
     7
  6
CONTINUOUS
  0
LAYER
  2
7
 70
     0
 62
     7
  6
CONTINUOUS
  0
LAYER
  2
8
 70
     0
 62
     7
  6
CONTINUOUS
  0
LAYER
  2
9
 70
     0
 62
     7
  6
CONTINUOUS
  0
LAYER
  2
10
 70
     0
 62
     7
  6
CONTINUOUS
  0
LAYER
  2
11
 70
     0
 62
     7
  6
CONTINUOUS
  0
LAYER
  2
12
 70
     0
 62
     7
  6
CONTINUOUS
  0
LAYER
  2
13
 70
     0
 62
     7
  6
CONTINUOUS
  0
LAYER
  2
14
 70
     0
 62
     7
  6
CONTINUOUS
  0
LAYER
  2
15
 70
     0
 62
     7
  6
CONTINUOUS
  0
LAYER
  2
16
 70
     0
 62
     7
  6
CONTINUOUS
  0
LAYER
  2
17
 70
     0
 62
     7
  6
CONTINUOUS
  0
LAYER
  2
18
 70
     0
 62
     7
  6
CONTINUOUS
  0
LAYER
  2
19
 70
     0
 62
     7
  6
CONTINUOUS
  0
LAYER
  2
20
 70
     0
 62
     7
  6
CONTINUOUS
  0
LAYER
  2
21
 70
     0
 62
     7
  6
CONTINUOUS
  0
LAYER
  2
22
 70
     0
 62
     7
  6
CONTINUOUS
  0
LAYER
  2
23
 70
     0
 62
     7
  6
CONTINUOUS
  0
LAYER
  2
24
 70
     0
 62
     7
  6
CONTINUOUS
  0
LAYER
  2
25
 70
     0
 62
     7
  6
CONTINUOUS
  0
LAYER
  2
26
 70
     0
 62
     7
  6
CONTINUOUS
  0
LAYER
  2
27
 70
     0
 62
     7
  6
CONTINUOUS
  0
LAYER
  2
28
 70
     0
 62
     7
  6
CONTINUOUS
  0
LAYER
  2
29
 70
     0
 62
     7
  6
CONTINUOUS
  0
LAYER
  2
30
 70
     0
 62
     7
  6
CONTINUOUS
  0
LAYER
  2
31
 70
     0
 62
     7
  6
CONTINUOUS
  0
ENDTAB
  0
ENDSEC
  0
SECTION
  2
ENTITIES
  0
ARC
  8
3
  6
CONTINUOUS
 62
3
 10
1.31496062992281
 20
1.16633858267717
 30
0.0
 40
0.0688976377983691
 50
180.000000010289
 51
1.02889035612536E-8
  0
ARC
  8
3
  6
CONTINUOUS
 62
3
 10
1.31496062992214
 20
1.16633858268074
 30
0.0
 40
0.0688976377977037
 50
9.00000001720445
 51
180.000000013258
  0
ARC
  8
3
  6
CONTINUOUS
 62
3
 10
1.55118110223661
 20
1.78740157474665
 30
0.0
 40
0.393700787374864
 50
125.097182291981
 51
278.362362766604
  0
ARC
  8
3
  6
CONTINUOUS
 62
3
 10
1.55118110246084
 20
1.78740157479224
 30
0.0
 40
0.393700787387363
 50
278.362362733355
 51
70.1622763750574
  0
ARC
  8
3
  6
CONTINUOUS
 62
3
 10
1.55118110234968
 20
1.78740157497603
 30
0.0
 40
0.393700787252204
 50
70.1622763507648
 51
125.097182324638
  0
ARC
  8
3
  6
CONTINUOUS
 62
3
 10
1.31496062992281
 20
2.40846456692913
 30
0.0
 40
0.0688976377983691
 50
180.000000010289
 51
1.02890943945345E-8
  0
ARC
  8
3
  6
CONTINUOUS
 62
3
 10
1.3149606298998
 20
2.40846456694879
 30
0.0
 40
0.0688976377753627
 50
80.9999999998396
 51
180.000000026635
  0
ARC
  8
3
  6
CONTINUOUS
 62
3
 10
1.94488188976378
 20
2.40846456692294
 30
0.0
 40
0.0688976377952755
 50
5.14537414148442E-9
 51
179.999999999999
  0
ARC
  8
3
  6
CONTINUOUS
 62
3
 10
1.90944881887167
 20
1.30897637797926
 30
0.0
 40
0.0688976377693071
 50
80.999999995242
 51
180.000000022038
  0
LINE
  8
3
  6
CONTINUOUS
 62
3
 10
1.97834645669756
 20
1.30897637796513
 30
0.0
 11
1.97834645668828
 21
1.24598425198087
 31
0.0
  0
ARC
  8
3
  6
CONTINUOUS
 62
3
 10
1.90944881889532
 20
1.24598425198396
 30
0.0
 40
0.0688976377929579
 50
180.00000001286
 51
359.999999997427
  0
LINE
  8
3
  6
CONTINUOUS
 62
3
 10
1.84055118110236
 20
1.2459842519685
 30
0.0
 11
1.84055118110236
 21
1.30897637795276
 31
0.0
  0
ARC
  8
3
  6
CONTINUOUS
 62
3
 10
1.19685039367189
 20
2.37795275593441
 30
0.0
 40
0.196850393671891
 50
89.9999999915883
 51
180.000000008411
  0
LINE
  8
3
  6
CONTINUOUS
 62
3
 10
1
 20
2.37795275590551
 30
0.0
 11
0.999999999989923
 21
1.19685039370079
 31
0.0
  0
ARC
  8
3
  6
CONTINUOUS
 62
3
 10
1.19685039368698
 20
1.19685039369706
 30
0.0
 40
0.196850393697056
 50
179.999999998913
 51
270.00000000402
  0
LINE
  8
3
  6
CONTINUOUS
 62
3
 10
1.19685039370079
 20
1
 30
0.0
 11
1.54248493834196
 21
0.999999999995085
 31
0.0
  0
LINE
  8
3
  6
CONTINUOUS
 62
3
 10
1.59248493834196
 20
0.999999999994375
 30
0.0
 11
1.90551181102362
 21
0.999999999989924
 31
0.0
  0
ARC
  8
3
  6
CONTINUOUS
 62
3
 10
1.9055118110542
 20
1.19685039366014
 30
0.0
 40
0.196850393670213
 50
269.999999991098
 51
1.18324267481678E-8
  0
LINE
  8
3
  6
CONTINUOUS
 62
3
 10
2.10236220472441
 20
1.19685039370079
 30
0.0
 11
2.10236220473449
 21
2.37795275594086
 31
0.0
  0
ARC
  8
3
  6
CONTINUOUS
 62
3
 10
1.90551181103743
 20
2.37795275590925
 30
0.0
 40
0.196850393697055
 50
9.20153552675484E-9
 51
90.0000000040195
  0
LINE
  8
9
  6
CONTINUOUS
 62
9
 10
1.31543064823251
 20
2.72316555694001
 30
0.0
 11
1.32190829087541
 21
2.5748031496063
 31
0.0
  0
LINE
  8
9
  6
CONTINUOUS
 62
9
 10
1.32407835538115
 20
2.62450579863068
 30
0.0
 11
1.32190829087541
 21
2.5748031496063
 31
0.0
  0
LINE
  8
9
  6
CONTINUOUS
 62
9
 10
1.31813558420108
 20
2.40978319071229
 30
0.0
 11
1.32573859502014
 21
2.47651396047209
 31
0.0
  0
LINE
  8
9
  6
CONTINUOUS
 62
9
 10
1.31582004030172
 20
2.42776270641337
 30
0.0
 11
1.32573859502014
 21
2.47651396047209
 31
0.0
  0
LINE
  8
9
  6
CONTINUOUS
 62
9
 10
1.41541998128713
 20
1.9918564563553
 30
0.0
 11
1.32481692272312
 21
2.10951889531909
 31
0.0
  0
LINE
  8
9
  6
CONTINUOUS
 62
9
 10
1.35161870808704
 20
2.06760557045329
 30
0.0
 11
1.32481692272312
 21
2.10951889531909
 31
0.0
  0
LINE
  8
9
  6
CONTINUOUS
 62
9
 10
1.94173814000837
 20
2.40843282025228
 30
0.0
 11
1.92245101298386
 21
2.34332057057756
 31
0.0
  0
LINE
  8
9
  6
CONTINUOUS
 62
9
 10
1.9406844490025
 20
2.38960884458896
 30
0.0
 11
1.92245101298386
 21
2.34332057057756
 31
0.0
  0
LINE
  8
9
  6
CONTINUOUS
 62
9
 10
1.90907570146189
 20
1.27915397584802
 30
0.0
 11
1.92022678399652
 21
1.37702577149572
 31
0.0
  0
LINE
  8
9
  6
CONTINUOUS
 62
9
 10
1.9103082292781
 20
1.328274517437
 30
0.0
 11
1.92022678399652
 21
1.37702577149572
 31
0.0
  0
LINE
  8
9
  6
CONTINUOUS
 62
9
 10
1.31719583049923
 20
1.1637264988798
 30
0.0
 11
1.38301002346818
 21
1.17711654780037
 31
0.0
  0
LINE
  8
9
  6
CONTINUOUS
 62
9
 10
1.33357982365045
 20
1.17148468789631
 30
0.0
 11
1.38301002346818
 21
1.17711654780037
 31
0.0
  0
LINE
  8
0
  6
CONTINUOUS
 62
0
 10
0.999999999989923
 20
0.999999999989924
 30
0.0
 11
1.31719583049923
 21
1.1637264988798
 31
0.0
  0
LINE
  8
0
  6
CONTINUOUS
 62
0
 10
1.33357982365045
 20
1.17148468789631
 30
0.0
 11
1.90907570146189
 21
1.27915397584802
 31
0.0
  0
LINE
  8
0
  6
CONTINUOUS
 62
0
 10
1.9103082292781
 20
1.328274517437
 30
0.0
 11
1.94173814000837
 21
2.40843282025228
 31
0.0
  0
LINE
  8
0
  6
CONTINUOUS
 62
0
 10
1.9406844490025
 20
2.38960884458896
 30
0.0
 11
1.41541998128713
 21
1.9918564563553
 31
0.0
  0
LINE
  8
0
  6
CONTINUOUS
 62
0
 10
1.35161870808704
 20
2.06760557045329
 30
0.0
 11
1.31813558420108
 21
2.40978319071229
 31
0.0
  0
LINE
  8
0
  6
CONTINUOUS
 62
0
 10
1.31582004030172
 20
2.42776270641337
 30
0.0
 11
1.31543064823251
 21
2.72316555694001
 31
0.0
  0
LINE
  8
3
  6
CONTINUOUS
 62
3
 10
1.90551181102362
 20
2.5748031496063
 30
0.0
 11
1.58390729865725
 21
2.5748031496063
 31
0.0
  0
LINE
  8
3
  6
CONTINUOUS
 62
3
 10
1.53390729865725
 20
2.5748031496063
 30
0.0
 11
1.32190829087541
 21
2.5748031496063
 31
0.0
  0
LINE
  8
3
  6
CONTINUOUS
 62
3
 10
1.32190829087541
 20
2.5748031496063
 30
0.0
 11
1.19685039370079
 21
2.5748031496063
 31
0.0
  0
ARC
  8
3
  6
CONTINUOUS
 62
3
 10
1.31496062993314
 20
2.40846456693068
 30
0.0
 40
0.0688976377880322
 50
9.00216563710198E-9
 51
81.0000000295825
  0
ARC
  8
3
  6
CONTINUOUS
 62
3
 10
1.94488188976819
 20
2.40846456692294
 30
0.0
 40
0.0688976377908627
 50
250.99999999797
 51
5.14486525273538E-9
  0
ARC
  8
3
  6
CONTINUOUS
 62
3
 10
1.94488188975511
 20
2.40846456692294
 30
0.0
 40
0.068897637786602
 50
180
 51
251.00000000826
  0
ARC
  8
3
  6
CONTINUOUS
 62
3
 10
1.90944881890952
 20
1.30897637795431
 30
0.0
 40
0.068897637788032
 50
9.00198752603982E-9
 51
81.0000000295824
  0
ARC
  8
3
  6
CONTINUOUS
 62
3
 10
1.31496063000451
 20
1.16633858267872
 30
0.0
 40
0.0688976377166662
 50
9.00314524794387E-9
 51
9.00000002958252
  0
LINE
  8
0
  6
CONTINUOUS
 62
0
 10
1.58390729865725
 20
2.7248031496063
 30
0.0
 11
1.53390729865725
 21
2.7248031496063
 31
0.0
  0
LINE
  8
4
  6
CONTINUOUS
 62
4
 10
1.53390729865725
 20
2.5748031496063
 30
0.0
 11
1.53390729865725
 21
2.7248031496063
 31
0.0
  0
LINE
  8
4
  6
CONTINUOUS
 62
4
 10
1.58390729865725
 20
2.5748031496063
 30
0.0
 11
1.58390729865725
 21
2.7248031496063
 31
0.0
  0
LINE
  8
0
  6
CONTINUOUS
 62
0
 10
1.54248493833983
 20
0.849999999995085
 30
0.0
 11
1.59248493833983
 21
0.849999999994375
 31
0.0
  0
LINE
  8
4
  6
CONTINUOUS
 62
4
 10
1.59248493834196
 20
0.999999999994375
 30
0.0
 11
1.59248493833983
 21
0.849999999994375
 31
0.0
  0
LINE
  8
4
  6
CONTINUOUS
 62
4
 10
1.54248493834196
 20
0.999999999995085
 30
0.0
 11
1.54248493833983
 21
0.849999999995085
 31
0.0
  0
ENDSEC
  0
EOF
