ISO-10303-21;
HEADER;
FILE_DESCRIPTION (( 'STEP AP214' ),
    '1' );
FILE_NAME ('4mm shaft 60mm.STEP',
    '2025-03-22T09:06:01',
    ( '' ),
    ( '' ),
    'SwSTEP 2.0',
    'SolidWorks 2023',
    '' );
FILE_SCHEMA (( 'AUTOMOTIVE_DESIGN' ));
ENDSEC;

DATA;
#1 = EDGE_CURVE ( 'NONE', #17, #48, #74, .T. ) ;
#2 = SURFACE_STYLE_USAGE ( .BOTH. , #56 ) ;
#3 = VERTEX_POINT ( 'NONE', #97 ) ;
#4 = CARTESIAN_POINT ( 'NONE',  ( 0.000000000000000000, 0.000000000000000000, 0.000000000000000000 ) ) ;
#5 = APPLICATION_PROTOCOL_DEFINITION ( 'draft international standard', 'automotive_design', 1998, #112 ) ;
#6 = EDGE_CURVE ( 'NONE', #48, #17, #63, .T. ) ;
#7 = ORIENTED_EDGE ( 'NONE', *, *, #1, .T. ) ;
#8 = ORIENTED_EDGE ( 'NONE', *, *, #121, .F. ) ;
#9 = CARTESIAN_POINT ( 'NONE',  ( 0.000000000000000000, 60.00000000000000000, 0.000000000000000000 ) ) ;
#10 = PRESENTATION_STYLE_ASSIGNMENT (( #2 ) ) ;
#11 = AXIS2_PLACEMENT_3D ( 'NONE', #62, #31, #124 ) ;
#12 = DIRECTION ( 'NONE',  ( 0.000000000000000000, 0.000000000000000000, 1.000000000000000000 ) ) ;
#13 = CARTESIAN_POINT ( 'NONE',  ( 0.000000000000000000, 60.00000000000000000, 0.000000000000000000 ) ) ;
#14 = CLOSED_SHELL ( 'NONE', ( #90, #101, #123, #104 ) ) ;
#15 = APPLICATION_CONTEXT ( 'automotive_design' ) ;
#16 = EDGE_CURVE ( 'NONE', #103, #3, #120, .T. ) ;
#17 = VERTEX_POINT ( 'NONE', #82 ) ;
#18 = ORIENTED_EDGE ( 'NONE', *, *, #6, .F. ) ;
#19 = FACE_OUTER_BOUND ( 'NONE', #105, .T. ) ;
#20 = PRODUCT_DEFINITION_SHAPE ( 'NONE', 'NONE',  #30 ) ;
#21 = UNCERTAINTY_MEASURE_WITH_UNIT (LENGTH_MEASURE( 1.000000000000000082E-05 ), #34, 'distance_accuracy_value', 'NONE');
#22 = CYLINDRICAL_SURFACE ( 'NONE', #87, 2.000000000000000000 ) ;
#23 = FACE_OUTER_BOUND ( 'NONE', #102, .T. ) ;
#24 = EDGE_CURVE ( 'NONE', #3, #103, #27, .T. ) ;
#25 = PRODUCT_DEFINITION_CONTEXT ( 'detailed design', #112, 'design' ) ;
#26 = DIRECTION ( 'NONE',  ( 0.000000000000000000, 1.000000000000000000, 0.000000000000000000 ) ) ;
#27 = CIRCLE ( 'NONE', #11, 2.000000000000000000 ) ;
#28 =( LENGTH_UNIT ( ) NAMED_UNIT ( * ) SI_UNIT ( .MILLI., .METRE. ) );
#29 = PRESENTATION_LAYER_ASSIGNMENT (  '', '', ( #46 ) ) ;
#30 = PRODUCT_DEFINITION ( 'UNKNOWN', '', #47, #25 ) ;
#31 = DIRECTION ( 'NONE',  ( 0.000000000000000000, 1.000000000000000000, 0.000000000000000000 ) ) ;
#32 = ORIENTED_EDGE ( 'NONE', *, *, #53, .T. ) ;
#33 = AXIS2_PLACEMENT_3D ( 'NONE', #13, #52, #65 ) ;
#34 =( LENGTH_UNIT ( ) NAMED_UNIT ( * ) SI_UNIT ( .MILLI., .METRE. ) );
#35 = DIRECTION ( 'NONE',  ( -0.000000000000000000, -1.000000000000000000, -0.000000000000000000 ) ) ;
#36 = AXIS2_PLACEMENT_3D ( 'NONE', #115, #95, #60 ) ;
#37 = ORIENTED_EDGE ( 'NONE', *, *, #24, .F. ) ;
#38 = ORIENTED_EDGE ( 'NONE', *, *, #121, .T. ) ;
#39 = PRODUCT ( '4mm shaft 60mm', '4mm shaft 60mm', '', ( #100 ) ) ;
#40 = CARTESIAN_POINT ( 'NONE',  ( 0.000000000000000000, 60.00000000000000000, 0.000000000000000000 ) ) ;
#41 = PLANE ( 'NONE',  #55 ) ;
#42 = CARTESIAN_POINT ( 'NONE',  ( 0.000000000000000000, 0.000000000000000000, -2.000000000000000000 ) ) ;
#43 = DIRECTION ( 'NONE',  ( 0.000000000000000000, 1.000000000000000000, 0.000000000000000000 ) ) ;
#44 = MECHANICAL_DESIGN_GEOMETRIC_PRESENTATION_REPRESENTATION (  '', ( #46 ), #111 ) ;
#45 = SHAPE_DEFINITION_REPRESENTATION ( #20, #93 ) ;
#46 = STYLED_ITEM ( 'NONE', ( #10 ), #49 ) ;
#47 = PRODUCT_DEFINITION_FORMATION_WITH_SPECIFIED_SOURCE ( 'ANY', '', #39, .NOT_KNOWN. ) ;
#48 = VERTEX_POINT ( 'NONE', #86 ) ;
#49 = MANIFOLD_SOLID_BREP ( 'Boss-Extrude1', #14 ) ;
#50 = DIRECTION ( 'NONE',  ( 0.000000000000000000, 0.000000000000000000, -1.000000000000000000 ) ) ;
#51 =( NAMED_UNIT ( * ) SI_UNIT ( $, .STERADIAN. ) SOLID_ANGLE_UNIT ( ) );
#52 = DIRECTION ( 'NONE',  ( 0.000000000000000000, 1.000000000000000000, 0.000000000000000000 ) ) ;
#53 = EDGE_CURVE ( 'NONE', #48, #3, #84, .T. ) ;
#54 = CARTESIAN_POINT ( 'NONE',  ( 0.000000000000000000, 60.00000000000000000, 0.000000000000000000 ) ) ;
#55 = AXIS2_PLACEMENT_3D ( 'NONE', #110, #26, #68 ) ;
#56 = SURFACE_SIDE_STYLE ('',( #71 ) ) ;
#57 = DIRECTION ( 'NONE',  ( -0.000000000000000000, -1.000000000000000000, -0.000000000000000000 ) ) ;
#58 = AXIS2_PLACEMENT_3D ( 'NONE', #4, #113, #64 ) ;
#59 = UNCERTAINTY_MEASURE_WITH_UNIT (LENGTH_MEASURE( 1.000000000000000082E-05 ), #28, 'distance_accuracy_value', 'NONE');
#60 = DIRECTION ( 'NONE',  ( 0.000000000000000000, 0.000000000000000000, 1.000000000000000000 ) ) ;
#61 = PLANE ( 'NONE',  #33 ) ;
#62 = CARTESIAN_POINT ( 'NONE',  ( 0.000000000000000000, 0.000000000000000000, 0.000000000000000000 ) ) ;
#63 = CIRCLE ( 'NONE', #89, 2.000000000000000000 ) ;
#64 = DIRECTION ( 'NONE',  ( 1.000000000000000000, 0.000000000000000000, 0.000000000000000000 ) ) ;
#65 = DIRECTION ( 'NONE',  ( 0.000000000000000000, -0.000000000000000000, 1.000000000000000000 ) ) ;
#66 = AXIS2_PLACEMENT_3D ( 'NONE', #79, #43, #75 ) ;
#67 = ORIENTED_EDGE ( 'NONE', *, *, #16, .T. ) ;
#68 = DIRECTION ( 'NONE',  ( 0.000000000000000000, -0.000000000000000000, 1.000000000000000000 ) ) ;
#69 = CARTESIAN_POINT ( 'NONE',  ( 0.000000000000000000, 60.00000000000000000, -2.000000000000000000 ) ) ;
#70 = CYLINDRICAL_SURFACE ( 'NONE', #114, 2.000000000000000000 ) ;
#71 = SURFACE_STYLE_FILL_AREA ( #106 ) ;
#72 =( NAMED_UNIT ( * ) PLANE_ANGLE_UNIT ( ) SI_UNIT ( $, .RADIAN. ) );
#73 = VECTOR ( 'NONE', #108, 1000.000000000000000 ) ;
#74 = CIRCLE ( 'NONE', #66, 2.000000000000000000 ) ;
#75 = DIRECTION ( 'NONE',  ( 0.000000000000000000, 0.000000000000000000, 1.000000000000000000 ) ) ;
#76 = LINE ( 'NONE', #69, #73 ) ;
#77 = DIRECTION ( 'NONE',  ( 0.000000000000000000, 0.000000000000000000, -1.000000000000000000 ) ) ;
#78 = FILL_AREA_STYLE_COLOUR ( '', #96 ) ;
#79 = CARTESIAN_POINT ( 'NONE',  ( 0.000000000000000000, 60.00000000000000000, 0.000000000000000000 ) ) ;
#80 = ORIENTED_EDGE ( 'NONE', *, *, #16, .F. ) ;
#81 = ORIENTED_EDGE ( 'NONE', *, *, #24, .T. ) ;
#82 = CARTESIAN_POINT ( 'NONE',  ( 0.000000000000000000, 60.00000000000000000, -2.000000000000000000 ) ) ;
#83 =( GEOMETRIC_REPRESENTATION_CONTEXT ( 3 ) GLOBAL_UNCERTAINTY_ASSIGNED_CONTEXT ( ( #59 ) ) GLOBAL_UNIT_ASSIGNED_CONTEXT ( ( #28, #72, #91 ) ) REPRESENTATION_CONTEXT ( 'NONE', 'WORKASPACE' ) );
#84 = LINE ( 'NONE', #98, #92 ) ;
#85 = FACE_OUTER_BOUND ( 'NONE', #107, .T. ) ;
#86 = CARTESIAN_POINT ( 'NONE',  ( 2.449293598294706414E-16, 60.00000000000000000, 2.000000000000000000 ) ) ;
#87 = AXIS2_PLACEMENT_3D ( 'NONE', #9, #57, #50 ) ;
#88 =( NAMED_UNIT ( * ) PLANE_ANGLE_UNIT ( ) SI_UNIT ( $, .RADIAN. ) );
#89 = AXIS2_PLACEMENT_3D ( 'NONE', #54, #119, #12 ) ;
#90 = ADVANCED_FACE ( 'NONE', ( #19 ), #22, .T. ) ;
#91 =( NAMED_UNIT ( * ) SI_UNIT ( $, .STERADIAN. ) SOLID_ANGLE_UNIT ( ) );
#92 = VECTOR ( 'NONE', #35, 1000.000000000000000 ) ;
#93 = ADVANCED_BREP_SHAPE_REPRESENTATION ( '4mm shaft 60mm', ( #49, #58 ), #83 ) ;
#94 = ORIENTED_EDGE ( 'NONE', *, *, #1, .F. ) ;
#95 = DIRECTION ( 'NONE',  ( 0.000000000000000000, 1.000000000000000000, 0.000000000000000000 ) ) ;
#96 = COLOUR_RGB ( '',0.7921568627450980005, 0.8196078431372548767, 0.9333333333333333481 ) ;
#97 = CARTESIAN_POINT ( 'NONE',  ( 2.449293598294706414E-16, 0.000000000000000000, 2.000000000000000000 ) ) ;
#98 = CARTESIAN_POINT ( 'NONE',  ( 2.449293598294706414E-16, 60.00000000000000000, 2.000000000000000000 ) ) ;
#99 = APPLICATION_PROTOCOL_DEFINITION ( 'draft international standard', 'automotive_design', 1998, #15 ) ;
#100 = PRODUCT_CONTEXT ( 'NONE', #15, 'mechanical' ) ;
#101 = ADVANCED_FACE ( 'NONE', ( #85 ), #70, .T. ) ;
#102 = EDGE_LOOP ( 'NONE', ( #7, #122 ) ) ;
#103 = VERTEX_POINT ( 'NONE', #42 ) ;
#104 = ADVANCED_FACE ( 'NONE', ( #117 ), #41, .F. ) ;
#105 = EDGE_LOOP ( 'NONE', ( #18, #32, #81, #8 ) ) ;
#106 = FILL_AREA_STYLE ('',( #78 ) ) ;
#107 = EDGE_LOOP ( 'NONE', ( #116, #94, #38, #67 ) ) ;
#108 = DIRECTION ( 'NONE',  ( -0.000000000000000000, -1.000000000000000000, -0.000000000000000000 ) ) ;
#109 = PRODUCT_RELATED_PRODUCT_CATEGORY ( 'part', '', ( #39 ) ) ;
#110 = CARTESIAN_POINT ( 'NONE',  ( 0.000000000000000000, 0.000000000000000000, 0.000000000000000000 ) ) ;
#111 =( GEOMETRIC_REPRESENTATION_CONTEXT ( 3 ) GLOBAL_UNCERTAINTY_ASSIGNED_CONTEXT ( ( #21 ) ) GLOBAL_UNIT_ASSIGNED_CONTEXT ( ( #34, #88, #51 ) ) REPRESENTATION_CONTEXT ( 'NONE', 'WORKASPACE' ) );
#112 = APPLICATION_CONTEXT ( 'automotive_design' ) ;
#113 = DIRECTION ( 'NONE',  ( 0.000000000000000000, 0.000000000000000000, 1.000000000000000000 ) ) ;
#114 = AXIS2_PLACEMENT_3D ( 'NONE', #40, #125, #77 ) ;
#115 = CARTESIAN_POINT ( 'NONE',  ( 0.000000000000000000, 0.000000000000000000, 0.000000000000000000 ) ) ;
#116 = ORIENTED_EDGE ( 'NONE', *, *, #53, .F. ) ;
#117 = FACE_OUTER_BOUND ( 'NONE', #118, .T. ) ;
#118 = EDGE_LOOP ( 'NONE', ( #80, #37 ) ) ;
#119 = DIRECTION ( 'NONE',  ( 0.000000000000000000, 1.000000000000000000, 0.000000000000000000 ) ) ;
#120 = CIRCLE ( 'NONE', #36, 2.000000000000000000 ) ;
#121 = EDGE_CURVE ( 'NONE', #17, #103, #76, .T. ) ;
#122 = ORIENTED_EDGE ( 'NONE', *, *, #6, .T. ) ;
#123 = ADVANCED_FACE ( 'NONE', ( #23 ), #61, .T. ) ;
#124 = DIRECTION ( 'NONE',  ( 0.000000000000000000, 0.000000000000000000, 1.000000000000000000 ) ) ;
#125 = DIRECTION ( 'NONE',  ( -0.000000000000000000, -1.000000000000000000, -0.000000000000000000 ) ) ;
ENDSEC;
END-ISO-10303-21;
