ISO-10303-21;
HEADER;
FILE_DESCRIPTION (( 'STEP AP214' ),
    '1' );
FILE_NAME ('4mm shaft 30mm.STEP',
    '2025-03-22T09:06:37',
    ( '' ),
    ( '' ),
    'SwSTEP 2.0',
    'SolidWorks 2023',
    '' );
FILE_SCHEMA (( 'AUTOMOTIVE_DESIGN' ));
ENDSEC;

DATA;
#1 = APPLICATION_CONTEXT ( 'automotive_design' ) ;
#2 = CIRCLE ( 'NONE', #102, 2.000000000000000000 ) ;
#3 = CARTESIAN_POINT ( 'NONE',  ( 0.000000000000000000, 30.00000000000000000, 0.000000000000000000 ) ) ;
#4 = APPLICATION_PROTOCOL_DEFINITION ( 'draft international standard', 'automotive_design', 1998, #119 ) ;
#5 = VERTEX_POINT ( 'NONE', #64 ) ;
#6 = DIRECTION ( 'NONE',  ( 0.000000000000000000, 0.000000000000000000, 1.000000000000000000 ) ) ;
#7 = CARTESIAN_POINT ( 'NONE',  ( 0.000000000000000000, 30.00000000000000000, 0.000000000000000000 ) ) ;
#8 = SURFACE_STYLE_USAGE ( .BOTH. , #94 ) ;
#9 = DIRECTION ( 'NONE',  ( 0.000000000000000000, 1.000000000000000000, 0.000000000000000000 ) ) ;
#10 = VECTOR ( 'NONE', #124, 1000.000000000000000 ) ;
#11 = CLOSED_SHELL ( 'NONE', ( #117, #12, #93, #88 ) ) ;
#12 = ADVANCED_FACE ( 'NONE', ( #73 ), #74, .T. ) ;
#13 = VERTEX_POINT ( 'NONE', #112 ) ;
#14 = CARTESIAN_POINT ( 'NONE',  ( 0.000000000000000000, 0.000000000000000000, 0.000000000000000000 ) ) ;
#15 = EDGE_LOOP ( 'NONE', ( #71, #85, #99, #110 ) ) ;
#16 =( LENGTH_UNIT ( ) NAMED_UNIT ( * ) SI_UNIT ( .MILLI., .METRE. ) );
#17 = EDGE_CURVE ( 'NONE', #5, #13, #2, .T. ) ;
#18 = CYLINDRICAL_SURFACE ( 'NONE', #55, 2.000000000000000000 ) ;
#19 = AXIS2_PLACEMENT_3D ( 'NONE', #14, #91, #86 ) ;
#20 = AXIS2_PLACEMENT_3D ( 'NONE', #89, #68, #42 ) ;
#21 = EDGE_LOOP ( 'NONE', ( #23, #69 ) ) ;
#22 = DIRECTION ( 'NONE',  ( 0.000000000000000000, 1.000000000000000000, 0.000000000000000000 ) ) ;
#23 = ORIENTED_EDGE ( 'NONE', *, *, #57, .F. ) ;
#24 = VECTOR ( 'NONE', #96, 1000.000000000000000 ) ;
#25 = DIRECTION ( 'NONE',  ( 0.000000000000000000, -0.000000000000000000, 1.000000000000000000 ) ) ;
#26 = CARTESIAN_POINT ( 'NONE',  ( 0.000000000000000000, 30.00000000000000000, 0.000000000000000000 ) ) ;
#27 = CIRCLE ( 'NONE', #108, 2.000000000000000000 ) ;
#28 = DIRECTION ( 'NONE',  ( 0.000000000000000000, 1.000000000000000000, 0.000000000000000000 ) ) ;
#29 = LINE ( 'NONE', #38, #24 ) ;
#30 = COLOUR_RGB ( '',0.7921568627450980005, 0.8196078431372548767, 0.9333333333333333481 ) ;
#31 = FACE_OUTER_BOUND ( 'NONE', #21, .T. ) ;
#32 = ORIENTED_EDGE ( 'NONE', *, *, #17, .T. ) ;
#33 = FACE_OUTER_BOUND ( 'NONE', #15, .T. ) ;
#34 = DIRECTION ( 'NONE',  ( -0.000000000000000000, -1.000000000000000000, -0.000000000000000000 ) ) ;
#35 = DIRECTION ( 'NONE',  ( 0.000000000000000000, -0.000000000000000000, 1.000000000000000000 ) ) ;
#36 = DIRECTION ( 'NONE',  ( 0.000000000000000000, 0.000000000000000000, -1.000000000000000000 ) ) ;
#37 = PLANE ( 'NONE',  #118 ) ;
#38 = CARTESIAN_POINT ( 'NONE',  ( 0.000000000000000000, 30.00000000000000000, -2.000000000000000000 ) ) ;
#39 = AXIS2_PLACEMENT_3D ( 'NONE', #3, #115, #82 ) ;
#40 = UNCERTAINTY_MEASURE_WITH_UNIT (LENGTH_MEASURE( 1.000000000000000082E-05 ), #16, 'distance_accuracy_value', 'NONE');
#41 = ADVANCED_BREP_SHAPE_REPRESENTATION ( '4mm shaft 30mm', ( #53, #20 ), #97 ) ;
#42 = DIRECTION ( 'NONE',  ( 1.000000000000000000, 0.000000000000000000, 0.000000000000000000 ) ) ;
#43 =( NAMED_UNIT ( * ) PLANE_ANGLE_UNIT ( ) SI_UNIT ( $, .RADIAN. ) );
#44 = VERTEX_POINT ( 'NONE', #46 ) ;
#45 = PRODUCT ( '4mm shaft 30mm', '4mm shaft 30mm', '', ( #67 ) ) ;
#46 = CARTESIAN_POINT ( 'NONE',  ( 2.449293598294706414E-16, 0.000000000000000000, 2.000000000000000000 ) ) ;
#47 = DIRECTION ( 'NONE',  ( 0.000000000000000000, 1.000000000000000000, 0.000000000000000000 ) ) ;
#48 = LINE ( 'NONE', #66, #10 ) ;
#49 =( LENGTH_UNIT ( ) NAMED_UNIT ( * ) SI_UNIT ( .MILLI., .METRE. ) );
#50 = DIRECTION ( 'NONE',  ( -0.000000000000000000, -1.000000000000000000, -0.000000000000000000 ) ) ;
#51 = PRODUCT_RELATED_PRODUCT_CATEGORY ( 'part', '', ( #45 ) ) ;
#52 = EDGE_LOOP ( 'NONE', ( #32, #83 ) ) ;
#53 = MANIFOLD_SOLID_BREP ( 'Boss-Extrude1', #11 ) ;
#54 = AXIS2_PLACEMENT_3D ( 'NONE', #26, #50, #36 ) ;
#55 = AXIS2_PLACEMENT_3D ( 'NONE', #7, #34, #111 ) ;
#56 =( NAMED_UNIT ( * ) SI_UNIT ( $, .STERADIAN. ) SOLID_ANGLE_UNIT ( ) );
#57 = EDGE_CURVE ( 'NONE', #61, #44, #27, .T. ) ;
#58 = SHAPE_DEFINITION_REPRESENTATION ( #122, #41 ) ;
#59 = PRODUCT_DEFINITION_FORMATION_WITH_SPECIFIED_SOURCE ( 'ANY', '', #45, .NOT_KNOWN. ) ;
#60 =( NAMED_UNIT ( * ) SI_UNIT ( $, .STERADIAN. ) SOLID_ANGLE_UNIT ( ) );
#61 = VERTEX_POINT ( 'NONE', #101 ) ;
#62 = EDGE_LOOP ( 'NONE', ( #123, #120, #100, #90 ) ) ;
#63 = DIRECTION ( 'NONE',  ( 0.000000000000000000, 0.000000000000000000, 1.000000000000000000 ) ) ;
#64 = CARTESIAN_POINT ( 'NONE',  ( 0.000000000000000000, 30.00000000000000000, -2.000000000000000000 ) ) ;
#65 = AXIS2_PLACEMENT_3D ( 'NONE', #114, #47, #25 ) ;
#66 = CARTESIAN_POINT ( 'NONE',  ( 2.449293598294706414E-16, 30.00000000000000000, 2.000000000000000000 ) ) ;
#67 = PRODUCT_CONTEXT ( 'NONE', #119, 'mechanical' ) ;
#68 = DIRECTION ( 'NONE',  ( 0.000000000000000000, 0.000000000000000000, 1.000000000000000000 ) ) ;
#69 = ORIENTED_EDGE ( 'NONE', *, *, #70, .F. ) ;
#70 = EDGE_CURVE ( 'NONE', #44, #61, #106, .T. ) ;
#71 = ORIENTED_EDGE ( 'NONE', *, *, #107, .F. ) ;
#72 = CIRCLE ( 'NONE', #39, 2.000000000000000000 ) ;
#73 = FACE_OUTER_BOUND ( 'NONE', #62, .T. ) ;
#74 = CYLINDRICAL_SURFACE ( 'NONE', #54, 2.000000000000000000 ) ;
#75 = FACE_OUTER_BOUND ( 'NONE', #52, .T. ) ;
#76 = STYLED_ITEM ( 'NONE', ( #105 ), #53 ) ;
#77 = FILL_AREA_STYLE_COLOUR ( '', #30 ) ;
#78 =( NAMED_UNIT ( * ) PLANE_ANGLE_UNIT ( ) SI_UNIT ( $, .RADIAN. ) );
#79 = CARTESIAN_POINT ( 'NONE',  ( 0.000000000000000000, 30.00000000000000000, 0.000000000000000000 ) ) ;
#80 = MECHANICAL_DESIGN_GEOMETRIC_PRESENTATION_REPRESENTATION (  '', ( #76 ), #84 ) ;
#81 = PRODUCT_DEFINITION ( 'UNKNOWN', '', #59, #116 ) ;
#82 = DIRECTION ( 'NONE',  ( 0.000000000000000000, 0.000000000000000000, 1.000000000000000000 ) ) ;
#83 = ORIENTED_EDGE ( 'NONE', *, *, #107, .T. ) ;
#84 =( GEOMETRIC_REPRESENTATION_CONTEXT ( 3 ) GLOBAL_UNCERTAINTY_ASSIGNED_CONTEXT ( ( #109 ) ) GLOBAL_UNIT_ASSIGNED_CONTEXT ( ( #49, #43, #60 ) ) REPRESENTATION_CONTEXT ( 'NONE', 'WORKASPACE' ) );
#85 = ORIENTED_EDGE ( 'NONE', *, *, #95, .T. ) ;
#86 = DIRECTION ( 'NONE',  ( 0.000000000000000000, 0.000000000000000000, 1.000000000000000000 ) ) ;
#87 = CARTESIAN_POINT ( 'NONE',  ( 0.000000000000000000, 30.00000000000000000, 0.000000000000000000 ) ) ;
#88 = ADVANCED_FACE ( 'NONE', ( #31 ), #103, .F. ) ;
#89 = CARTESIAN_POINT ( 'NONE',  ( 0.000000000000000000, 0.000000000000000000, 0.000000000000000000 ) ) ;
#90 = ORIENTED_EDGE ( 'NONE', *, *, #57, .T. ) ;
#91 = DIRECTION ( 'NONE',  ( 0.000000000000000000, 1.000000000000000000, 0.000000000000000000 ) ) ;
#92 = FILL_AREA_STYLE ('',( #77 ) ) ;
#93 = ADVANCED_FACE ( 'NONE', ( #75 ), #37, .T. ) ;
#94 = SURFACE_SIDE_STYLE ('',( #104 ) ) ;
#95 = EDGE_CURVE ( 'NONE', #13, #44, #48, .T. ) ;
#96 = DIRECTION ( 'NONE',  ( -0.000000000000000000, -1.000000000000000000, -0.000000000000000000 ) ) ;
#97 =( GEOMETRIC_REPRESENTATION_CONTEXT ( 3 ) GLOBAL_UNCERTAINTY_ASSIGNED_CONTEXT ( ( #40 ) ) GLOBAL_UNIT_ASSIGNED_CONTEXT ( ( #16, #78, #56 ) ) REPRESENTATION_CONTEXT ( 'NONE', 'WORKASPACE' ) );
#98 = APPLICATION_PROTOCOL_DEFINITION ( 'draft international standard', 'automotive_design', 1998, #1 ) ;
#99 = ORIENTED_EDGE ( 'NONE', *, *, #70, .T. ) ;
#100 = ORIENTED_EDGE ( 'NONE', *, *, #113, .T. ) ;
#101 = CARTESIAN_POINT ( 'NONE',  ( 0.000000000000000000, 0.000000000000000000, -2.000000000000000000 ) ) ;
#102 = AXIS2_PLACEMENT_3D ( 'NONE', #79, #28, #6 ) ;
#103 = PLANE ( 'NONE',  #65 ) ;
#104 = SURFACE_STYLE_FILL_AREA ( #92 ) ;
#105 = PRESENTATION_STYLE_ASSIGNMENT (( #8 ) ) ;
#106 = CIRCLE ( 'NONE', #19, 2.000000000000000000 ) ;
#107 = EDGE_CURVE ( 'NONE', #13, #5, #72, .T. ) ;
#108 = AXIS2_PLACEMENT_3D ( 'NONE', #125, #22, #63 ) ;
#109 = UNCERTAINTY_MEASURE_WITH_UNIT (LENGTH_MEASURE( 1.000000000000000082E-05 ), #49, 'distance_accuracy_value', 'NONE');
#110 = ORIENTED_EDGE ( 'NONE', *, *, #113, .F. ) ;
#111 = DIRECTION ( 'NONE',  ( 0.000000000000000000, 0.000000000000000000, -1.000000000000000000 ) ) ;
#112 = CARTESIAN_POINT ( 'NONE',  ( 2.449293598294706414E-16, 30.00000000000000000, 2.000000000000000000 ) ) ;
#113 = EDGE_CURVE ( 'NONE', #5, #61, #29, .T. ) ;
#114 = CARTESIAN_POINT ( 'NONE',  ( 0.000000000000000000, 0.000000000000000000, 0.000000000000000000 ) ) ;
#115 = DIRECTION ( 'NONE',  ( 0.000000000000000000, 1.000000000000000000, 0.000000000000000000 ) ) ;
#116 = PRODUCT_DEFINITION_CONTEXT ( 'detailed design', #1, 'design' ) ;
#117 = ADVANCED_FACE ( 'NONE', ( #33 ), #18, .T. ) ;
#118 = AXIS2_PLACEMENT_3D ( 'NONE', #87, #9, #35 ) ;
#119 = APPLICATION_CONTEXT ( 'automotive_design' ) ;
#120 = ORIENTED_EDGE ( 'NONE', *, *, #17, .F. ) ;
#121 = PRESENTATION_LAYER_ASSIGNMENT (  '', '', ( #76 ) ) ;
#122 = PRODUCT_DEFINITION_SHAPE ( 'NONE', 'NONE',  #81 ) ;
#123 = ORIENTED_EDGE ( 'NONE', *, *, #95, .F. ) ;
#124 = DIRECTION ( 'NONE',  ( -0.000000000000000000, -1.000000000000000000, -0.000000000000000000 ) ) ;
#125 = CARTESIAN_POINT ( 'NONE',  ( 0.000000000000000000, 0.000000000000000000, 0.000000000000000000 ) ) ;
ENDSEC;
END-ISO-10303-21;
